M48
;Layer_Color=9474304
;FILE_FORMAT=4:4
METRIC,LZ
;TYPE=PLATED
T01F00S00C0.2000
T02F00S00C0.2000
T03F00S00C0.8000
T04F00S00C0.9000
T05F00S00C1.0000
T06F00S00C1.0200
T07F00S00C1.1000
T08F00S00C1.3000
T09F00S00C1.5000
T10F00S00C4.0000
%
T01
X00225539Y0018669
X00235539
X00245539
X00255539Y0018669
X00265539
X00275539
X00285539
X00295539Y0018669
X0030554
X0031554
X0032554
X0033554
X0034554Y0018669
X0035554Y0018669
X0036554
X0037554
X0038554
X0039554
X0021844Y0019549
Y0020549
Y0021549
X0021844Y0022549
X0021844Y0023549
Y0024549
Y0025549
Y0026549
X0021844Y0027549
Y0028549
X0021844Y0029549
X0021844Y0030549
Y0031549
Y0032549
X0021844Y0033549
X0021844Y0034549
Y0035549
Y0036549
X0021844Y0037549
X0021844Y0038549
Y0039549
X0047117Y0034639
Y0032639
X0048768
X0050768
X0052768
X0053244Y0034925
X0051244
X0049244
X0048768Y0030639
X0047117
Y0028639
X0048768Y0028639
Y0026639
X0047117
Y0024639
X0048768
Y0022639
X0047117Y0022639
X0045117
X0043117
X0041117
Y0020639
X0040554Y0018669
X0053467Y0026162
X00572926Y00248475
X00588218
X00603458
X00603985Y00281863
X00588692
X00573452
X00583062Y00328272
X00556604Y00341974
X00570746Y00356116
X00560724Y00377534
X00546582Y00363392
X0061214Y0036544
Y0038544
X00630219Y00307706
X0071247Y0028194
X0074549Y0029972
X0075819Y0025019
Y0023368
X0073279
Y0025019
X0073554Y0018669
X0074554
X0075554
X0076554Y0018669
X0077554
X0078554
X0078265Y0020574
X0076265
X0072554Y0018669
X0071554Y0018669
X0070554
X0069554
X0068554
X0067554Y0018669
X0066554
X00656662Y0019672
X0079554Y0018669
X0080554
X0081554Y0018669
X0082554Y0018669
X0083554
X0084554
X0085554
X0086554
X0087554Y0018669
X0088554Y0018669
X0089554Y0018669
X0090554Y0018669
X0091554Y0018669
X0092554Y0018669
X0093554
X0094554
X0095554Y0018669
X0096554Y0018669
X0097554Y0018669
X0098554Y0018669
X0099554
X0100554
X0101554
X0102554
X0103554Y0018669
X0104554Y0018669
X0105554Y0018669
X0106554Y0018669
X0107554
X0108554
X0109554
X0110554
X0111554Y0018669
X0112554Y0018669
X0113554
X0114427Y0019246
Y0020246
Y0021246
Y0022246
Y0023246
X0114427Y0024246
Y0025246
Y0026246
X0114427Y0027246
Y0028246
Y0029246
Y0030246
Y0031246
Y0032246
Y0033246
Y0034246
Y0035246
Y0036246
Y0037246
Y0038246
Y0039246
X01130836Y00382159
Y00362159
Y00342159
Y00322159
Y00302159
X01077656Y00310076
X01072576
X01067582Y00310126
Y00315156
X01072576
Y00320236
X01067582
X01067694Y00325117
X01072576Y00325316
X01077656
Y00320236
Y00315156
X01064212Y00292067
X0104521Y002921
X0099949Y0028702
X0100584Y003048
Y003175
X0100825Y0033655
X01021613Y0035421
Y0036091
X01039118Y00356864
X01047876Y00362158
X01057489Y00370318
X01066863Y00380189
X01071943
X01077023
Y00385269
Y00390349
Y00395429
X01071943
X01066863
Y00390349
X01071943
Y00385269
X01066863
X01108338Y00377191
X00956678Y00380088
X00951598
X00946518
Y00385168
X00951598
X00956678
Y00390248
X00951598
X00946518
Y00395328
X00951598
X00956678
X00957269Y0032522
Y0032014
Y0031506
X00952189
X00947158
Y0032014
X00952189
Y0032522
X00947158
Y0030998
X00952189
X00957269
X0094869Y00279888
X0092583Y0030099
X0090805Y0025273
Y0020574
X0093345
X0095885
X0098425
X0100965
X0103505
X0106045
X0088265
X0086265
X0084265
X0082265
X0080265
X0084455Y0045593
X00839416Y00501693
X00819416
X00799416
X0079437Y0051816
X0081437
X0083437
X0085437
X0087437
X0089437
X0089535Y0050165
X00879416Y00501693
X00859416
X0090932Y0052578
X0092075Y0053435
Y0055435
Y0057435
Y0059435
Y0061435
X00918726Y00639564
X00906608Y00628492
X00904584Y00653706
X00892466Y00642634
X00890442Y00667848
X00878324Y00656777
X0085884Y0066167
X0083884
X0082042Y0066802
X008128Y0068421
Y0070421
Y0072421
X0081427Y0074246
X0080427
X0079427Y0074246
X0082427Y0074246
X0083427Y0074246
X0084427Y0074246
X0085427
X0086427
X0087427Y0074246
X0088427Y0074246
X0089427
X0090427
X0091427Y0074246
X0092427Y0074246
X0093427
X0094427
X0095427Y0074246
X0096427Y0074246
X0097427
X0098427
X0099427Y0074246
X0100427Y0074246
X0101427
X0102427
X0103427Y0074246
X0104427Y0074246
X0105427
X0106427
X0107427Y0074246
X0108427Y0074246
X0109427
X0110427
X0111427Y0074246
X0112427Y0074246
X0113427
X0114427
X0114427Y0073246
X0114427Y0072246
Y0071246
Y0070246
X0114427Y0069246
Y0068246
Y0067246
X0114427Y0066246
Y0065246
Y0064246
Y0063246
Y0062246
Y0061246
Y0060246
Y0059246
Y0058246
Y0057246
Y0056246
Y0055246
Y0054246
Y0053246
Y0052246
Y0051246
Y0050246
Y0049246
Y0048246
Y0047246
Y0046246
Y0045246
Y0044246
Y0043246
Y0042246
Y0041246
Y0040246
X01130836Y00402159
X01108338Y00403861
X01095794Y00460196
X0110161Y00469678
X01069914Y00468331
X01071318Y0046101
X0106392Y00453669
X01064855Y0043947
X01077718Y00444772
X01056706Y0042941
X01051562Y00429374
X01056076Y00464131
X01072174Y00482964
X01079287Y0048387
X01079806Y0049163
X0107569Y0050292
X0108331Y0051054
X010922
X0107696Y0053086
X01067532Y00547244
X01057809Y0054356
X0104267
Y0055118
X01039549Y00558554
X01039416Y0052726
X0104267Y0050776
X0104937Y00507981
X01050794Y0049478
X01026943Y00493925
X01021668Y00486545
X01021668Y0047923
X01016Y0045339
X0102707Y0044704
X01007408Y00497289
X01012896Y00503998
X01012192Y00536743
X0100847Y0056446
X01033318Y0058896
X01044603Y00597748
X0107696Y005842
X01085547Y00627508
X0108331Y0064262
X0106807Y0065659
X01065361Y0067644
X01055034Y0067787
Y0067279
X01065361Y0069644
Y0071644
X0105199Y00725654
X0103199
X0101199
X0099199
X0097199
X0095199
X0093199
X0091199
X0089199
X0087199
X0085199
X0083199
X00970345Y006982
Y0069312
X0098171Y0066675
X009906Y0067437
X0100584Y0066675
X0101219Y0067691
X01025628Y00627807
X01065574Y00627607
X0110998Y0063627
X0094869Y005588
X009525Y005207
X0077437Y0051816
X0075437
X0073437
X0071437
X0069437
X0067437
X00679416Y00501693
X00699416
X00719416
X00739416
X00759416
X00779416
X00659416
X0064516Y0051435
X00657293Y0052925
X00631018Y00528492
X00643151Y00543392
X00629009Y00557534
X00614866Y00571676
X00594866
X00574866
X00560724Y00557534
Y00537534
Y00517534
Y00497534
Y00477534
Y00457534
Y00437534
Y00417534
Y00397534
X0061214Y0040544
X00607153Y00436743
X00607003Y00443073
X00607304Y00453397
X00607303Y00459125
X00607458Y00470025
X0065024Y0047117
X005969Y00508
X0058674Y0052324
X00582446Y0052719
X00510501Y00513312
Y00508232
X00484528Y00474663
X00445504Y00424598
X00446515Y00405955
X00469773Y00399545
X00429383Y00510961
X00424303
X00419223
X00414143
X00409063
Y0051604
X00414143
X00419223
X00424303
X00429383
Y0052112
X00424303
X00419223
X00414143
X00409063
X0041872Y00612565
X0039872
X0043872
X00458509Y00612391
X00467093Y00610461
X00511906Y00577946
X0051181Y0056769
X0051427Y0074246
X0050427Y0074246
X0049427
X0048427
X0047427Y0074246
X0046427Y0074246
X0045427
X0044427
X0043427Y0074246
X0042427Y0074246
X0041427Y0074246
X0040427
X0052427Y0074246
X0053427
X0054427
X0055427Y0074246
X0056427Y0074246
X0057427
X0058427
X0059427Y0074246
X0060427Y0074246
X0061427
X0062427
X0063427Y0074246
X0064427Y0074246
X0065427
X0066427
X0067427Y0074246
X0068427Y0074246
X0069427
X0070427
X0071427Y0074246
X0072427Y0074246
X0073427
X0074427
X0075427Y0074246
X0076427Y0074246
X0077427
X0078427
X0039427Y0074246
X0038427Y0074246
X0037427Y0074246
X0036427
X0035427
X0034427Y0074246
X0033427Y0074246
X0032427
X0031427
X0030427Y0074246
X0029427Y0074246
X0028427
X0027427Y0074246
X0026427
X0025427Y0074246
X0024427Y0074246
X0023427
X0022427
X0021844Y0073549
X0021844Y0072549
X0021844Y0071549
X0021844Y0070549
Y0069549
Y0068549
Y0067549
X0021844Y0066549
X0021844Y0065549
Y0064549
Y0063549
X0021844Y0062549
X0021844Y0061549
Y0060549
X0021844Y0059549
Y0058549
X0021844Y0057549
Y0056549
Y0055549
X0021844Y0054549
X0021844Y0053549
Y0052549
Y0051549
X0021844Y0050549
X0021844Y0049549
Y0048549
Y0047549
X0021844Y0046549
X0021844Y0045549
Y0044549
X0021844Y0043549
Y0042549
X0021844Y0041549
Y0040549
X0034258Y00510961
X0034766
X0035274
X0035782
Y0051604
X0035274
X0034766
X0034258
Y0052112
X0034766
X0035274
X0035782
X003629
Y0051604
Y00510961
X0035872Y00612565
X0037872
X0033872
X00392459Y00642856
T02
X0103965Y0046952
Y0047752
Y0048552
X0104765Y0047752
X0103165
T03
X00676241Y00358143
X00777841
X00879441
Y00561343
X00828641
X00843833Y00689728
X00743833
X0060452Y006342
Y005342
T04
X0035384Y0039588
X0041134Y00413259
X0042434Y00488259
X0035384Y0049588
T05
X00697271Y00296471
X00722271
X00853771Y00618471
X00703771
T06
X0096915Y00441093
Y00466493
Y00491893
Y00517293
Y00542693
Y00568093
Y00593493
Y00618893
X0112155
Y00593493
Y00568093
Y00542693
Y00517293
Y00491893
Y00466493
Y00441093
T07
X00502559Y00235399
Y00260799
Y00286199
Y00311599
X0078232Y0021844
X0080772
X0083312
X0089535Y002159
Y002413
X0092075
X0094615
X0097155
Y002159
X0099695
Y002413
X0102235
X0104775
Y002159
X0102235
Y0027305
X0104775
X0099695
X0094615Y002159
X0092075
X0093718Y0042988
Y0045528
Y0048768
Y0051308
Y0054548
Y0057088
Y0060328
Y0062868
X009398Y006858
Y007112
X0090805Y007112
Y006858
T08
X0027984Y00293591
Y00343591
Y00393591
Y00443591
Y00493591
Y00543591
T09
X0048434Y0069738
X0033434
T10
X0025Y00225
X0068Y0025
X0111
Y0068
X0068
X0025Y00705
M30
