%TF.GenerationSoftware,Altium Limited,Altium Designer,25.4.2 (15)*%
G04 Layer_Color=39423*
%FSLAX45Y45*%
%MOMM*%
%TF.SameCoordinates,6499F7F0-7A9F-49DE-995D-C880093CFB45*%
%TF.FilePolarity,Negative*%
%TF.FileFunction,Soldermask,Top*%
%TF.Part,Single*%
G01*
G75*
%TA.AperFunction,SMDPad,CuDef*%
%ADD13R,0.90000X0.80000*%
%ADD15R,1.10620X0.75620*%
%ADD16R,1.00620X0.55620*%
%ADD17R,0.96822X1.00650*%
%ADD18R,0.95620X1.20620*%
%ADD20R,1.06822X1.20651*%
%ADD21R,1.50822X1.20651*%
%ADD22R,1.80620X1.15524*%
%ADD24R,1.20620X0.95620*%
%ADD26R,1.30981X0.90606*%
%ADD29R,1.06213X1.13504*%
%ADD30R,1.13504X1.06213*%
%ADD31R,0.91213X0.85872*%
%ADD32R,0.95822X1.00650*%
G04:AMPARAMS|DCode=35|XSize=2.1mm|YSize=2.1mm|CornerRadius=0.0525mm|HoleSize=0mm|Usage=FLASHONLY|Rotation=0.000|XOffset=0mm|YOffset=0mm|HoleType=Round|Shape=RoundedRectangle|*
%AMROUNDEDRECTD35*
21,1,2.10000,1.99500,0,0,0.0*
21,1,1.99500,2.10000,0,0,0.0*
1,1,0.10500,0.99750,-0.99750*
1,1,0.10500,-0.99750,-0.99750*
1,1,0.10500,-0.99750,0.99750*
1,1,0.10500,0.99750,0.99750*
%
%ADD35ROUNDEDRECTD35*%
G04:AMPARAMS|DCode=36|XSize=0.25mm|YSize=0.6mm|CornerRadius=0.05mm|HoleSize=0mm|Usage=FLASHONLY|Rotation=0.000|XOffset=0mm|YOffset=0mm|HoleType=Round|Shape=RoundedRectangle|*
%AMROUNDEDRECTD36*
21,1,0.25000,0.50000,0,0,0.0*
21,1,0.15000,0.60000,0,0,0.0*
1,1,0.10000,0.07500,-0.25000*
1,1,0.10000,-0.07500,-0.25000*
1,1,0.10000,-0.07500,0.25000*
1,1,0.10000,0.07500,0.25000*
%
%ADD36ROUNDEDRECTD36*%
G04:AMPARAMS|DCode=37|XSize=0.6mm|YSize=0.25mm|CornerRadius=0.05mm|HoleSize=0mm|Usage=FLASHONLY|Rotation=0.000|XOffset=0mm|YOffset=0mm|HoleType=Round|Shape=RoundedRectangle|*
%AMROUNDEDRECTD37*
21,1,0.60000,0.15000,0,0,0.0*
21,1,0.50000,0.25000,0,0,0.0*
1,1,0.10000,0.25000,-0.07500*
1,1,0.10000,-0.25000,-0.07500*
1,1,0.10000,-0.25000,0.07500*
1,1,0.10000,0.25000,0.07500*
%
%ADD37ROUNDEDRECTD37*%
%ADD38R,0.90000X1.00000*%
%ADD39R,0.75814X0.81213*%
%ADD41R,0.90000X0.75000*%
%ADD42R,0.96213X0.93504*%
%TA.AperFunction,ViaPad*%
%ADD66C,0.55000*%
%TA.AperFunction,NonConductor*%
%ADD76R,0.40000X0.60000*%
%TA.AperFunction,SMDPad,CuDef*%
%ADD77R,0.70000X1.00000*%
%ADD78R,0.70000X1.30000*%
%ADD79R,2.00000X4.30000*%
%ADD80R,0.60000X0.70000*%
%ADD81R,2.05000X0.75000*%
%ADD82R,0.70000X0.60000*%
%ADD83R,1.80000X2.40000*%
%ADD84R,0.70000X2.10000*%
%ADD85R,4.51000X2.10000*%
%TA.AperFunction,BGAPad,CuDef*%
%ADD86R,1.10000X1.10000*%
%ADD87R,1.10000X1.10000*%
%TA.AperFunction,SMDPad,CuDef*%
%ADD88R,0.90000X0.90000*%
%TA.AperFunction,ComponentPad*%
%ADD89C,1.70000*%
G04:AMPARAMS|DCode=90|XSize=1.7mm|YSize=1.7mm|CornerRadius=0.45mm|HoleSize=0mm|Usage=FLASHONLY|Rotation=90.000|XOffset=0mm|YOffset=0mm|HoleType=Round|Shape=RoundedRectangle|*
%AMROUNDEDRECTD90*
21,1,1.70000,0.80000,0,0,90.0*
21,1,0.80000,1.70000,0,0,90.0*
1,1,0.90000,0.40000,0.40000*
1,1,0.90000,0.40000,-0.40000*
1,1,0.90000,-0.40000,-0.40000*
1,1,0.90000,-0.40000,0.40000*
%
%ADD90ROUNDEDRECTD90*%
%ADD91C,1.62000*%
G04:AMPARAMS|DCode=92|XSize=1.62mm|YSize=1.62mm|CornerRadius=0.43mm|HoleSize=0mm|Usage=FLASHONLY|Rotation=270.000|XOffset=0mm|YOffset=0mm|HoleType=Round|Shape=RoundedRectangle|*
%AMROUNDEDRECTD92*
21,1,1.62000,0.76000,0,0,270.0*
21,1,0.76000,1.62000,0,0,270.0*
1,1,0.86000,-0.38000,-0.38000*
1,1,0.86000,-0.38000,0.38000*
1,1,0.86000,0.38000,0.38000*
1,1,0.86000,0.38000,-0.38000*
%
%ADD92ROUNDEDRECTD92*%
%ADD93C,1.30000*%
%ADD94C,2.10000*%
%ADD95C,1.50000*%
%ADD96C,2.05000*%
G04:AMPARAMS|DCode=97|XSize=2.05mm|YSize=2.05mm|CornerRadius=0.5375mm|HoleSize=0mm|Usage=FLASHONLY|Rotation=270.000|XOffset=0mm|YOffset=0mm|HoleType=Round|Shape=RoundedRectangle|*
%AMROUNDEDRECTD97*
21,1,2.05000,0.97500,0,0,270.0*
21,1,0.97500,2.05000,0,0,270.0*
1,1,1.07500,-0.48750,-0.48750*
1,1,1.07500,-0.48750,0.48750*
1,1,1.07500,0.48750,0.48750*
1,1,1.07500,0.48750,-0.48750*
%
%ADD97ROUNDEDRECTD97*%
G04:AMPARAMS|DCode=98|XSize=1.7mm|YSize=1.7mm|CornerRadius=0.45mm|HoleSize=0mm|Usage=FLASHONLY|Rotation=0.000|XOffset=0mm|YOffset=0mm|HoleType=Round|Shape=RoundedRectangle|*
%AMROUNDEDRECTD98*
21,1,1.70000,0.80000,0,0,0.0*
21,1,0.80000,1.70000,0,0,0.0*
1,1,0.90000,0.40000,-0.40000*
1,1,0.90000,-0.40000,-0.40000*
1,1,0.90000,-0.40000,0.40000*
1,1,0.90000,0.40000,0.40000*
%
%ADD98ROUNDEDRECTD98*%
%ADD99C,1.75000*%
G04:AMPARAMS|DCode=100|XSize=1.75mm|YSize=1.75mm|CornerRadius=0.4625mm|HoleSize=0mm|Usage=FLASHONLY|Rotation=180.000|XOffset=0mm|YOffset=0mm|HoleType=Round|Shape=RoundedRectangle|*
%AMROUNDEDRECTD100*
21,1,1.75000,0.82500,0,0,180.0*
21,1,0.82500,1.75000,0,0,180.0*
1,1,0.92500,-0.41250,0.41250*
1,1,0.92500,0.41250,0.41250*
1,1,0.92500,0.41250,-0.41250*
1,1,0.92500,-0.41250,-0.41250*
%
%ADD100ROUNDEDRECTD100*%
%ADD101C,2.35000*%
%TA.AperFunction,ViaPad*%
%ADD102C,0.65000*%
%ADD103C,7.10000*%
G36*
X4178300Y1799999D02*
Y2133600D01*
X5372100D01*
Y1799999D01*
X4178300D01*
D02*
G37*
D13*
X4768531Y4246032D02*
D03*
Y4096032D02*
D03*
D15*
X4559300Y4720800D02*
D03*
Y4905800D02*
D03*
X10542900Y4370686D02*
D03*
Y4185686D02*
D03*
X10187300Y4370686D02*
D03*
Y4185686D02*
D03*
D16*
X4749800Y4578300D02*
D03*
X4749800Y4413300D02*
D03*
D17*
X4559300Y4423214D02*
D03*
Y4568386D02*
D03*
X4756122Y4872249D02*
D03*
Y4727078D02*
D03*
D18*
X6000282Y3767099D02*
D03*
X5795283D02*
D03*
D20*
X6163841Y4396784D02*
D03*
Y4561956D02*
D03*
D21*
X5227444Y5619146D02*
D03*
Y5829317D02*
D03*
D22*
Y5105562D02*
D03*
X5227444Y5400658D02*
D03*
X5227445Y6342901D02*
D03*
X5227444Y6047805D02*
D03*
D24*
X4485126Y6123843D02*
D03*
Y6328843D02*
D03*
X6163841Y4773194D02*
D03*
Y4978194D02*
D03*
X10447975Y6752818D02*
D03*
Y6957817D02*
D03*
X9804055Y6957023D02*
D03*
Y6752023D02*
D03*
D26*
X7162800Y2084208D02*
D03*
Y1928992D02*
D03*
D29*
X6481907Y1923733D02*
D03*
Y2086811D02*
D03*
X10241067Y5897347D02*
D03*
X10241067Y5734269D02*
D03*
X10652280Y5897347D02*
D03*
Y5734269D02*
D03*
X10858493Y5897347D02*
D03*
X10858494Y5734269D02*
D03*
D30*
X5736853Y3278106D02*
D03*
X5573775D02*
D03*
D31*
X10949800Y4197323D02*
D03*
Y4352664D02*
D03*
D32*
X10741430Y4200103D02*
D03*
Y4345274D02*
D03*
D35*
X10396500Y4775200D02*
D03*
D36*
X10221500Y5015200D02*
D03*
X10271500D02*
D03*
X10321500D02*
D03*
X10371500D02*
D03*
X10421500D02*
D03*
X10471500D02*
D03*
X10521500D02*
D03*
X10571500D02*
D03*
Y4535200D02*
D03*
X10521500D02*
D03*
X10471500D02*
D03*
X10421500D02*
D03*
X10371500D02*
D03*
X10321500D02*
D03*
X10271500D02*
D03*
X10221500D02*
D03*
D37*
X10636500Y4950200D02*
D03*
Y4900200D02*
D03*
Y4850200D02*
D03*
Y4800200D02*
D03*
Y4750200D02*
D03*
Y4700200D02*
D03*
Y4650200D02*
D03*
Y4600200D02*
D03*
X10156500D02*
D03*
Y4650200D02*
D03*
Y4700200D02*
D03*
Y4750200D02*
D03*
Y4800200D02*
D03*
Y4850200D02*
D03*
Y4900200D02*
D03*
Y4950200D02*
D03*
D38*
X10370091Y4368186D02*
D03*
X10370090Y4188186D02*
D03*
X9919700Y6197600D02*
D03*
X10044700Y6197600D02*
D03*
X9919700Y5689600D02*
D03*
X10044700Y5689600D02*
D03*
D39*
X10941799Y4699000D02*
D03*
X10816401D02*
D03*
D41*
X10255190Y6199737D02*
D03*
Y6079737D02*
D03*
X10655493Y6195880D02*
D03*
Y6075880D02*
D03*
X10858500Y6194100D02*
D03*
Y6074100D02*
D03*
D42*
X10444173Y5887348D02*
D03*
Y5744269D02*
D03*
D66*
X10396500Y4695200D02*
D03*
Y4855200D02*
D03*
X10476500Y4775200D02*
D03*
X10396500D02*
D03*
X10316500D02*
D03*
D76*
X9956800Y4450400D02*
D03*
Y4557000D02*
D03*
Y4663600D02*
D03*
Y4770200D02*
D03*
Y4876800D02*
D03*
D77*
X9881800Y4450400D02*
D03*
X10031800D02*
D03*
X9881800Y4557000D02*
D03*
X10031800D02*
D03*
X9881800Y4663600D02*
D03*
X10031800D02*
D03*
X9881800Y4770200D02*
D03*
X10031800D02*
D03*
X9881800Y4876800D02*
D03*
X10031800D02*
D03*
D78*
X10144765Y6955501D02*
D03*
X10239765Y6775502D02*
D03*
X10049765Y6775501D02*
D03*
D79*
X9715036Y3876378D02*
D03*
Y3176378D02*
D03*
X10916486Y3876388D02*
D03*
Y3176388D02*
D03*
D80*
X4627953Y4120819D02*
D03*
X4527953D02*
D03*
X4628530Y4246219D02*
D03*
X4528531D02*
D03*
X4628276Y3995419D02*
D03*
X4528277D02*
D03*
D81*
X5931031Y4871909D02*
D03*
Y4744909D02*
D03*
Y4617909D02*
D03*
Y4490909D02*
D03*
Y4363909D02*
D03*
Y4236909D02*
D03*
Y4109909D02*
D03*
Y3982909D02*
D03*
X4986031D02*
D03*
Y4109909D02*
D03*
Y4236909D02*
D03*
Y4363909D02*
D03*
Y4490909D02*
D03*
Y4617909D02*
D03*
Y4744909D02*
D03*
Y4871909D02*
D03*
D82*
X4672000Y6173000D02*
D03*
Y6273000D02*
D03*
D83*
X7451200Y2000511D02*
D03*
Y2420511D02*
D03*
D84*
X3415316Y6283803D02*
D03*
X3542316Y6283803D02*
D03*
X3669316D02*
D03*
X3796316D02*
D03*
X3923316D02*
D03*
X4050316Y6283803D02*
D03*
X4177316Y6283803D02*
D03*
X4304316Y6283803D02*
D03*
D85*
X4113816Y5353803D02*
D03*
X3605816D02*
D03*
D86*
X5883951Y2577046D02*
D03*
X5558951Y3027046D02*
D03*
Y2877046D02*
D03*
Y2727046D02*
D03*
Y2577046D02*
D03*
X5733951D02*
D03*
Y2727046D02*
D03*
X5883951D02*
D03*
X6033951D02*
D03*
Y2577046D02*
D03*
D87*
X6208951Y2427046D02*
D03*
Y2577046D02*
D03*
Y2727046D02*
D03*
Y2877046D02*
D03*
Y3027046D02*
D03*
X6033951D02*
D03*
X5883951D02*
D03*
X5733951D02*
D03*
X5558951Y2427046D02*
D03*
Y2277046D02*
D03*
X5883951D02*
D03*
X6033951D02*
D03*
X5733951D02*
D03*
D88*
X10954100Y4521200D02*
D03*
X10804100Y4521200D02*
D03*
D89*
X9371800Y5708800D02*
D03*
Y6286799D02*
D03*
X5025593Y2861992D02*
D03*
Y2607992D02*
D03*
Y2353992D02*
D03*
X8331200Y2184400D02*
D03*
X8077200D02*
D03*
X9398000Y6858000D02*
D03*
X9371800Y5130800D02*
D03*
Y4552800D02*
D03*
X10477500Y2730500D02*
D03*
X10223500D02*
D03*
X9080500Y6858000D02*
D03*
D90*
X9371800Y5454800D02*
D03*
Y6032800D02*
D03*
X5025593Y3115992D02*
D03*
X9398000Y7112000D02*
D03*
X9371800Y4876800D02*
D03*
Y4298800D02*
D03*
X9080500Y7112000D02*
D03*
D91*
X11215500Y4410929D02*
D03*
Y4664929D02*
D03*
Y5680929D02*
D03*
Y5934929D02*
D03*
Y5426929D02*
D03*
Y5172929D02*
D03*
Y4918929D02*
D03*
X9691500Y4410929D02*
D03*
Y4664929D02*
D03*
Y5680929D02*
D03*
Y5934929D02*
D03*
Y5426929D02*
D03*
Y5172929D02*
D03*
Y4918929D02*
D03*
D92*
X11215500Y6188929D02*
D03*
X9691500D02*
D03*
D93*
X8537705Y6184707D02*
D03*
X7037705D02*
D03*
D94*
X7222705Y2964707D02*
D03*
X6972705D02*
D03*
X8794410Y3581429D02*
D03*
X8286410Y5613429D02*
D03*
X8794410D02*
D03*
X6762410Y3581429D02*
D03*
X7778410D02*
D03*
X6045200Y6342000D02*
D03*
Y5342000D02*
D03*
X7438330Y6897278D02*
D03*
X8438330D02*
D03*
D95*
X3538400Y4958803D02*
D03*
Y3958803D02*
D03*
X4113400Y4132586D02*
D03*
X4243401Y4882586D02*
D03*
D96*
X2798400Y2935913D02*
D03*
Y3435913D02*
D03*
Y3935913D02*
D03*
Y4935913D02*
D03*
Y4435913D02*
D03*
D97*
Y5435913D02*
D03*
D98*
X7823200Y2184400D02*
D03*
X9969500Y2730500D02*
D03*
D99*
X9715500Y2159000D02*
D03*
Y2413000D02*
D03*
X9969500Y2159000D02*
D03*
Y2413000D02*
D03*
X10477500Y2159000D02*
D03*
X10223500Y2413000D02*
D03*
Y2159000D02*
D03*
X9461500Y2413000D02*
D03*
Y2159000D02*
D03*
X9207500Y2413000D02*
D03*
X8953500D02*
D03*
X9207500Y2159000D02*
D03*
X8953500D02*
D03*
D100*
X10477500Y2413000D02*
D03*
D101*
X4843398Y6973803D02*
D03*
X3343398D02*
D03*
D102*
X10391179Y3568635D02*
D03*
X10216132Y3542100D02*
D03*
X10515625Y4293738D02*
D03*
X5119057Y5779457D02*
D03*
X5118100Y5676900D02*
D03*
X5867400Y5232400D02*
D03*
X5824457Y5271900D02*
D03*
X10084700Y5644600D02*
D03*
X9525000Y5207000D02*
D03*
X9486900Y5588000D02*
D03*
X10648549Y4394700D02*
D03*
X10639195Y4536692D02*
D03*
X10713181Y4610100D02*
D03*
X10777181Y4447717D02*
D03*
X10957937Y4601957D02*
D03*
X10507942Y4947795D02*
D03*
X10426700Y5077600D02*
D03*
X10493699Y5079809D02*
D03*
X10578091Y5435600D02*
D03*
X10560761Y4641310D02*
D03*
X10699136Y4683306D02*
D03*
X10922000Y5105400D02*
D03*
X10160000Y4533900D02*
D03*
X10074083Y4972887D02*
D03*
X10121920Y5367432D02*
D03*
X10426700Y5511800D02*
D03*
X10769600Y5308600D02*
D03*
X10642116Y2920668D02*
D03*
X10574891Y3703181D02*
D03*
X10675825Y3101263D02*
D03*
Y3151556D02*
D03*
Y3202356D02*
D03*
X10676940Y3251172D02*
D03*
X10216132Y3609100D02*
D03*
X10478757Y3621580D02*
D03*
X10567064Y4294101D02*
D03*
X10721743Y4829644D02*
D03*
X10833100Y5105400D02*
D03*
X10395488Y5585545D02*
D03*
X10756900Y5029200D02*
D03*
X10216681Y4865450D02*
D03*
X10675324Y5472445D02*
D03*
X10426700Y5435600D02*
D03*
X10394163Y5272600D02*
D03*
X10769600Y5842000D02*
D03*
X10128959Y5039982D02*
D03*
X10269431Y4939250D02*
D03*
X10216682Y4792295D02*
D03*
X10798057Y4916300D02*
D03*
X10792872Y4838695D02*
D03*
X10655740Y6276075D02*
D03*
X9471583Y3150603D02*
D03*
X9521892D02*
D03*
X9572692D02*
D03*
X9471583Y3201403D02*
D03*
X9521892D02*
D03*
X9572692D02*
D03*
X9471583Y3252203D02*
D03*
X9521892D02*
D03*
X9572692D02*
D03*
X9515982Y3800877D02*
D03*
X9465182D02*
D03*
X9566782D02*
D03*
X9465182Y3851677D02*
D03*
X9566782D02*
D03*
X9515982D02*
D03*
X9465182Y3902477D02*
D03*
X9566782D02*
D03*
X9515982D02*
D03*
X9465182Y3953277D02*
D03*
X9566782D02*
D03*
X9515982D02*
D03*
X9572692Y3099803D02*
D03*
X9521892D02*
D03*
X9471583D02*
D03*
X9817100Y6667500D02*
D03*
X9906000Y6743700D02*
D03*
X10121900Y6769100D02*
D03*
X10058400Y6667500D02*
D03*
X5346700Y2616200D02*
D03*
X7581900Y2501900D02*
D03*
Y2336800D02*
D03*
X7327900D02*
D03*
Y2501900D02*
D03*
X6655397Y1866900D02*
D03*
X3955396D02*
D03*
X4055396Y1866901D02*
D03*
X3555396Y1866900D02*
D03*
X3855396D02*
D03*
X3755396D02*
D03*
X3655396D02*
D03*
X3155396D02*
D03*
X3455396Y1866901D02*
D03*
X3355396Y1866900D02*
D03*
X3255396D02*
D03*
X3055396D02*
D03*
X2955395D02*
D03*
X2855395Y1866901D02*
D03*
X2355395Y1866900D02*
D03*
X2455395D02*
D03*
X2255395D02*
D03*
X2755395Y1866901D02*
D03*
X2655395D02*
D03*
X2555395D02*
D03*
X11155400Y1866900D02*
D03*
X11255400Y1866900D02*
D03*
X11355400D02*
D03*
X11055400D02*
D03*
X10655400D02*
D03*
X10955400D02*
D03*
X10855400D02*
D03*
X10755400D02*
D03*
X10255399D02*
D03*
X10555400Y1866900D02*
D03*
X10455399Y1866900D02*
D03*
X10355399Y1866900D02*
D03*
X9855399Y1866900D02*
D03*
X10155399D02*
D03*
X10055399D02*
D03*
X9955399D02*
D03*
X9455399D02*
D03*
X9755399Y1866900D02*
D03*
X9655399Y1866900D02*
D03*
X9555399Y1866900D02*
D03*
X9055399Y1866900D02*
D03*
X9355399D02*
D03*
X9255399D02*
D03*
X9155399Y1866900D02*
D03*
X8655398Y1866900D02*
D03*
X8955399Y1866900D02*
D03*
X8855399Y1866900D02*
D03*
X8755399Y1866900D02*
D03*
X8255398Y1866900D02*
D03*
X8555398D02*
D03*
X8455398D02*
D03*
X8355398D02*
D03*
X7855398D02*
D03*
X8155398Y1866900D02*
D03*
X8055398Y1866900D02*
D03*
X7955398D02*
D03*
X7755398D02*
D03*
X7655398D02*
D03*
X7555398Y1866900D02*
D03*
X7055398Y1866900D02*
D03*
X7155398D02*
D03*
X6955398D02*
D03*
X6855398D02*
D03*
X6755397Y1866900D02*
D03*
X7455398D02*
D03*
X7355398D02*
D03*
X7255398D02*
D03*
X11442700Y2424598D02*
D03*
Y2524598D02*
D03*
Y2624598D02*
D03*
Y6724600D02*
D03*
Y6824600D02*
D03*
Y6924600D02*
D03*
X2184400Y2054897D02*
D03*
Y1954897D02*
D03*
Y2154897D02*
D03*
Y2454897D02*
D03*
Y2354897D02*
D03*
X2184400Y2254897D02*
D03*
X2342695Y7424601D02*
D03*
X2442695D02*
D03*
X2742695D02*
D03*
X2642695D02*
D03*
X2542695Y7424601D02*
D03*
X2184400Y6954900D02*
D03*
Y7054900D02*
D03*
Y7254900D02*
D03*
X2184400Y7154900D02*
D03*
X2184400Y4054898D02*
D03*
Y3354898D02*
D03*
X2184401Y3454898D02*
D03*
Y3554898D02*
D03*
Y3254898D02*
D03*
X2184400Y3754898D02*
D03*
X2184401Y3854898D02*
D03*
Y3954898D02*
D03*
Y3654898D02*
D03*
X2184400Y2554897D02*
D03*
Y2654897D02*
D03*
X2184401Y2754897D02*
D03*
X2184400Y2954898D02*
D03*
X2184401Y3054898D02*
D03*
Y3154898D02*
D03*
Y2854898D02*
D03*
X2184400Y7354900D02*
D03*
Y6654900D02*
D03*
X2184400Y6754900D02*
D03*
Y6854900D02*
D03*
Y6554900D02*
D03*
X2184400Y5854899D02*
D03*
Y5954899D02*
D03*
X2184400Y6054899D02*
D03*
Y5754899D02*
D03*
X2184400Y6254899D02*
D03*
X2184400Y6354899D02*
D03*
Y6454899D02*
D03*
Y6154900D02*
D03*
X2184400Y5054899D02*
D03*
X2184400Y5154899D02*
D03*
Y5254899D02*
D03*
Y4954899D02*
D03*
X2184400Y5454899D02*
D03*
X2184400Y5554899D02*
D03*
Y5654899D02*
D03*
Y5354899D02*
D03*
X2184400Y4254898D02*
D03*
Y4354898D02*
D03*
X2184400Y4454898D02*
D03*
Y4154898D02*
D03*
X2184400Y4654898D02*
D03*
X2184400Y4754899D02*
D03*
Y4854899D02*
D03*
Y4554899D02*
D03*
X4142696Y7424600D02*
D03*
X3442696Y7424601D02*
D03*
X3542696Y7424600D02*
D03*
X3642696D02*
D03*
X3342696D02*
D03*
X3842696Y7424601D02*
D03*
X3942696Y7424600D02*
D03*
X4042696D02*
D03*
X3742696D02*
D03*
X2842695D02*
D03*
X3042695Y7424601D02*
D03*
X3142696Y7424600D02*
D03*
X3242696D02*
D03*
X2942695D02*
D03*
X2242695Y7424601D02*
D03*
X4642696D02*
D03*
X4942696D02*
D03*
X4842696D02*
D03*
X4742696Y7424601D02*
D03*
X4242696Y7424601D02*
D03*
X4542696D02*
D03*
X4442696D02*
D03*
X4342696Y7424601D02*
D03*
X5442697Y7424601D02*
D03*
X5742697D02*
D03*
X5642697D02*
D03*
X5542697Y7424601D02*
D03*
X5042697Y7424601D02*
D03*
X5342697D02*
D03*
X5242697D02*
D03*
X5142697Y7424601D02*
D03*
X6242697Y7424601D02*
D03*
X6542697D02*
D03*
X6442697D02*
D03*
X6342697Y7424601D02*
D03*
X5842697Y7424601D02*
D03*
X6142697D02*
D03*
X6042697D02*
D03*
X5942697Y7424601D02*
D03*
X7042698Y7424601D02*
D03*
X7342698D02*
D03*
X7242698D02*
D03*
X7142698Y7424601D02*
D03*
X6642697Y7424601D02*
D03*
X6942698D02*
D03*
X6842698D02*
D03*
X6742697Y7424601D02*
D03*
X7842698Y7424601D02*
D03*
X8142698D02*
D03*
X8042698D02*
D03*
X7942698Y7424601D02*
D03*
X7442698Y7424601D02*
D03*
X7742698D02*
D03*
X7642698D02*
D03*
X7542698Y7424601D02*
D03*
X8642698Y7424601D02*
D03*
X8942699D02*
D03*
X8842699D02*
D03*
X8742699Y7424601D02*
D03*
X8242698Y7424601D02*
D03*
X8542698D02*
D03*
X8442698D02*
D03*
X8342698Y7424601D02*
D03*
X9442699Y7424601D02*
D03*
X9742699D02*
D03*
X9642699D02*
D03*
X9542699Y7424601D02*
D03*
X9042699Y7424601D02*
D03*
X9342699D02*
D03*
X9242699D02*
D03*
X9142699Y7424601D02*
D03*
X10242699Y7424601D02*
D03*
X10542700D02*
D03*
X10442699D02*
D03*
X10342699Y7424601D02*
D03*
X9842699Y7424601D02*
D03*
X10142699D02*
D03*
X10042699D02*
D03*
X9942699Y7424601D02*
D03*
X10742700D02*
D03*
X10842700Y7424601D02*
D03*
X10942700D02*
D03*
X10642700D02*
D03*
X11142700Y7424601D02*
D03*
X11242700Y7424601D02*
D03*
X11342700D02*
D03*
X11042700D02*
D03*
X11442700Y7324601D02*
D03*
X11442700Y7224600D02*
D03*
Y7124600D02*
D03*
Y7424601D02*
D03*
Y7024600D02*
D03*
Y1924598D02*
D03*
Y2024598D02*
D03*
Y2124598D02*
D03*
Y2324598D02*
D03*
Y2224598D02*
D03*
Y2724598D02*
D03*
Y2824598D02*
D03*
Y2924598D02*
D03*
Y3124598D02*
D03*
Y3224598D02*
D03*
Y3324598D02*
D03*
Y3024598D02*
D03*
Y3524598D02*
D03*
Y3624599D02*
D03*
Y3724599D02*
D03*
Y3424598D02*
D03*
Y3924599D02*
D03*
Y4024599D02*
D03*
Y4124599D02*
D03*
Y3824599D02*
D03*
Y4324599D02*
D03*
Y4424599D02*
D03*
Y4524599D02*
D03*
Y4224599D02*
D03*
Y4724599D02*
D03*
Y4824599D02*
D03*
Y4924599D02*
D03*
Y4624599D02*
D03*
Y5124599D02*
D03*
Y5224599D02*
D03*
Y5324599D02*
D03*
Y5024599D02*
D03*
Y5524600D02*
D03*
Y5624600D02*
D03*
Y5724600D02*
D03*
Y5424600D02*
D03*
Y5924600D02*
D03*
Y6024600D02*
D03*
Y6124600D02*
D03*
Y5824600D02*
D03*
Y6224600D02*
D03*
Y6624600D02*
D03*
Y6524600D02*
D03*
Y6424600D02*
D03*
Y6324600D02*
D03*
X5105007Y5133117D02*
D03*
Y5082317D02*
D03*
X6566620Y1967200D02*
D03*
X10058400Y3175000D02*
D03*
X10855470Y6275077D02*
D03*
X11016100Y4696784D02*
D03*
X10446025Y5977480D02*
D03*
X10256282Y6278073D02*
D03*
X10333177Y5889599D02*
D03*
X10550343Y6727904D02*
D03*
Y6778704D02*
D03*
X9703448Y6931199D02*
D03*
Y6981999D02*
D03*
X4670934Y6104613D02*
D03*
X4585087Y6123912D02*
D03*
X3924589Y6428556D02*
D03*
X6074582Y4700248D02*
D03*
X4465145Y4059545D02*
D03*
X4697732Y3995446D02*
D03*
X4455040Y4245977D02*
D03*
X6073031Y4591248D02*
D03*
X6073041Y4533967D02*
D03*
X6070026Y4430728D02*
D03*
X6071534Y4367427D02*
D03*
X6302185Y3077061D02*
D03*
X5830622Y3282720D02*
D03*
X5882182Y2484754D02*
D03*
X5729259D02*
D03*
X6034582D02*
D03*
X5734524Y2818629D02*
D03*
X6039848D02*
D03*
X5886924D02*
D03*
X4090631Y5109605D02*
D03*
X5969000Y5080000D02*
D03*
X4845280Y4746632D02*
D03*
X3527400Y5109605D02*
D03*
X3425800D02*
D03*
X3578200D02*
D03*
X3476600D02*
D03*
X3527400Y5160405D02*
D03*
X3476600D02*
D03*
X3425800D02*
D03*
X3578200D02*
D03*
X3629000D02*
D03*
Y5109605D02*
D03*
X4293831D02*
D03*
X4141431D02*
D03*
X4192231D02*
D03*
X4243031D02*
D03*
X4141431Y5160405D02*
D03*
X3629000Y5211205D02*
D03*
X4192231Y5160405D02*
D03*
X4243031D02*
D03*
X4293831D02*
D03*
X3425800Y5211205D02*
D03*
X3527400D02*
D03*
X3476600D02*
D03*
X3578200D02*
D03*
X4141431D02*
D03*
X4192231D02*
D03*
X4243031D02*
D03*
X4293831D02*
D03*
X4090631Y5160405D02*
D03*
Y5211205D02*
D03*
X10452100Y2921000D02*
D03*
X10725756Y3151556D02*
D03*
Y3202356D02*
D03*
X10776556D02*
D03*
X10725756Y3100756D02*
D03*
X10776556D02*
D03*
Y3151556D02*
D03*
Y3253156D02*
D03*
X10725756D02*
D03*
X10719434Y3954292D02*
D03*
X10668634Y3903492D02*
D03*
Y3801892D02*
D03*
X10770234Y3954292D02*
D03*
X10668634D02*
D03*
X10770234Y3852692D02*
D03*
Y3801892D02*
D03*
X10719434D02*
D03*
X10770234Y3903492D02*
D03*
X10719434D02*
D03*
Y3852692D02*
D03*
X10668634D02*
D03*
X10270700Y4470400D02*
D03*
D103*
X2500000Y2250000D02*
D03*
X6800000Y2500000D02*
D03*
X11100000D02*
D03*
X6800000Y6800000D02*
D03*
X11100000D02*
D03*
X2500000Y7050000D02*
D03*
%TF.MD5,b43bb10804c30428eac389296597b1d1*%
M02*
