%TF.GenerationSoftware,Altium Limited,Altium Designer,25.4.2 (15)*%
G04 Layer_Color=0*
%FSLAX45Y45*%
%MOMM*%
%TF.SameCoordinates,6499F7F0-7A9F-49DE-995D-C880093CFB45*%
%TF.FilePolarity,Positive*%
%TF.FileFunction,Plated,1,4,PTH,Drill*%
%TF.Part,Single*%
G01*
G75*
%TA.AperFunction,ComponentDrill*%
%ADD105C,1.10000*%
%ADD106C,1.02000*%
%ADD107C,1.00000*%
%ADD108C,0.90000*%
%ADD109C,1.30000*%
%ADD110C,1.10000*%
%ADD111C,0.80000*%
%ADD112C,0.80000*%
%ADD113C,1.50000*%
%TA.AperFunction,ViaDrill,NotFilled*%
%ADD114C,0.20000*%
%ADD115C,4.00000*%
D105*
X9371800Y5708800D02*
D03*
Y5454800D02*
D03*
Y6286799D02*
D03*
Y6032800D02*
D03*
X5025593Y2861992D02*
D03*
Y3115992D02*
D03*
Y2607992D02*
D03*
Y2353992D02*
D03*
X9398000Y6858000D02*
D03*
Y7112000D02*
D03*
X9371800Y4876800D02*
D03*
Y5130800D02*
D03*
Y4298800D02*
D03*
Y4552800D02*
D03*
X9080500Y6858000D02*
D03*
Y7112000D02*
D03*
D106*
X11215500Y4410929D02*
D03*
Y4664929D02*
D03*
Y5680929D02*
D03*
Y6188929D02*
D03*
Y5934929D02*
D03*
Y5426929D02*
D03*
Y5172929D02*
D03*
Y4918929D02*
D03*
X9691500Y4410929D02*
D03*
Y4664929D02*
D03*
Y5680929D02*
D03*
Y6188929D02*
D03*
Y5934929D02*
D03*
Y5426929D02*
D03*
Y5172929D02*
D03*
Y4918929D02*
D03*
D107*
X8537705Y6184707D02*
D03*
X7037705D02*
D03*
X7222705Y2964707D02*
D03*
X6972705D02*
D03*
D108*
X3538400Y4958803D02*
D03*
Y3958803D02*
D03*
X4113400Y4132586D02*
D03*
X4243401Y4882586D02*
D03*
D109*
X2798400Y2935913D02*
D03*
Y3435913D02*
D03*
Y3935913D02*
D03*
Y5435913D02*
D03*
Y4935913D02*
D03*
Y4435913D02*
D03*
D110*
X8331200Y2184400D02*
D03*
X8077200D02*
D03*
X7823200D02*
D03*
X9715500Y2159000D02*
D03*
Y2413000D02*
D03*
X9969500Y2159000D02*
D03*
Y2413000D02*
D03*
X10477500D02*
D03*
Y2159000D02*
D03*
X10223500Y2413000D02*
D03*
Y2159000D02*
D03*
X9461500Y2413000D02*
D03*
Y2159000D02*
D03*
X9207500Y2413000D02*
D03*
X8953500D02*
D03*
X9207500Y2159000D02*
D03*
X8953500D02*
D03*
X10477500Y2730500D02*
D03*
X10223500D02*
D03*
X9969500D02*
D03*
D111*
X8794410Y3581429D02*
D03*
X8286410Y5613429D02*
D03*
X8794410D02*
D03*
X6762410Y3581429D02*
D03*
X7778410D02*
D03*
X6045200Y6342000D02*
D03*
Y5342000D02*
D03*
D112*
X7438330Y6897278D02*
D03*
X8438330D02*
D03*
D113*
X4843398Y6973803D02*
D03*
X3343398D02*
D03*
D114*
X9486900Y2798878D02*
D03*
X10391179Y3568635D02*
D03*
X10082500Y3365500D02*
D03*
X10216132Y3542100D02*
D03*
X10515625Y4293738D02*
D03*
X5119057Y5779457D02*
D03*
X5118100Y5676900D02*
D03*
X5867400Y5232400D02*
D03*
X5607243Y5575344D02*
D03*
X5824457Y5271900D02*
D03*
X10833100Y6426200D02*
D03*
X10680700Y6565900D02*
D03*
X10653606Y6764400D02*
D03*
Y6964400D02*
D03*
X10084700Y5644600D02*
D03*
X9525000Y5207000D02*
D03*
X9486900Y5588000D02*
D03*
X10648549Y4394700D02*
D03*
X10639195Y4536692D02*
D03*
X10713181Y4610100D02*
D03*
X10777181Y4447717D02*
D03*
X10957937Y4601957D02*
D03*
X10507942Y4947795D02*
D03*
X10426700Y5077600D02*
D03*
X10493699Y5079809D02*
D03*
X10578091Y5435600D02*
D03*
X10560761Y4641310D02*
D03*
X10699136Y4683306D02*
D03*
X10922000Y5105400D02*
D03*
X10160000Y4533900D02*
D03*
X10074083Y4972887D02*
D03*
X10121920Y5367432D02*
D03*
X10426700Y5511800D02*
D03*
X10769600Y5308600D02*
D03*
X10642116Y2920668D02*
D03*
X10574891Y3703181D02*
D03*
X10675825Y3101263D02*
D03*
Y3151556D02*
D03*
Y3202356D02*
D03*
X10676940Y3251172D02*
D03*
X10216132Y3609100D02*
D03*
X10478757Y3621580D02*
D03*
X10567064Y4294101D02*
D03*
X10721743Y4829644D02*
D03*
X10833100Y5105400D02*
D03*
X10395488Y5585545D02*
D03*
X10756900Y5029200D02*
D03*
X10216681Y4865450D02*
D03*
X10675324Y5472445D02*
D03*
X10426700Y5435600D02*
D03*
X10394163Y5272600D02*
D03*
X10769600Y5842000D02*
D03*
X8943701Y5181600D02*
D03*
X10128959Y5039982D02*
D03*
X10269431Y4939250D02*
D03*
X10216682Y4792295D02*
D03*
X10798057Y4916300D02*
D03*
X10792872Y4838695D02*
D03*
X10655740Y6276075D02*
D03*
X10058400Y3048000D02*
D03*
X9471583Y3150603D02*
D03*
X9521892D02*
D03*
X9572692D02*
D03*
X9471583Y3201403D02*
D03*
X9521892D02*
D03*
X9572692D02*
D03*
X9471583Y3252203D02*
D03*
X9521892D02*
D03*
X9572692D02*
D03*
X9515982Y3800877D02*
D03*
X9465182D02*
D03*
X9566782D02*
D03*
X9465182Y3851677D02*
D03*
X9566782D02*
D03*
X9515982D02*
D03*
X9465182Y3902477D02*
D03*
X9566782D02*
D03*
X9515982D02*
D03*
X9465182Y3953277D02*
D03*
X9566782D02*
D03*
X9515982D02*
D03*
X9572692Y3099803D02*
D03*
X9521892D02*
D03*
X9471583D02*
D03*
X7124700Y2819400D02*
D03*
X9817100Y6667500D02*
D03*
X9906000Y6743700D02*
D03*
X10121900Y6769100D02*
D03*
X10058400Y6667500D02*
D03*
X11099800Y6362700D02*
D03*
X11083378Y3771910D02*
D03*
Y4038610D02*
D03*
X9080500Y2527300D02*
D03*
X9994900Y2870200D02*
D03*
X9258300Y3009900D02*
D03*
X7454900Y2997200D02*
D03*
X8128000Y6842100D02*
D03*
Y7042100D02*
D03*
Y7242100D02*
D03*
X8204200Y6680200D02*
D03*
X8588400Y6616700D02*
D03*
X8388400D02*
D03*
X9066079Y6284922D02*
D03*
X8924657Y6426344D02*
D03*
X8783236Y6567765D02*
D03*
X9207500Y5943500D02*
D03*
Y6143501D02*
D03*
Y5343500D02*
D03*
Y5543500D02*
D03*
Y5743500D02*
D03*
X8743701Y5181600D02*
D03*
X9093200Y5257800D02*
D03*
X8143701Y5181600D02*
D03*
X8343701D02*
D03*
X8543701D02*
D03*
X7543700D02*
D03*
X7743701D02*
D03*
X7943701D02*
D03*
X7343700D02*
D03*
X7143700D02*
D03*
X6943700D02*
D03*
X6743700D02*
D03*
X6572929Y5292501D02*
D03*
X6431507Y5433922D02*
D03*
X6290086Y5575344D02*
D03*
X6148665Y5716765D02*
D03*
X5948665D02*
D03*
X5748664D02*
D03*
X5607243Y5375344D02*
D03*
Y5175343D02*
D03*
Y4975343D02*
D03*
Y4775343D02*
D03*
Y4575343D02*
D03*
Y4375343D02*
D03*
Y4175343D02*
D03*
Y3975343D02*
D03*
Y3775343D02*
D03*
X5465822Y3633921D02*
D03*
X5324400Y3492500D02*
D03*
X5124400D02*
D03*
X4924400D02*
D03*
X4711700Y3463900D02*
D03*
X4111700Y2063899D02*
D03*
Y2263899D02*
D03*
X4311700D02*
D03*
X4511700D02*
D03*
X4711700D02*
D03*
Y2463900D02*
D03*
Y2663900D02*
D03*
Y2863900D02*
D03*
Y3063900D02*
D03*
Y3263900D02*
D03*
X5346700Y2616200D02*
D03*
X6502400Y4711700D02*
D03*
X8445500Y4559300D02*
D03*
X7581900Y2501900D02*
D03*
Y2336800D02*
D03*
X7327900D02*
D03*
Y2501900D02*
D03*
X11308361Y3221594D02*
D03*
Y3021593D02*
D03*
Y3621594D02*
D03*
Y3421594D02*
D03*
Y3821594D02*
D03*
Y4021594D02*
D03*
X10604500Y2057400D02*
D03*
X10350500D02*
D03*
X10096500D02*
D03*
X9842500D02*
D03*
X9588500D02*
D03*
X9334500D02*
D03*
X8826500D02*
D03*
X9080500D02*
D03*
X8626500D02*
D03*
X8426500D02*
D03*
X8026500D02*
D03*
X8226500D02*
D03*
X7626499D02*
D03*
X7826499D02*
D03*
X6121400Y3854400D02*
D03*
Y3654400D02*
D03*
Y4054400D02*
D03*
X5566043Y3419743D02*
D03*
X5707464Y3561164D02*
D03*
X5276800Y3263900D02*
D03*
X5076800D02*
D03*
X4876800D02*
D03*
Y2863900D02*
D03*
Y3063900D02*
D03*
Y2263900D02*
D03*
Y2463900D02*
D03*
Y2663900D02*
D03*
X4187198Y6125647D02*
D03*
X3787198D02*
D03*
X3987198D02*
D03*
X3387198D02*
D03*
X3587198D02*
D03*
X6451600Y5143500D02*
D03*
X6310179Y5284921D02*
D03*
X6994156Y5016929D02*
D03*
X6794156D02*
D03*
X6594156D02*
D03*
X7394156D02*
D03*
X7194156D02*
D03*
X7594157D02*
D03*
X7794157D02*
D03*
X7994157D02*
D03*
X8194157D02*
D03*
X8953500Y5016500D02*
D03*
X8794157Y5016929D02*
D03*
X8594157D02*
D03*
X8394157D02*
D03*
X9045843Y6537057D02*
D03*
X9187264Y6395636D02*
D03*
X8904421Y6678479D02*
D03*
X10653606Y7164400D02*
D03*
X10519901Y7256543D02*
D03*
X9519900D02*
D03*
X9719901D02*
D03*
X9919901D02*
D03*
X10119901D02*
D03*
X10319901D02*
D03*
X9319900D02*
D03*
X9119900D02*
D03*
X8919900D02*
D03*
X8719900D02*
D03*
X8319900D02*
D03*
X8519900D02*
D03*
X6655397Y1866900D02*
D03*
X3955396D02*
D03*
X4055396Y1866901D02*
D03*
X3555396Y1866900D02*
D03*
X3855396D02*
D03*
X3755396D02*
D03*
X3655396D02*
D03*
X3155396D02*
D03*
X3455396Y1866901D02*
D03*
X3355396Y1866900D02*
D03*
X3255396D02*
D03*
X3055396D02*
D03*
X2955395D02*
D03*
X2855395Y1866901D02*
D03*
X2355395Y1866900D02*
D03*
X2455395D02*
D03*
X2255395D02*
D03*
X2755395Y1866901D02*
D03*
X2655395D02*
D03*
X2555395D02*
D03*
X11155400Y1866900D02*
D03*
X11255400Y1866900D02*
D03*
X11355400D02*
D03*
X11055400D02*
D03*
X10655400D02*
D03*
X10955400D02*
D03*
X10855400D02*
D03*
X10755400D02*
D03*
X10255399D02*
D03*
X10555400Y1866900D02*
D03*
X10455399Y1866900D02*
D03*
X10355399Y1866900D02*
D03*
X9855399Y1866900D02*
D03*
X10155399D02*
D03*
X10055399D02*
D03*
X9955399D02*
D03*
X9455399D02*
D03*
X9755399Y1866900D02*
D03*
X9655399Y1866900D02*
D03*
X9555399Y1866900D02*
D03*
X9055399Y1866900D02*
D03*
X9355399D02*
D03*
X9255399D02*
D03*
X9155399Y1866900D02*
D03*
X8655398Y1866900D02*
D03*
X8955399Y1866900D02*
D03*
X8855399Y1866900D02*
D03*
X8755399Y1866900D02*
D03*
X8255398Y1866900D02*
D03*
X8555398D02*
D03*
X8455398D02*
D03*
X8355398D02*
D03*
X7855398D02*
D03*
X8155398Y1866900D02*
D03*
X8055398Y1866900D02*
D03*
X7955398D02*
D03*
X7755398D02*
D03*
X7655398D02*
D03*
X7555398Y1866900D02*
D03*
X7055398Y1866900D02*
D03*
X7155398D02*
D03*
X6955398D02*
D03*
X6855398D02*
D03*
X6755397Y1866900D02*
D03*
X7455398D02*
D03*
X7355398D02*
D03*
X7255398D02*
D03*
X11442700Y2424598D02*
D03*
Y2524598D02*
D03*
Y2624598D02*
D03*
Y6724600D02*
D03*
Y6824600D02*
D03*
Y6924600D02*
D03*
X2184400Y2054897D02*
D03*
Y1954897D02*
D03*
Y2154897D02*
D03*
Y2454897D02*
D03*
Y2354897D02*
D03*
X2184400Y2254897D02*
D03*
X2342695Y7424601D02*
D03*
X2442695D02*
D03*
X2742695D02*
D03*
X2642695D02*
D03*
X2542695Y7424601D02*
D03*
X2184400Y6954900D02*
D03*
Y7054900D02*
D03*
Y7254900D02*
D03*
X2184400Y7154900D02*
D03*
X2184400Y4054898D02*
D03*
Y3354898D02*
D03*
X2184401Y3454898D02*
D03*
Y3554898D02*
D03*
Y3254898D02*
D03*
X2184400Y3754898D02*
D03*
X2184401Y3854898D02*
D03*
Y3954898D02*
D03*
Y3654898D02*
D03*
X2184400Y2554897D02*
D03*
Y2654897D02*
D03*
X2184401Y2754897D02*
D03*
X2184400Y2954898D02*
D03*
X2184401Y3054898D02*
D03*
Y3154898D02*
D03*
Y2854898D02*
D03*
X2184400Y7354900D02*
D03*
Y6654900D02*
D03*
X2184400Y6754900D02*
D03*
Y6854900D02*
D03*
Y6554900D02*
D03*
X2184400Y5854899D02*
D03*
Y5954899D02*
D03*
X2184400Y6054899D02*
D03*
Y5754899D02*
D03*
X2184400Y6254899D02*
D03*
X2184400Y6354899D02*
D03*
Y6454899D02*
D03*
Y6154900D02*
D03*
X2184400Y5054899D02*
D03*
X2184400Y5154899D02*
D03*
Y5254899D02*
D03*
Y4954899D02*
D03*
X2184400Y5454899D02*
D03*
X2184400Y5554899D02*
D03*
Y5654899D02*
D03*
Y5354899D02*
D03*
X2184400Y4254898D02*
D03*
Y4354898D02*
D03*
X2184400Y4454898D02*
D03*
Y4154898D02*
D03*
X2184400Y4654898D02*
D03*
X2184400Y4754899D02*
D03*
Y4854899D02*
D03*
Y4554899D02*
D03*
X4142696Y7424600D02*
D03*
X3442696Y7424601D02*
D03*
X3542696Y7424600D02*
D03*
X3642696D02*
D03*
X3342696D02*
D03*
X3842696Y7424601D02*
D03*
X3942696Y7424600D02*
D03*
X4042696D02*
D03*
X3742696D02*
D03*
X2842695D02*
D03*
X3042695Y7424601D02*
D03*
X3142696Y7424600D02*
D03*
X3242696D02*
D03*
X2942695D02*
D03*
X2242695Y7424601D02*
D03*
X4642696D02*
D03*
X4942696D02*
D03*
X4842696D02*
D03*
X4742696Y7424601D02*
D03*
X4242696Y7424601D02*
D03*
X4542696D02*
D03*
X4442696D02*
D03*
X4342696Y7424601D02*
D03*
X5442697Y7424601D02*
D03*
X5742697D02*
D03*
X5642697D02*
D03*
X5542697Y7424601D02*
D03*
X5042697Y7424601D02*
D03*
X5342697D02*
D03*
X5242697D02*
D03*
X5142697Y7424601D02*
D03*
X6242697Y7424601D02*
D03*
X6542697D02*
D03*
X6442697D02*
D03*
X6342697Y7424601D02*
D03*
X5842697Y7424601D02*
D03*
X6142697D02*
D03*
X6042697D02*
D03*
X5942697Y7424601D02*
D03*
X7042698Y7424601D02*
D03*
X7342698D02*
D03*
X7242698D02*
D03*
X7142698Y7424601D02*
D03*
X6642697Y7424601D02*
D03*
X6942698D02*
D03*
X6842698D02*
D03*
X6742697Y7424601D02*
D03*
X7842698Y7424601D02*
D03*
X8142698D02*
D03*
X8042698D02*
D03*
X7942698Y7424601D02*
D03*
X7442698Y7424601D02*
D03*
X7742698D02*
D03*
X7642698D02*
D03*
X7542698Y7424601D02*
D03*
X8642698Y7424601D02*
D03*
X8942699D02*
D03*
X8842699D02*
D03*
X8742699Y7424601D02*
D03*
X8242698Y7424601D02*
D03*
X8542698D02*
D03*
X8442698D02*
D03*
X8342698Y7424601D02*
D03*
X9442699Y7424601D02*
D03*
X9742699D02*
D03*
X9642699D02*
D03*
X9542699Y7424601D02*
D03*
X9042699Y7424601D02*
D03*
X9342699D02*
D03*
X9242699D02*
D03*
X9142699Y7424601D02*
D03*
X10242699Y7424601D02*
D03*
X10542700D02*
D03*
X10442699D02*
D03*
X10342699Y7424601D02*
D03*
X9842699Y7424601D02*
D03*
X10142699D02*
D03*
X10042699D02*
D03*
X9942699Y7424601D02*
D03*
X10742700D02*
D03*
X10842700Y7424601D02*
D03*
X10942700D02*
D03*
X10642700D02*
D03*
X11142700Y7424601D02*
D03*
X11242700Y7424601D02*
D03*
X11342700D02*
D03*
X11042700D02*
D03*
X11442700Y7324601D02*
D03*
X11442700Y7224600D02*
D03*
Y7124600D02*
D03*
Y7424601D02*
D03*
Y7024600D02*
D03*
Y1924598D02*
D03*
Y2024598D02*
D03*
Y2124598D02*
D03*
Y2324598D02*
D03*
Y2224598D02*
D03*
Y2724598D02*
D03*
Y2824598D02*
D03*
Y2924598D02*
D03*
Y3124598D02*
D03*
Y3224598D02*
D03*
Y3324598D02*
D03*
Y3024598D02*
D03*
Y3524598D02*
D03*
Y3624599D02*
D03*
Y3724599D02*
D03*
Y3424598D02*
D03*
Y3924599D02*
D03*
Y4024599D02*
D03*
Y4124599D02*
D03*
Y3824599D02*
D03*
Y4324599D02*
D03*
Y4424599D02*
D03*
Y4524599D02*
D03*
Y4224599D02*
D03*
Y4724599D02*
D03*
Y4824599D02*
D03*
Y4924599D02*
D03*
Y4624599D02*
D03*
Y5124599D02*
D03*
Y5224599D02*
D03*
Y5324599D02*
D03*
Y5024599D02*
D03*
Y5524600D02*
D03*
Y5624600D02*
D03*
Y5724600D02*
D03*
Y5424600D02*
D03*
Y5924600D02*
D03*
Y6024600D02*
D03*
Y6124600D02*
D03*
Y5824600D02*
D03*
Y6224600D02*
D03*
Y6624600D02*
D03*
Y6524600D02*
D03*
Y6424600D02*
D03*
Y6324600D02*
D03*
X5105007Y5133117D02*
D03*
Y5082317D02*
D03*
X6566620Y1967200D02*
D03*
X10058400Y3175000D02*
D03*
X10855470Y6275077D02*
D03*
X11016100Y4696784D02*
D03*
X10446025Y5977480D02*
D03*
X10256282Y6278073D02*
D03*
X10333177Y5889599D02*
D03*
X10550343Y6727904D02*
D03*
Y6778704D02*
D03*
X9703448Y6931199D02*
D03*
Y6981999D02*
D03*
X4670934Y6104613D02*
D03*
X4387198Y6125647D02*
D03*
X4585087Y6123912D02*
D03*
X3924589Y6428556D02*
D03*
X6074582Y4700248D02*
D03*
X4465145Y4059545D02*
D03*
X4697732Y3995446D02*
D03*
X4455040Y4245977D02*
D03*
X6073031Y4591248D02*
D03*
X6073041Y4533967D02*
D03*
X6070026Y4430728D02*
D03*
X6071534Y4367427D02*
D03*
X6302185Y3077061D02*
D03*
X5830622Y3282720D02*
D03*
X5882182Y2484754D02*
D03*
X5729259D02*
D03*
X6034582D02*
D03*
X5734524Y2818629D02*
D03*
X6039848D02*
D03*
X5886924D02*
D03*
X4090631Y5109605D02*
D03*
X5969000Y5080000D02*
D03*
X4845280Y4746632D02*
D03*
X3527400Y5109605D02*
D03*
X3425800D02*
D03*
X3578200D02*
D03*
X3476600D02*
D03*
X3527400Y5160405D02*
D03*
X3476600D02*
D03*
X3425800D02*
D03*
X3578200D02*
D03*
X3629000D02*
D03*
Y5109605D02*
D03*
X4293831D02*
D03*
X4141431D02*
D03*
X4192231D02*
D03*
X4243031D02*
D03*
X4141431Y5160405D02*
D03*
X3629000Y5211205D02*
D03*
X4192231Y5160405D02*
D03*
X4243031D02*
D03*
X4293831D02*
D03*
X3425800Y5211205D02*
D03*
X3527400D02*
D03*
X3476600D02*
D03*
X3578200D02*
D03*
X4141431D02*
D03*
X4192231D02*
D03*
X4243031D02*
D03*
X4293831D02*
D03*
X4090631Y5160405D02*
D03*
Y5211205D02*
D03*
X10452100Y2921000D02*
D03*
X10725756Y3151556D02*
D03*
Y3202356D02*
D03*
X10776556D02*
D03*
X10725756Y3100756D02*
D03*
X10776556D02*
D03*
Y3151556D02*
D03*
Y3253156D02*
D03*
X10725756D02*
D03*
X10719434Y3954292D02*
D03*
X10668634Y3903492D02*
D03*
Y3801892D02*
D03*
X10770234Y3954292D02*
D03*
X10668634D02*
D03*
X10770234Y3852692D02*
D03*
Y3801892D02*
D03*
X10719434D02*
D03*
X10770234Y3903492D02*
D03*
X10719434D02*
D03*
Y3852692D02*
D03*
X10668634D02*
D03*
X10270700Y4470400D02*
D03*
X10396500Y4695200D02*
D03*
Y4855200D02*
D03*
X10476500Y4775200D02*
D03*
X10396500D02*
D03*
X10316500D02*
D03*
D115*
X2500000Y2250000D02*
D03*
X6800000Y2500000D02*
D03*
X11100000D02*
D03*
X6800000Y6800000D02*
D03*
X11100000D02*
D03*
X2500000Y7050000D02*
D03*
%TF.MD5,ff1a0cc05ed9f86f52e3bcdeebaa9699*%
M02*
