%TF.GenerationSoftware,Altium Limited,Altium Designer,25.4.2 (15)*%
G04 Layer_Physical_Order=2*
G04 Layer_Color=36540*
%FSLAX45Y45*%
%MOMM*%
%TF.SameCoordinates,6499F7F0-7A9F-49DE-995D-C880093CFB45*%
%TF.FilePolarity,Positive*%
%TF.FileFunction,Copper,L2,Inr,Signal*%
%TF.Part,Single*%
G01*
G75*
%TA.AperFunction,Conductor*%
%ADD45C,0.50000*%
%TA.AperFunction,ComponentPad*%
%ADD53C,1.60000*%
G04:AMPARAMS|DCode=54|XSize=1.6mm|YSize=1.6mm|CornerRadius=0.4mm|HoleSize=0mm|Usage=FLASHONLY|Rotation=90.000|XOffset=0mm|YOffset=0mm|HoleType=Round|Shape=RoundedRectangle|*
%AMROUNDEDRECTD54*
21,1,1.60000,0.80000,0,0,90.0*
21,1,0.80000,1.60000,0,0,90.0*
1,1,0.80000,0.40000,0.40000*
1,1,0.80000,0.40000,-0.40000*
1,1,0.80000,-0.40000,-0.40000*
1,1,0.80000,-0.40000,0.40000*
%
%ADD54ROUNDEDRECTD54*%
%ADD55C,1.52000*%
G04:AMPARAMS|DCode=56|XSize=1.52mm|YSize=1.52mm|CornerRadius=0.38mm|HoleSize=0mm|Usage=FLASHONLY|Rotation=270.000|XOffset=0mm|YOffset=0mm|HoleType=Round|Shape=RoundedRectangle|*
%AMROUNDEDRECTD56*
21,1,1.52000,0.76000,0,0,270.0*
21,1,0.76000,1.52000,0,0,270.0*
1,1,0.76000,-0.38000,-0.38000*
1,1,0.76000,-0.38000,0.38000*
1,1,0.76000,0.38000,0.38000*
1,1,0.76000,0.38000,-0.38000*
%
%ADD56ROUNDEDRECTD56*%
%ADD57C,2.50000*%
%ADD58C,2.00000*%
%ADD59C,1.40000*%
%ADD60C,1.95000*%
G04:AMPARAMS|DCode=61|XSize=1.95mm|YSize=1.95mm|CornerRadius=0.4875mm|HoleSize=0mm|Usage=FLASHONLY|Rotation=270.000|XOffset=0mm|YOffset=0mm|HoleType=Round|Shape=RoundedRectangle|*
%AMROUNDEDRECTD61*
21,1,1.95000,0.97500,0,0,270.0*
21,1,0.97500,1.95000,0,0,270.0*
1,1,0.97500,-0.48750,-0.48750*
1,1,0.97500,-0.48750,0.48750*
1,1,0.97500,0.48750,0.48750*
1,1,0.97500,0.48750,-0.48750*
%
%ADD61ROUNDEDRECTD61*%
G04:AMPARAMS|DCode=62|XSize=1.6mm|YSize=1.6mm|CornerRadius=0.4mm|HoleSize=0mm|Usage=FLASHONLY|Rotation=0.000|XOffset=0mm|YOffset=0mm|HoleType=Round|Shape=RoundedRectangle|*
%AMROUNDEDRECTD62*
21,1,1.60000,0.80000,0,0,0.0*
21,1,0.80000,1.60000,0,0,0.0*
1,1,0.80000,0.40000,-0.40000*
1,1,0.80000,-0.40000,-0.40000*
1,1,0.80000,-0.40000,0.40000*
1,1,0.80000,0.40000,0.40000*
%
%ADD62ROUNDEDRECTD62*%
%ADD63C,1.65000*%
G04:AMPARAMS|DCode=64|XSize=1.65mm|YSize=1.65mm|CornerRadius=0.4125mm|HoleSize=0mm|Usage=FLASHONLY|Rotation=180.000|XOffset=0mm|YOffset=0mm|HoleType=Round|Shape=RoundedRectangle|*
%AMROUNDEDRECTD64*
21,1,1.65000,0.82500,0,0,180.0*
21,1,0.82500,1.65000,0,0,180.0*
1,1,0.82500,-0.41250,0.41250*
1,1,0.82500,0.41250,0.41250*
1,1,0.82500,0.41250,-0.41250*
1,1,0.82500,-0.41250,-0.41250*
%
%ADD64ROUNDEDRECTD64*%
%ADD65C,2.25000*%
%TA.AperFunction,ViaPad*%
%ADD66C,0.55000*%
%ADD67C,7.00000*%
G36*
X10723149Y7196551D02*
Y6834065D01*
X10722460Y6829713D01*
Y6770287D01*
X10731757Y6711593D01*
X10750120Y6655075D01*
X10777099Y6602126D01*
X10812029Y6554049D01*
X10854049Y6512029D01*
X10902126Y6477099D01*
X10955075Y6450120D01*
X11011593Y6431757D01*
X11070287Y6422460D01*
X11129713D01*
X11130839Y6422638D01*
X11379200D01*
X11379199Y2875521D01*
X11142469Y2875520D01*
X11129713Y2877540D01*
X11070287D01*
X11011593Y2868244D01*
X10955075Y2849880D01*
X10902126Y2822901D01*
X10854049Y2787972D01*
X10812029Y2745951D01*
X10777099Y2697874D01*
X10750120Y2644925D01*
X10731757Y2588408D01*
X10722460Y2529713D01*
Y2470287D01*
X10723149Y2465935D01*
Y1993900D01*
X6604266Y1993900D01*
X6592393Y2005772D01*
X6575670Y2012700D01*
X6557569D01*
X6540846Y2005772D01*
X6528973Y1993900D01*
X6091232D01*
X6052304D01*
Y2122046D01*
X6050907Y2129069D01*
X6046928Y2135023D01*
X6040974Y2139001D01*
X6033951Y2140398D01*
X4800600D01*
X4800599Y3403600D01*
X5435600Y3403600D01*
X5689600Y3657600D01*
Y5181600D01*
X5662283D01*
Y5186292D01*
X5653903Y5206521D01*
X5638421Y5222004D01*
X5618191Y5230383D01*
X5596295D01*
X5576066Y5222004D01*
X5560583Y5206521D01*
X5552203Y5186292D01*
Y5181600D01*
X5245100D01*
X5124450Y5302250D01*
X4381499Y6045200D01*
X3340100D01*
Y6395803D01*
X3484797Y6540500D01*
X5143499D01*
X5842000Y5842000D01*
X5917999Y5766001D01*
X5917487Y5763425D01*
X5902004Y5747943D01*
X5893625Y5727713D01*
Y5705817D01*
X5902004Y5685588D01*
X5917487Y5670105D01*
X5937716Y5661725D01*
X5959613D01*
X5979842Y5670105D01*
X5995325Y5685587D01*
X5997900Y5686100D01*
X6604000Y5080000D01*
X9029700D01*
X9296400Y5346700D01*
Y5355227D01*
X9307600Y5361214D01*
X9309170Y5360165D01*
X9331800Y5355664D01*
X9411800D01*
X9434430Y5360165D01*
X9453616Y5372984D01*
X9466435Y5392170D01*
X9470936Y5414800D01*
Y5494800D01*
X9466435Y5517430D01*
X9453616Y5536616D01*
X9434430Y5549435D01*
X9411800Y5553936D01*
X9331800D01*
X9309170Y5549435D01*
X9307600Y5548386D01*
X9296400Y5554373D01*
Y5629014D01*
X9308133Y5633874D01*
X9311627Y5630381D01*
X9333973Y5617479D01*
X9358898Y5610800D01*
X9384702D01*
X9409626Y5617479D01*
X9431973Y5630381D01*
X9450219Y5648626D01*
X9463121Y5670973D01*
X9469800Y5695898D01*
Y5721702D01*
X9463121Y5746626D01*
X9450219Y5768973D01*
X9431973Y5787219D01*
X9409626Y5800121D01*
X9384702Y5806800D01*
X9358898D01*
X9333973Y5800121D01*
X9311627Y5787219D01*
X9308133Y5783726D01*
X9296400Y5788586D01*
Y5933227D01*
X9307600Y5939214D01*
X9309170Y5938165D01*
X9331800Y5933664D01*
X9411800D01*
X9434430Y5938165D01*
X9453616Y5950984D01*
X9466435Y5970170D01*
X9470936Y5992800D01*
Y6072800D01*
X9466435Y6095430D01*
X9453616Y6114616D01*
X9434430Y6127435D01*
X9411800Y6131936D01*
X9331800D01*
X9309170Y6127435D01*
X9307600Y6126386D01*
X9296400Y6132373D01*
Y6205646D01*
X9308671Y6211336D01*
X9311627Y6208380D01*
X9333973Y6195478D01*
X9358898Y6188800D01*
X9384702D01*
X9409626Y6195478D01*
X9431973Y6208380D01*
X9450219Y6226626D01*
X9463121Y6248973D01*
X9469800Y6273898D01*
Y6299701D01*
X9463121Y6324626D01*
X9450219Y6346973D01*
X9431973Y6365219D01*
X9409626Y6378121D01*
X9384702Y6384799D01*
X9358898D01*
X9333973Y6378121D01*
X9311627Y6365219D01*
X9293381Y6346973D01*
X9280479Y6324626D01*
X9273800Y6299701D01*
Y6273898D01*
X9280479Y6248973D01*
X9287024Y6237636D01*
X9276861Y6229838D01*
X8775700Y6731000D01*
X8343900D01*
X8229600Y6845300D01*
Y7315200D01*
X10604500D01*
X10723149Y7196551D01*
D02*
G37*
G36*
X11474104Y1825896D02*
X6062031D01*
Y1965820D01*
X6511580D01*
Y1956252D01*
X6519959Y1936022D01*
X6535442Y1920539D01*
X6555671Y1912160D01*
X6577568D01*
X6597797Y1920539D01*
X6613280Y1936022D01*
X6621659Y1956252D01*
Y1965820D01*
X10723149Y1965821D01*
X10733895Y1967958D01*
X10743005Y1974045D01*
X10749092Y1983155D01*
X10751229Y1993900D01*
Y2465935D01*
X10750796Y2468111D01*
X10750883Y2470328D01*
X10750540Y2472497D01*
Y2527503D01*
X10759145Y2581833D01*
X10776142Y2634146D01*
X10801115Y2683157D01*
X10833446Y2727658D01*
X10872342Y2766554D01*
X10916843Y2798885D01*
X10965855Y2823858D01*
X11018168Y2840856D01*
X11072497Y2849461D01*
X11127503D01*
X11138076Y2847786D01*
X11140293Y2847873D01*
X11142469Y2847440D01*
X11379199Y2847441D01*
X11389945Y2849579D01*
X11399055Y2855665D01*
X11405142Y2864775D01*
X11407279Y2875521D01*
X11407279Y6422638D01*
X11405142Y6433384D01*
X11399055Y6442494D01*
X11389945Y6448580D01*
X11379200Y6450718D01*
X11130839D01*
X11129828Y6450517D01*
X11129713Y6450540D01*
X11072497D01*
X11018167Y6459145D01*
X10965854Y6476142D01*
X10916843Y6501115D01*
X10872342Y6533446D01*
X10833446Y6572342D01*
X10801115Y6616843D01*
X10776142Y6665855D01*
X10759145Y6718168D01*
X10750540Y6772497D01*
Y6827503D01*
X10750883Y6829673D01*
X10750796Y6831890D01*
X10751229Y6834065D01*
Y7196551D01*
X10749092Y7207296D01*
X10743005Y7216406D01*
X10624355Y7335055D01*
X10615245Y7341142D01*
X10604500Y7343279D01*
X8229600D01*
X8218855Y7341142D01*
X8209745Y7335055D01*
X8203658Y7325945D01*
X8201521Y7315200D01*
Y6845300D01*
X8203658Y6834554D01*
X8209745Y6825445D01*
X8324045Y6711145D01*
X8333154Y6705058D01*
X8343900Y6702921D01*
X8764069D01*
X9257006Y6209983D01*
X9260060Y6207943D01*
X9262821Y6205521D01*
X9264575Y6204926D01*
X9266116Y6203896D01*
X9268321Y6203458D01*
Y6132373D01*
X9269125Y6128327D01*
X9269530Y6124223D01*
X9270186Y6122994D01*
X9270458Y6121628D01*
X9272750Y6118197D01*
X9274694Y6114560D01*
X9275771Y6113677D01*
X9276545Y6112518D01*
X9276651Y6111874D01*
X9272804Y6106861D01*
X9265999Y6090431D01*
X9263677Y6072800D01*
Y5992800D01*
X9265999Y5975169D01*
X9272804Y5958739D01*
X9276651Y5953725D01*
X9276545Y5953082D01*
X9275771Y5951924D01*
X9274694Y5951040D01*
X9272749Y5947401D01*
X9270458Y5943972D01*
X9270186Y5942606D01*
X9269529Y5941377D01*
X9269125Y5937272D01*
X9268321Y5933227D01*
Y5788586D01*
X9270458Y5777841D01*
X9276545Y5768731D01*
X9280644Y5765992D01*
X9271589Y5750309D01*
X9264260Y5722958D01*
Y5694642D01*
X9271589Y5667291D01*
X9280644Y5651608D01*
X9276545Y5648869D01*
X9270458Y5639759D01*
X9268321Y5629014D01*
Y5554373D01*
X9269125Y5550326D01*
X9269530Y5546223D01*
X9270186Y5544994D01*
X9270458Y5543628D01*
X9272750Y5540197D01*
X9274694Y5536560D01*
X9275771Y5535677D01*
X9276545Y5534518D01*
X9276651Y5533874D01*
X9272804Y5528861D01*
X9265999Y5512431D01*
X9263677Y5494800D01*
Y5414800D01*
X9265999Y5397169D01*
X9272804Y5380739D01*
X9276651Y5375725D01*
X9276545Y5375081D01*
X9275771Y5373923D01*
X9274694Y5373040D01*
X9272749Y5369401D01*
X9270458Y5365972D01*
X9270186Y5364606D01*
X9269529Y5363377D01*
X9269125Y5359272D01*
X9269091Y5359102D01*
X9018069Y5108079D01*
X6615631D01*
X6017756Y5705955D01*
X6015457Y5707491D01*
X6013501Y5709447D01*
X6010945Y5710505D01*
X6008646Y5712042D01*
X6005934Y5712581D01*
X6003379Y5713640D01*
X6000613D01*
X5997900Y5714179D01*
X5995188Y5713640D01*
X5992423D01*
X5989847Y5713127D01*
X5987292Y5712069D01*
X5984579Y5711529D01*
X5982279Y5709993D01*
X5979725Y5708935D01*
X5977770Y5706979D01*
X5975469Y5705442D01*
X5963936Y5693909D01*
X5954027Y5689805D01*
X5943302D01*
X5933393Y5693909D01*
X5925809Y5701494D01*
X5921704Y5711402D01*
Y5722127D01*
X5925809Y5732037D01*
X5937342Y5743570D01*
X5938879Y5745870D01*
X5940834Y5747825D01*
X5941892Y5750380D01*
X5943429Y5752680D01*
X5943968Y5755392D01*
X5945027Y5757947D01*
X5945539Y5760523D01*
Y5763288D01*
X5946079Y5766001D01*
X5945539Y5768714D01*
Y5771479D01*
X5944480Y5774034D01*
X5943941Y5776747D01*
X5942404Y5779046D01*
X5941346Y5781601D01*
X5939391Y5783557D01*
X5937854Y5785856D01*
X5861855Y5861855D01*
X5163355Y6560355D01*
X5154245Y6566442D01*
X5143499Y6568579D01*
X3484797D01*
X3474052Y6566442D01*
X3464942Y6560355D01*
X3320245Y6415658D01*
X3314158Y6406548D01*
X3312021Y6395803D01*
Y6045200D01*
X3314158Y6034455D01*
X3320245Y6025345D01*
X3329355Y6019258D01*
X3340100Y6017121D01*
X4369868D01*
X5104595Y5282395D01*
X5225245Y5161745D01*
X5234355Y5155658D01*
X5245100Y5153521D01*
X5552203D01*
X5562949Y5155658D01*
X5572058Y5161745D01*
X5578145Y5170855D01*
X5579941Y5179880D01*
X5584387Y5190615D01*
X5591972Y5198199D01*
X5601880Y5202304D01*
X5612605D01*
X5622515Y5198199D01*
X5630099Y5190615D01*
X5634545Y5179880D01*
X5636341Y5170855D01*
X5642428Y5161745D01*
X5651537Y5155658D01*
X5661521Y5153672D01*
Y3669231D01*
X5423969Y3431679D01*
X4800599Y3431679D01*
X4789854Y3429542D01*
X4780744Y3423455D01*
X4774657Y3414345D01*
X4772520Y3403600D01*
X4772521Y2150125D01*
X4183951D01*
X4173206Y2147988D01*
X4164096Y2141901D01*
X4158009Y2132791D01*
X4155872Y2122046D01*
Y1825896D01*
X2125896D01*
Y7474104D01*
X11474104D01*
Y1825896D01*
D02*
G37*
%LPC*%
G36*
X9120500Y7211136D02*
X9040500D01*
X9017870Y7206635D01*
X8998684Y7193816D01*
X8985865Y7174630D01*
X8981364Y7152000D01*
Y7072000D01*
X8985865Y7049370D01*
X8998684Y7030184D01*
X9017870Y7017365D01*
X9040500Y7012864D01*
X9120500D01*
X9143130Y7017365D01*
X9162316Y7030184D01*
X9175135Y7049370D01*
X9179636Y7072000D01*
Y7152000D01*
X9175135Y7174630D01*
X9162316Y7193816D01*
X9143130Y7206635D01*
X9120500Y7211136D01*
D02*
G37*
G36*
X9438000Y7211136D02*
X9358000D01*
X9335370Y7206635D01*
X9316184Y7193815D01*
X9303365Y7174630D01*
X9298864Y7152000D01*
Y7072000D01*
X9303365Y7049369D01*
X9316184Y7030184D01*
X9335370Y7017365D01*
X9358000Y7012864D01*
X9438000D01*
X9460630Y7017365D01*
X9479816Y7030184D01*
X9492635Y7049369D01*
X9497136Y7072000D01*
Y7152000D01*
X9492635Y7174630D01*
X9479816Y7193815D01*
X9460630Y7206635D01*
X9438000Y7211136D01*
D02*
G37*
G36*
X8454839Y7022678D02*
X8421821D01*
X8389928Y7014133D01*
X8361333Y6997623D01*
X8358639Y6994930D01*
X8438330Y6915239D01*
X8518021Y6994930D01*
X8515327Y6997623D01*
X8486733Y7014133D01*
X8454839Y7022678D01*
D02*
G37*
G36*
X9712499Y7027499D02*
X9694398D01*
X9677675Y7020572D01*
X9664876Y7007773D01*
X9657948Y6991050D01*
Y6972949D01*
X9659606Y6968948D01*
Y6944251D01*
X9657948Y6940250D01*
Y6922149D01*
X9664876Y6905426D01*
X9677675Y6892627D01*
X9694398Y6885699D01*
X9712499D01*
X9729222Y6892627D01*
X9742021Y6905426D01*
X9748948Y6922149D01*
Y6940250D01*
X9747291Y6944251D01*
Y6968948D01*
X9748948Y6972949D01*
Y6991050D01*
X9742021Y7007773D01*
X9729222Y7020572D01*
X9712499Y7027499D01*
D02*
G37*
G36*
X8535981Y6976969D02*
X8456291Y6897279D01*
X8535982Y6817588D01*
X8538675Y6820281D01*
X8555184Y6848876D01*
X8563730Y6880769D01*
Y6913788D01*
X8555184Y6945681D01*
X8538675Y6974276D01*
X8535981Y6976969D01*
D02*
G37*
G36*
X8340679Y6976970D02*
X8337985Y6974276D01*
X8321476Y6945681D01*
X8312930Y6913788D01*
Y6880769D01*
X8321476Y6848876D01*
X8337985Y6820281D01*
X8340679Y6817587D01*
X8420370Y6897279D01*
X8340679Y6976970D01*
D02*
G37*
G36*
X8438330Y6879318D02*
X8358639Y6799627D01*
X8361333Y6796933D01*
X8389928Y6780424D01*
X8421821Y6771878D01*
X8454839D01*
X8486733Y6780424D01*
X8515327Y6796933D01*
X8518021Y6799627D01*
X8438330Y6879318D01*
D02*
G37*
G36*
X9410902Y6956000D02*
X9385098D01*
X9360174Y6949321D01*
X9337827Y6936419D01*
X9319581Y6918174D01*
X9306679Y6895827D01*
X9300000Y6870902D01*
Y6845098D01*
X9306679Y6820174D01*
X9319581Y6797827D01*
X9337827Y6779581D01*
X9360174Y6766679D01*
X9385098Y6760000D01*
X9410902D01*
X9435826Y6766679D01*
X9458173Y6779581D01*
X9476419Y6797827D01*
X9489321Y6820174D01*
X9496000Y6845098D01*
Y6870902D01*
X9489321Y6895827D01*
X9476419Y6918174D01*
X9458173Y6936419D01*
X9435826Y6949321D01*
X9410902Y6956000D01*
D02*
G37*
G36*
X9093402Y6956000D02*
X9067598D01*
X9042674Y6949321D01*
X9020327Y6936419D01*
X9002081Y6918173D01*
X8989179Y6895826D01*
X8982500Y6870902D01*
Y6845098D01*
X8989179Y6820174D01*
X9002081Y6797827D01*
X9020327Y6779581D01*
X9042674Y6766679D01*
X9067598Y6760000D01*
X9093402D01*
X9118326Y6766679D01*
X9140673Y6779581D01*
X9158919Y6797827D01*
X9171821Y6820174D01*
X9178500Y6845098D01*
Y6870902D01*
X9171821Y6895826D01*
X9158919Y6918173D01*
X9140673Y6936419D01*
X9118326Y6949321D01*
X9093402Y6956000D01*
D02*
G37*
G36*
X10559394Y6824204D02*
X10541293D01*
X10524570Y6817276D01*
X10511770Y6804477D01*
X10504843Y6787754D01*
Y6769653D01*
X10506501Y6765652D01*
Y6740955D01*
X10504843Y6736954D01*
Y6718853D01*
X10511770Y6702130D01*
X10524570Y6689331D01*
X10541293Y6682404D01*
X10559394D01*
X10576117Y6689331D01*
X10588916Y6702130D01*
X10595843Y6718853D01*
Y6736954D01*
X10594186Y6740955D01*
Y6765652D01*
X10595843Y6769653D01*
Y6787754D01*
X10588916Y6804477D01*
X10576117Y6817276D01*
X10559394Y6824204D01*
D02*
G37*
G36*
X3933640Y6474056D02*
X3915539D01*
X3898816Y6467129D01*
X3886017Y6454329D01*
X3879090Y6437607D01*
Y6419506D01*
X3886017Y6402783D01*
X3898816Y6389983D01*
X3915539Y6383056D01*
X3933640D01*
X3950363Y6389983D01*
X3963162Y6402783D01*
X3970089Y6419506D01*
Y6437607D01*
X3963162Y6454329D01*
X3950363Y6467129D01*
X3933640Y6474056D01*
D02*
G37*
G36*
X11253500Y6284026D02*
X11177500D01*
X11155650Y6279680D01*
X11137126Y6267302D01*
X11124749Y6248779D01*
X11120403Y6226929D01*
Y6150929D01*
X11124749Y6129079D01*
X11137126Y6110555D01*
X11155650Y6098178D01*
X11177500Y6093832D01*
X11253500D01*
X11275350Y6098178D01*
X11293873Y6110555D01*
X11306250Y6129079D01*
X11310597Y6150929D01*
Y6226929D01*
X11306250Y6248779D01*
X11293873Y6267302D01*
X11275350Y6279680D01*
X11253500Y6284026D01*
D02*
G37*
G36*
X9729500D02*
X9653500D01*
X9631650Y6279680D01*
X9613126Y6267302D01*
X9600749Y6248779D01*
X9596403Y6226929D01*
Y6150929D01*
X9600749Y6129079D01*
X9613126Y6110555D01*
X9631650Y6098178D01*
X9653500Y6093832D01*
X9729500D01*
X9751350Y6098178D01*
X9769873Y6110555D01*
X9782250Y6129079D01*
X9786597Y6150929D01*
Y6226929D01*
X9782250Y6248779D01*
X9769873Y6267302D01*
X9751350Y6279680D01*
X9729500Y6284026D01*
D02*
G37*
G36*
X4679985Y6150112D02*
X4661883D01*
X4645161Y6143185D01*
X4632361Y6130386D01*
X4625434Y6113663D01*
Y6095562D01*
X4632361Y6078839D01*
X4645161Y6066040D01*
X4661883Y6059113D01*
X4679985D01*
X4696707Y6066040D01*
X4709507Y6078839D01*
X4716434Y6095562D01*
Y6113663D01*
X4709507Y6130386D01*
X4696707Y6143185D01*
X4679985Y6150112D01*
D02*
G37*
G36*
X9704849Y6036329D02*
X9678150D01*
X9652361Y6029419D01*
X9629239Y6016069D01*
X9628780Y6015610D01*
X9691500Y5952890D01*
X9754220Y6015610D01*
X9753761Y6016069D01*
X9730639Y6029419D01*
X9704849Y6036329D01*
D02*
G37*
G36*
X10455076Y6022980D02*
X10436975D01*
X10420252Y6016053D01*
X10407452Y6003253D01*
X10400525Y5986531D01*
Y5968430D01*
X10407452Y5951707D01*
X10420252Y5938907D01*
X10436975Y5931980D01*
X10455076D01*
X10471798Y5938907D01*
X10484598Y5951707D01*
X10491525Y5968430D01*
Y5986531D01*
X10484598Y6003253D01*
X10471798Y6016053D01*
X10455076Y6022980D01*
D02*
G37*
G36*
X9772181Y5997649D02*
X9709460Y5934929D01*
X9772181Y5872209D01*
X9772640Y5872668D01*
X9785990Y5895790D01*
X9792900Y5921579D01*
Y5948278D01*
X9785990Y5974068D01*
X9772640Y5997190D01*
X9772181Y5997649D01*
D02*
G37*
G36*
X9610819Y5997649D02*
X9610360Y5997190D01*
X9597010Y5974068D01*
X9590100Y5948278D01*
Y5921579D01*
X9597010Y5895790D01*
X9610360Y5872668D01*
X9610819Y5872208D01*
X9673540Y5934929D01*
X9610819Y5997649D01*
D02*
G37*
G36*
X10342228Y5935099D02*
X10324127D01*
X10307404Y5928172D01*
X10294605Y5915372D01*
X10287678Y5898650D01*
Y5880549D01*
X10294605Y5863826D01*
X10307404Y5851026D01*
X10324127Y5844099D01*
X10342228D01*
X10358951Y5851026D01*
X10371750Y5863826D01*
X10378677Y5880549D01*
Y5898650D01*
X10371750Y5915372D01*
X10358951Y5928172D01*
X10342228Y5935099D01*
D02*
G37*
G36*
X11227875Y6028929D02*
X11203124D01*
X11179217Y6022523D01*
X11157783Y6010147D01*
X11140281Y5992646D01*
X11127906Y5971212D01*
X11121500Y5947304D01*
Y5922554D01*
X11127906Y5898646D01*
X11140281Y5877212D01*
X11157783Y5859710D01*
X11179217Y5847335D01*
X11203124Y5840929D01*
X11227875D01*
X11251782Y5847335D01*
X11273217Y5859710D01*
X11290718Y5877212D01*
X11303093Y5898646D01*
X11309500Y5922554D01*
Y5947304D01*
X11303093Y5971212D01*
X11290718Y5992646D01*
X11273217Y6010147D01*
X11251782Y6022523D01*
X11227875Y6028929D01*
D02*
G37*
G36*
X9691500Y5916969D02*
X9628780Y5854248D01*
X9629239Y5853789D01*
X9652361Y5840439D01*
X9678150Y5833529D01*
X9704849D01*
X9730639Y5840439D01*
X9753761Y5853789D01*
X9754221Y5854249D01*
X9691500Y5916969D01*
D02*
G37*
G36*
X10778651Y5887500D02*
X10760549D01*
X10743827Y5880573D01*
X10731027Y5867773D01*
X10724100Y5851051D01*
Y5832949D01*
X10731027Y5816227D01*
X10743827Y5803427D01*
X10760549Y5796500D01*
X10778651D01*
X10795373Y5803427D01*
X10808173Y5816227D01*
X10815100Y5832949D01*
Y5851051D01*
X10808173Y5867773D01*
X10795373Y5880573D01*
X10778651Y5887500D01*
D02*
G37*
G36*
X5759613Y5771805D02*
X5737716D01*
X5717487Y5763425D01*
X5702004Y5747943D01*
X5693625Y5727713D01*
Y5705817D01*
X5702004Y5685588D01*
X5717487Y5670105D01*
X5737716Y5661725D01*
X5759613D01*
X5779842Y5670105D01*
X5795325Y5685588D01*
X5803704Y5705817D01*
Y5727713D01*
X5795325Y5747943D01*
X5779842Y5763425D01*
X5759613Y5771805D01*
D02*
G37*
G36*
X5129500Y5831956D02*
X5108614D01*
X5089318Y5823964D01*
X5074549Y5809195D01*
X5066557Y5789900D01*
Y5769014D01*
X5074549Y5749718D01*
X5089318Y5734949D01*
X5089856Y5734726D01*
Y5722026D01*
X5088361Y5721407D01*
X5073593Y5706639D01*
X5065600Y5687343D01*
Y5666457D01*
X5073593Y5647161D01*
X5088361Y5632393D01*
X5107657Y5624400D01*
X5128543D01*
X5147839Y5632393D01*
X5162607Y5647161D01*
X5170600Y5666457D01*
Y5687343D01*
X5162607Y5706639D01*
X5147839Y5721407D01*
X5147300Y5721630D01*
Y5734330D01*
X5148795Y5734949D01*
X5163564Y5749718D01*
X5171556Y5769014D01*
Y5789900D01*
X5163564Y5809195D01*
X5148795Y5823964D01*
X5129500Y5831956D01*
D02*
G37*
G36*
X11227875Y5774929D02*
X11203124D01*
X11179217Y5768523D01*
X11157783Y5756147D01*
X11140281Y5738646D01*
X11127906Y5717212D01*
X11121500Y5693304D01*
Y5668554D01*
X11127906Y5644646D01*
X11140281Y5623212D01*
X11157783Y5605710D01*
X11179217Y5593335D01*
X11203124Y5586929D01*
X11227875D01*
X11251782Y5593335D01*
X11273217Y5605710D01*
X11290718Y5623212D01*
X11303093Y5644646D01*
X11309500Y5668554D01*
Y5693304D01*
X11303093Y5717212D01*
X11290718Y5738646D01*
X11273217Y5756147D01*
X11251782Y5768523D01*
X11227875Y5774929D01*
D02*
G37*
G36*
X9703875D02*
X9679124D01*
X9655217Y5768523D01*
X9633783Y5756147D01*
X9616281Y5738646D01*
X9603906Y5717212D01*
X9597500Y5693304D01*
Y5668554D01*
X9603906Y5644646D01*
X9616281Y5623212D01*
X9633783Y5605710D01*
X9655217Y5593335D01*
X9679124Y5586929D01*
X9703875D01*
X9727782Y5593335D01*
X9749217Y5605710D01*
X9766718Y5623212D01*
X9779093Y5644646D01*
X9785500Y5668554D01*
Y5693304D01*
X9779093Y5717212D01*
X9766718Y5738646D01*
X9749217Y5756147D01*
X9727782Y5768523D01*
X9703875Y5774929D01*
D02*
G37*
G36*
X10404539Y5631045D02*
X10386438D01*
X10369715Y5624118D01*
X10356916Y5611318D01*
X10349989Y5594595D01*
Y5576494D01*
X10356916Y5559771D01*
X10369715Y5546972D01*
X10386438Y5540045D01*
X10404539D01*
X10421262Y5546972D01*
X10434061Y5559771D01*
X10440988Y5576494D01*
Y5594595D01*
X10434061Y5611318D01*
X10421262Y5624118D01*
X10404539Y5631045D01*
D02*
G37*
G36*
X5618191Y5630383D02*
X5596295D01*
X5576066Y5622004D01*
X5560583Y5606521D01*
X5552203Y5586292D01*
Y5564396D01*
X5560583Y5544166D01*
X5576066Y5528683D01*
X5596295Y5520304D01*
X5618191D01*
X5638421Y5528683D01*
X5653903Y5544166D01*
X5662283Y5564396D01*
Y5586292D01*
X5653903Y5606521D01*
X5638421Y5622004D01*
X5618191Y5630383D01*
D02*
G37*
G36*
X10684375Y5517945D02*
X10666274D01*
X10649551Y5511018D01*
X10636752Y5498219D01*
X10629825Y5481496D01*
Y5463395D01*
X10636752Y5446672D01*
X10649551Y5433873D01*
X10666274Y5426946D01*
X10684375D01*
X10701098Y5433873D01*
X10713897Y5446672D01*
X10720824Y5463395D01*
Y5481496D01*
X10713897Y5498219D01*
X10701098Y5511018D01*
X10684375Y5517945D01*
D02*
G37*
G36*
X10587141Y5481100D02*
X10569040D01*
X10552317Y5474173D01*
X10539518Y5461373D01*
X10532591Y5444651D01*
Y5426549D01*
X10539518Y5409827D01*
X10552317Y5397027D01*
X10569040Y5390100D01*
X10587141D01*
X10603864Y5397027D01*
X10616663Y5409827D01*
X10623590Y5426549D01*
Y5444651D01*
X10616663Y5461373D01*
X10603864Y5474173D01*
X10587141Y5481100D01*
D02*
G37*
G36*
X10435751D02*
X10417649D01*
X10400927Y5474173D01*
X10388127Y5461373D01*
X10381200Y5444651D01*
Y5426549D01*
X10388127Y5409827D01*
X10400927Y5397027D01*
X10417649Y5390100D01*
X10435751D01*
X10452473Y5397027D01*
X10465273Y5409827D01*
X10472200Y5426549D01*
Y5444651D01*
X10465273Y5461373D01*
X10452473Y5474173D01*
X10435751Y5481100D01*
D02*
G37*
G36*
X6061709Y5467400D02*
X6028691D01*
X5996798Y5458854D01*
X5968203Y5442345D01*
X5965509Y5439651D01*
X6045200Y5359960D01*
X6124891Y5439651D01*
X6122197Y5442345D01*
X6093602Y5458854D01*
X6061709Y5467400D01*
D02*
G37*
G36*
X11227875Y5520929D02*
X11203124D01*
X11179217Y5514523D01*
X11157783Y5502147D01*
X11140281Y5484646D01*
X11127906Y5463212D01*
X11121500Y5439304D01*
Y5414554D01*
X11127906Y5390646D01*
X11140281Y5369212D01*
X11157783Y5351710D01*
X11179217Y5339335D01*
X11203124Y5332929D01*
X11227875D01*
X11251782Y5339335D01*
X11273217Y5351710D01*
X11290718Y5369212D01*
X11303093Y5390646D01*
X11309500Y5414554D01*
Y5439304D01*
X11303093Y5463212D01*
X11290718Y5484646D01*
X11273217Y5502147D01*
X11251782Y5514523D01*
X11227875Y5520929D01*
D02*
G37*
G36*
X9703875D02*
X9679124D01*
X9655217Y5514523D01*
X9633783Y5502147D01*
X9616281Y5484646D01*
X9603906Y5463212D01*
X9597500Y5439304D01*
Y5414554D01*
X9603906Y5390646D01*
X9616281Y5369212D01*
X9633783Y5351710D01*
X9655217Y5339335D01*
X9679124Y5332929D01*
X9703875D01*
X9727782Y5339335D01*
X9749217Y5351710D01*
X9766718Y5369212D01*
X9779093Y5390646D01*
X9785500Y5414554D01*
Y5439304D01*
X9779093Y5463212D01*
X9766718Y5484646D01*
X9749217Y5502147D01*
X9727782Y5514523D01*
X9703875Y5520929D01*
D02*
G37*
G36*
X5618191Y5430383D02*
X5596295D01*
X5576066Y5422004D01*
X5560583Y5406521D01*
X5552203Y5386292D01*
Y5364395D01*
X5560583Y5344166D01*
X5576066Y5328683D01*
X5596295Y5320304D01*
X5618191D01*
X5638421Y5328683D01*
X5653903Y5344166D01*
X5662283Y5364395D01*
Y5386292D01*
X5653903Y5406521D01*
X5638421Y5422004D01*
X5618191Y5430383D01*
D02*
G37*
G36*
X6142851Y5421691D02*
X6063160Y5342000D01*
X6142851Y5262309D01*
X6145545Y5265003D01*
X6162054Y5293597D01*
X6170600Y5325491D01*
Y5358509D01*
X6162054Y5390402D01*
X6145545Y5418997D01*
X6142851Y5421691D01*
D02*
G37*
G36*
X5947549D02*
X5944855Y5418997D01*
X5928346Y5390402D01*
X5919800Y5358509D01*
Y5325491D01*
X5928346Y5293597D01*
X5944855Y5265003D01*
X5947549Y5262309D01*
X6027240Y5342000D01*
X5947549Y5421691D01*
D02*
G37*
G36*
X10403213Y5318100D02*
X10385112D01*
X10368389Y5311173D01*
X10355590Y5298373D01*
X10348663Y5281651D01*
Y5263550D01*
X10355590Y5246827D01*
X10368389Y5234027D01*
X10385112Y5227100D01*
X10403213D01*
X10419936Y5234027D01*
X10432735Y5246827D01*
X10439662Y5263550D01*
Y5281651D01*
X10432735Y5298373D01*
X10419936Y5311173D01*
X10403213Y5318100D01*
D02*
G37*
G36*
X6045200Y5324040D02*
X5965509Y5244349D01*
X5968203Y5241655D01*
X5996798Y5225146D01*
X6028691Y5216600D01*
X6061709D01*
X6093602Y5225146D01*
X6122197Y5241655D01*
X6124891Y5244349D01*
X6045200Y5324040D01*
D02*
G37*
G36*
X5833508Y5317400D02*
X5815406D01*
X5798684Y5310472D01*
X5785884Y5297673D01*
X5778957Y5280950D01*
Y5262849D01*
X5785884Y5246126D01*
X5798684Y5233327D01*
X5808563Y5229235D01*
X5827170Y5210627D01*
X5828827Y5206627D01*
X5841627Y5193827D01*
X5858349Y5186900D01*
X5876451D01*
X5893173Y5193827D01*
X5905973Y5206627D01*
X5912900Y5223349D01*
Y5241451D01*
X5905973Y5258173D01*
X5893173Y5270973D01*
X5889173Y5272630D01*
X5861402Y5300401D01*
X5858088Y5302615D01*
X5850230Y5310472D01*
X5833508Y5317400D01*
D02*
G37*
G36*
X10502750Y5125309D02*
X10484649D01*
X10467926Y5118382D01*
X10459095Y5109551D01*
X10452473Y5116173D01*
X10435751Y5123100D01*
X10417649D01*
X10400927Y5116173D01*
X10388127Y5103374D01*
X10381200Y5086651D01*
Y5068550D01*
X10388127Y5051827D01*
X10400927Y5039028D01*
X10417649Y5032100D01*
X10435751D01*
X10452473Y5039028D01*
X10461304Y5047858D01*
X10467926Y5041236D01*
X10484649Y5034309D01*
X10502750D01*
X10519473Y5041236D01*
X10532272Y5054036D01*
X10539199Y5070758D01*
Y5088860D01*
X10532272Y5105582D01*
X10519473Y5118382D01*
X10502750Y5125309D01*
D02*
G37*
G36*
X11227875Y5266929D02*
X11203124D01*
X11179217Y5260523D01*
X11157783Y5248147D01*
X11140281Y5230646D01*
X11127906Y5209212D01*
X11121500Y5185304D01*
Y5160554D01*
X11127906Y5136646D01*
X11140281Y5115212D01*
X11157783Y5097710D01*
X11179217Y5085335D01*
X11203124Y5078929D01*
X11227875D01*
X11251782Y5085335D01*
X11273217Y5097710D01*
X11290718Y5115212D01*
X11303093Y5136646D01*
X11309500Y5160554D01*
Y5185304D01*
X11303093Y5209212D01*
X11290718Y5230646D01*
X11273217Y5248147D01*
X11251782Y5260523D01*
X11227875Y5266929D01*
D02*
G37*
G36*
X9703875D02*
X9679124D01*
X9655217Y5260523D01*
X9633783Y5248147D01*
X9616281Y5230646D01*
X9603906Y5209212D01*
X9597500Y5185304D01*
Y5160554D01*
X9603906Y5136646D01*
X9616281Y5115212D01*
X9633783Y5097710D01*
X9655217Y5085335D01*
X9679124Y5078929D01*
X9703875D01*
X9727782Y5085335D01*
X9749217Y5097710D01*
X9766718Y5115212D01*
X9779093Y5136646D01*
X9785500Y5160554D01*
Y5185304D01*
X9779093Y5209212D01*
X9766718Y5230646D01*
X9749217Y5248147D01*
X9727782Y5260523D01*
X9703875Y5266929D01*
D02*
G37*
G36*
X10842151Y5150900D02*
X10824049D01*
X10807327Y5143973D01*
X10794527Y5131173D01*
X10787600Y5114451D01*
Y5096349D01*
X10794527Y5079627D01*
X10807327Y5066827D01*
X10824049Y5059900D01*
X10842151D01*
X10858873Y5066827D01*
X10871673Y5079627D01*
X10878600Y5096349D01*
Y5114451D01*
X10871673Y5131173D01*
X10858873Y5143973D01*
X10842151Y5150900D01*
D02*
G37*
G36*
X5978051Y5125500D02*
X5959949D01*
X5943227Y5118573D01*
X5930427Y5105773D01*
X5923500Y5089051D01*
Y5070949D01*
X5930427Y5054227D01*
X5943227Y5041427D01*
X5959949Y5034500D01*
X5978051D01*
X5994773Y5041427D01*
X6007573Y5054227D01*
X6014500Y5070949D01*
Y5089051D01*
X6007573Y5105773D01*
X5994773Y5118573D01*
X5978051Y5125500D01*
D02*
G37*
G36*
X9384702Y5228800D02*
X9358898D01*
X9333973Y5222121D01*
X9311627Y5209219D01*
X9293381Y5190973D01*
X9280479Y5168626D01*
X9273800Y5143702D01*
Y5117898D01*
X9280479Y5092974D01*
X9293381Y5070627D01*
X9311627Y5052381D01*
X9333973Y5039479D01*
X9358898Y5032800D01*
X9384702D01*
X9409626Y5039479D01*
X9431973Y5052381D01*
X9450219Y5070627D01*
X9463121Y5092974D01*
X9469800Y5117898D01*
Y5143702D01*
X9463121Y5168626D01*
X9450219Y5190973D01*
X9431973Y5209219D01*
X9409626Y5222121D01*
X9384702Y5228800D01*
D02*
G37*
G36*
X10138009Y5085482D02*
X10119908D01*
X10103185Y5078554D01*
X10090386Y5065755D01*
X10083459Y5049032D01*
Y5030931D01*
X10090386Y5014208D01*
X10103185Y5001409D01*
X10119908Y4994482D01*
X10138009D01*
X10154732Y5001409D01*
X10167531Y5014208D01*
X10174458Y5030931D01*
Y5049032D01*
X10167531Y5065755D01*
X10154732Y5078554D01*
X10138009Y5085482D01*
D02*
G37*
G36*
X10765951Y5074700D02*
X10747849D01*
X10731127Y5067773D01*
X10718327Y5054973D01*
X10711400Y5038251D01*
Y5020149D01*
X10718327Y5003427D01*
X10731127Y4990627D01*
X10747849Y4983700D01*
X10765951D01*
X10782673Y4990627D01*
X10795473Y5003427D01*
X10802400Y5020149D01*
Y5038251D01*
X10795473Y5054973D01*
X10782673Y5067773D01*
X10765951Y5074700D01*
D02*
G37*
G36*
X10516992Y4993295D02*
X10498891D01*
X10482169Y4986367D01*
X10469369Y4973568D01*
X10462442Y4956845D01*
Y4938744D01*
X10469369Y4922021D01*
X10482169Y4909222D01*
X10498891Y4902295D01*
X10516992D01*
X10533715Y4909222D01*
X10546515Y4922021D01*
X10553442Y4938744D01*
Y4956845D01*
X10546515Y4973568D01*
X10533715Y4986367D01*
X10516992Y4993295D01*
D02*
G37*
G36*
X10807107Y4961800D02*
X10789006D01*
X10772284Y4954872D01*
X10759484Y4942073D01*
X10752557Y4925350D01*
Y4907249D01*
X10759484Y4890526D01*
X10762110Y4887901D01*
X10761766Y4872097D01*
X10761677Y4871909D01*
X10747516Y4868217D01*
X10730794Y4875144D01*
X10712693D01*
X10695970Y4868217D01*
X10683171Y4855417D01*
X10676244Y4838694D01*
Y4820593D01*
X10683171Y4803871D01*
X10695970Y4791071D01*
X10712693Y4784144D01*
X10730794D01*
X10747517Y4791071D01*
X10752853Y4796407D01*
X10767099Y4800122D01*
X10783821Y4793195D01*
X10801923D01*
X10818645Y4800122D01*
X10831445Y4812921D01*
X10838372Y4829644D01*
Y4847745D01*
X10831445Y4864468D01*
X10828819Y4867094D01*
X10829207Y4883104D01*
X10836630Y4890526D01*
X10843557Y4907249D01*
Y4925350D01*
X10836630Y4942073D01*
X10823830Y4954872D01*
X10807107Y4961800D01*
D02*
G37*
G36*
X11227875Y5012929D02*
X11203124D01*
X11179217Y5006523D01*
X11157783Y4994147D01*
X11140281Y4976646D01*
X11127906Y4955212D01*
X11121500Y4931304D01*
Y4906554D01*
X11127906Y4882646D01*
X11140281Y4861212D01*
X11157783Y4843710D01*
X11179217Y4831335D01*
X11203124Y4824929D01*
X11227875D01*
X11251782Y4831335D01*
X11273217Y4843710D01*
X11290718Y4861212D01*
X11303093Y4882646D01*
X11309500Y4906554D01*
Y4931304D01*
X11303093Y4955212D01*
X11290718Y4976646D01*
X11273217Y4994147D01*
X11251782Y5006523D01*
X11227875Y5012929D01*
D02*
G37*
G36*
X9703875D02*
X9679124D01*
X9655217Y5006523D01*
X9633783Y4994147D01*
X9616281Y4976646D01*
X9603906Y4955212D01*
X9597500Y4931304D01*
Y4906554D01*
X9603906Y4882646D01*
X9616281Y4861212D01*
X9633783Y4843710D01*
X9655217Y4831335D01*
X9679124Y4824929D01*
X9703875D01*
X9727782Y4831335D01*
X9749217Y4843710D01*
X9766718Y4861212D01*
X9779093Y4882646D01*
X9785500Y4906554D01*
Y4931304D01*
X9779093Y4955212D01*
X9766718Y4976646D01*
X9749217Y4994147D01*
X9727782Y5006523D01*
X9703875Y5012929D01*
D02*
G37*
G36*
X9411800Y4975936D02*
X9331800D01*
X9309170Y4971435D01*
X9289984Y4958616D01*
X9277165Y4939430D01*
X9272664Y4916800D01*
Y4836800D01*
X9277165Y4814170D01*
X9289984Y4794984D01*
X9309170Y4782165D01*
X9331800Y4777664D01*
X9411800D01*
X9434430Y4782165D01*
X9453616Y4794984D01*
X9466435Y4814170D01*
X9470936Y4836800D01*
Y4916800D01*
X9466435Y4939430D01*
X9453616Y4958616D01*
X9434430Y4971435D01*
X9411800Y4975936D01*
D02*
G37*
G36*
X10278482Y4984750D02*
X10260381D01*
X10243658Y4977823D01*
X10230858Y4965024D01*
X10223931Y4948301D01*
Y4930200D01*
X10226833Y4923194D01*
X10218158Y4910950D01*
X10207631D01*
X10190908Y4904023D01*
X10178108Y4891224D01*
X10171181Y4874501D01*
Y4856400D01*
X10178108Y4839677D01*
X10188913Y4828872D01*
X10178109Y4818068D01*
X10171182Y4801345D01*
Y4783244D01*
X10178109Y4766522D01*
X10190908Y4753722D01*
X10207631Y4746795D01*
X10225732D01*
X10242455Y4753722D01*
X10255254Y4766522D01*
X10262181Y4783244D01*
Y4801345D01*
X10255254Y4818068D01*
X10244450Y4828873D01*
X10255254Y4839677D01*
X10262181Y4856400D01*
Y4874501D01*
X10259279Y4881507D01*
X10267954Y4893750D01*
X10278482D01*
X10295204Y4900678D01*
X10308004Y4913477D01*
X10314931Y4930200D01*
Y4948301D01*
X10308004Y4965024D01*
X10295204Y4977823D01*
X10278482Y4984750D01*
D02*
G37*
G36*
X11025150Y4742283D02*
X11007049D01*
X10990327Y4735356D01*
X10977527Y4722557D01*
X10970600Y4705834D01*
Y4687733D01*
X10977527Y4671010D01*
X10990327Y4658211D01*
X11007049Y4651284D01*
X11025150D01*
X11041873Y4658211D01*
X11054673Y4671010D01*
X11061600Y4687733D01*
Y4705834D01*
X11054673Y4722557D01*
X11041873Y4735356D01*
X11025150Y4742283D01*
D02*
G37*
G36*
X10569811Y4686810D02*
X10551710D01*
X10534987Y4679883D01*
X10522188Y4667083D01*
X10515261Y4650361D01*
Y4632259D01*
X10522188Y4615537D01*
X10534987Y4602737D01*
X10551710Y4595810D01*
X10569811D01*
X10586534Y4602737D01*
X10599333Y4615537D01*
X10606260Y4632259D01*
Y4650361D01*
X10599333Y4667083D01*
X10586534Y4679883D01*
X10569811Y4686810D01*
D02*
G37*
G36*
X11227875Y4758929D02*
X11203124D01*
X11179217Y4752523D01*
X11157783Y4740147D01*
X11140281Y4722646D01*
X11127906Y4701212D01*
X11121500Y4677304D01*
Y4652554D01*
X11127906Y4628646D01*
X11140281Y4607212D01*
X11157783Y4589710D01*
X11179217Y4577335D01*
X11203124Y4570929D01*
X11227875D01*
X11251782Y4577335D01*
X11273217Y4589710D01*
X11290718Y4607212D01*
X11303093Y4628646D01*
X11309500Y4652554D01*
Y4677304D01*
X11303093Y4701212D01*
X11290718Y4722646D01*
X11273217Y4740147D01*
X11251782Y4752523D01*
X11227875Y4758929D01*
D02*
G37*
G36*
X9703875D02*
X9679124D01*
X9655217Y4752523D01*
X9633783Y4740147D01*
X9616281Y4722646D01*
X9603906Y4701212D01*
X9597500Y4677304D01*
Y4652554D01*
X9603906Y4628646D01*
X9616281Y4607212D01*
X9633783Y4589710D01*
X9655217Y4577335D01*
X9679124Y4570929D01*
X9703875D01*
X9727782Y4577335D01*
X9749217Y4589710D01*
X9766718Y4607212D01*
X9779093Y4628646D01*
X9785500Y4652554D01*
Y4677304D01*
X9779093Y4701212D01*
X9766718Y4722646D01*
X9749217Y4740147D01*
X9727782Y4752523D01*
X9703875Y4758929D01*
D02*
G37*
G36*
X10708187Y4728805D02*
X10690086D01*
X10673363Y4721878D01*
X10660564Y4709079D01*
X10653637Y4692356D01*
Y4674255D01*
X10660564Y4657532D01*
X10670833Y4647262D01*
X10674608Y4635873D01*
X10667681Y4619151D01*
Y4601049D01*
X10674608Y4584327D01*
X10687408Y4571527D01*
X10704130Y4564600D01*
X10722232D01*
X10738954Y4571527D01*
X10751754Y4584327D01*
X10758681Y4601049D01*
Y4619151D01*
X10751754Y4635873D01*
X10741484Y4646143D01*
X10737709Y4657532D01*
X10744636Y4674255D01*
Y4692356D01*
X10737709Y4709079D01*
X10724910Y4721878D01*
X10708187Y4728805D01*
D02*
G37*
G36*
X10648246Y4582192D02*
X10630145D01*
X10613422Y4575265D01*
X10600622Y4562465D01*
X10593695Y4545742D01*
Y4527641D01*
X10600622Y4510919D01*
X10613422Y4498119D01*
X10630145Y4491192D01*
X10648246D01*
X10664969Y4498119D01*
X10677768Y4510919D01*
X10684695Y4527641D01*
Y4545742D01*
X10677768Y4562465D01*
X10664969Y4575265D01*
X10648246Y4582192D01*
D02*
G37*
G36*
X9384702Y4650800D02*
X9358898D01*
X9333973Y4644121D01*
X9311627Y4631219D01*
X9293381Y4612974D01*
X9280479Y4590627D01*
X9273800Y4565702D01*
Y4539898D01*
X9280479Y4514974D01*
X9293381Y4492627D01*
X9311627Y4474381D01*
X9333973Y4461479D01*
X9358898Y4454800D01*
X9384702D01*
X9409626Y4461479D01*
X9431973Y4474381D01*
X9450219Y4492627D01*
X9463121Y4514974D01*
X9469800Y4539898D01*
Y4565702D01*
X9463121Y4590627D01*
X9450219Y4612974D01*
X9431973Y4631219D01*
X9409626Y4644121D01*
X9384702Y4650800D01*
D02*
G37*
G36*
X10786231Y4493217D02*
X10768130D01*
X10751408Y4486289D01*
X10738608Y4473490D01*
X10731681Y4456767D01*
Y4438666D01*
X10738608Y4421943D01*
X10751408Y4409144D01*
X10768130Y4402217D01*
X10786231D01*
X10802954Y4409144D01*
X10815754Y4421943D01*
X10822681Y4438666D01*
Y4456767D01*
X10815754Y4473490D01*
X10802954Y4486289D01*
X10786231Y4493217D01*
D02*
G37*
G36*
X10657600Y4440200D02*
X10639499D01*
X10622776Y4433273D01*
X10609976Y4420474D01*
X10603049Y4403751D01*
Y4385650D01*
X10609976Y4368927D01*
X10622776Y4356127D01*
X10639499Y4349200D01*
X10657600D01*
X10674323Y4356127D01*
X10687122Y4368927D01*
X10694049Y4385650D01*
Y4403751D01*
X10687122Y4420474D01*
X10674323Y4433273D01*
X10657600Y4440200D01*
D02*
G37*
G36*
X10576115Y4339601D02*
X10558014D01*
X10553872Y4337885D01*
X10527942D01*
X10524676Y4339238D01*
X10506575D01*
X10489852Y4332311D01*
X10477053Y4319511D01*
X10470126Y4302788D01*
Y4284687D01*
X10477053Y4267965D01*
X10489852Y4255165D01*
X10506575Y4248238D01*
X10524676D01*
X10529412Y4250200D01*
X10554154D01*
X10558014Y4248601D01*
X10576115D01*
X10592838Y4255528D01*
X10605637Y4268328D01*
X10612564Y4285050D01*
Y4303151D01*
X10605637Y4319874D01*
X10592838Y4332674D01*
X10576115Y4339601D01*
D02*
G37*
G36*
X6079077Y4476228D02*
X6060976D01*
X6044253Y4469300D01*
X6031454Y4456501D01*
X6024527Y4439778D01*
Y4421677D01*
X6031454Y4404954D01*
X6038084Y4398324D01*
X6032961Y4393201D01*
X6026034Y4376478D01*
Y4358377D01*
X6032961Y4341654D01*
X6045760Y4328855D01*
X6062483Y4321928D01*
X6080584D01*
X6097307Y4328855D01*
X6110106Y4341654D01*
X6117033Y4358377D01*
Y4376478D01*
X6110106Y4393201D01*
X6103476Y4399831D01*
X6108599Y4404954D01*
X6115526Y4421677D01*
Y4439778D01*
X6108599Y4456501D01*
X6095800Y4469300D01*
X6079077Y4476228D01*
D02*
G37*
G36*
X11227875Y4504929D02*
X11203124D01*
X11179217Y4498523D01*
X11157783Y4486147D01*
X11140281Y4468646D01*
X11127906Y4447212D01*
X11121500Y4423304D01*
Y4398554D01*
X11127906Y4374646D01*
X11140281Y4353212D01*
X11157783Y4335710D01*
X11179217Y4323335D01*
X11203124Y4316929D01*
X11227875D01*
X11251782Y4323335D01*
X11273217Y4335710D01*
X11290718Y4353212D01*
X11303093Y4374646D01*
X11309500Y4398554D01*
Y4423304D01*
X11303093Y4447212D01*
X11290718Y4468646D01*
X11273217Y4486147D01*
X11251782Y4498523D01*
X11227875Y4504929D01*
D02*
G37*
G36*
X9703875D02*
X9679124D01*
X9655217Y4498523D01*
X9633783Y4486147D01*
X9616281Y4468646D01*
X9603906Y4447212D01*
X9597500Y4423304D01*
Y4398554D01*
X9603906Y4374646D01*
X9616281Y4353212D01*
X9633783Y4335710D01*
X9655217Y4323335D01*
X9679124Y4316929D01*
X9703875D01*
X9727782Y4323335D01*
X9749217Y4335710D01*
X9766718Y4353212D01*
X9779093Y4374646D01*
X9785500Y4398554D01*
Y4423304D01*
X9779093Y4447212D01*
X9766718Y4468646D01*
X9749217Y4486147D01*
X9727782Y4498523D01*
X9703875Y4504929D01*
D02*
G37*
G36*
X9411800Y4397936D02*
X9331800D01*
X9309170Y4393435D01*
X9289984Y4380616D01*
X9277165Y4361430D01*
X9272664Y4338800D01*
Y4258800D01*
X9277165Y4236170D01*
X9289984Y4216984D01*
X9309170Y4204165D01*
X9331800Y4199664D01*
X9411800D01*
X9434430Y4204165D01*
X9453616Y4216984D01*
X9466435Y4236170D01*
X9470936Y4258800D01*
Y4338800D01*
X9466435Y4361430D01*
X9453616Y4380616D01*
X9434430Y4393435D01*
X9411800Y4397936D01*
D02*
G37*
G36*
X10779285Y3999791D02*
X10761184D01*
X10744834Y3993019D01*
X10728485Y3999791D01*
X10710384D01*
X10694034Y3993019D01*
X10677685Y3999791D01*
X10659584D01*
X10642861Y3992864D01*
X10630062Y3980065D01*
X10623134Y3963342D01*
Y3945241D01*
X10629907Y3928892D01*
X10623134Y3912542D01*
Y3894441D01*
X10629907Y3878092D01*
X10623134Y3861742D01*
Y3843641D01*
X10629907Y3827292D01*
X10623134Y3810942D01*
Y3792841D01*
X10630062Y3776118D01*
X10642861Y3763319D01*
X10659584Y3756392D01*
X10677685D01*
X10694034Y3763164D01*
X10710384Y3756392D01*
X10728485D01*
X10744834Y3763164D01*
X10761184Y3756392D01*
X10779285D01*
X10796008Y3763319D01*
X10808807Y3776118D01*
X10815734Y3792841D01*
Y3810942D01*
X10808962Y3827292D01*
X10815734Y3843641D01*
Y3861742D01*
X10808962Y3878092D01*
X10815734Y3894441D01*
Y3912542D01*
X10808962Y3928892D01*
X10815734Y3945241D01*
Y3963342D01*
X10808807Y3980065D01*
X10796008Y3992864D01*
X10779285Y3999791D01*
D02*
G37*
G36*
X9575832Y3998777D02*
X9557731D01*
X9541382Y3992004D01*
X9525032Y3998777D01*
X9506931D01*
X9490582Y3992004D01*
X9474232Y3998777D01*
X9456131D01*
X9439408Y3991850D01*
X9426609Y3979050D01*
X9419682Y3962328D01*
Y3944227D01*
X9426454Y3927877D01*
X9419682Y3911528D01*
Y3893427D01*
X9426454Y3877077D01*
X9419682Y3860728D01*
Y3842627D01*
X9426454Y3826277D01*
X9419682Y3809928D01*
Y3791827D01*
X9426609Y3775104D01*
X9439408Y3762304D01*
X9456131Y3755377D01*
X9474232D01*
X9490582Y3762150D01*
X9506931Y3755377D01*
X9525032D01*
X9541382Y3762150D01*
X9557731Y3755377D01*
X9575832D01*
X9592555Y3762304D01*
X9605354Y3775104D01*
X9612282Y3791827D01*
Y3809928D01*
X9605509Y3826277D01*
X9612282Y3842627D01*
Y3860728D01*
X9605509Y3877077D01*
X9612282Y3893427D01*
Y3911528D01*
X9605509Y3927877D01*
X9612282Y3944227D01*
Y3962328D01*
X9605354Y3979050D01*
X9592555Y3991850D01*
X9575832Y3998777D01*
D02*
G37*
G36*
X10583942Y3748681D02*
X10565841D01*
X10549118Y3741754D01*
X10536319Y3728954D01*
X10529391Y3712231D01*
Y3694130D01*
X10536319Y3677407D01*
X10549118Y3664608D01*
X10565841Y3657681D01*
X10583942D01*
X10600665Y3664608D01*
X10613464Y3677407D01*
X10620391Y3694130D01*
Y3712231D01*
X10613464Y3728954D01*
X10600665Y3741754D01*
X10583942Y3748681D01*
D02*
G37*
G36*
X7794919Y3706829D02*
X7761901D01*
X7730008Y3698283D01*
X7701413Y3681774D01*
X7698719Y3679080D01*
X7778410Y3599389D01*
X7858101Y3679080D01*
X7855407Y3681774D01*
X7826813Y3698283D01*
X7794919Y3706829D01*
D02*
G37*
G36*
X10487808Y3667080D02*
X10469707D01*
X10452984Y3660153D01*
X10440185Y3647354D01*
X10433258Y3630631D01*
Y3612530D01*
X10435850Y3606271D01*
X10425084Y3599077D01*
X10416952Y3607208D01*
X10400230Y3614135D01*
X10382129D01*
X10365406Y3607208D01*
X10352606Y3594409D01*
X10345679Y3577686D01*
Y3559585D01*
X10352606Y3542862D01*
X10365406Y3530063D01*
X10382129Y3523135D01*
X10400230D01*
X10416952Y3530063D01*
X10429752Y3542862D01*
X10436679Y3559585D01*
Y3577686D01*
X10434086Y3583945D01*
X10444853Y3591139D01*
X10452984Y3583008D01*
X10469707Y3576080D01*
X10487808D01*
X10504531Y3583008D01*
X10517330Y3595807D01*
X10524257Y3612530D01*
Y3630631D01*
X10517330Y3647354D01*
X10504531Y3660153D01*
X10487808Y3667080D01*
D02*
G37*
G36*
X7876061Y3661120D02*
X7796370Y3581429D01*
X7876061Y3501738D01*
X7878755Y3504432D01*
X7895264Y3533026D01*
X7903810Y3564920D01*
Y3597938D01*
X7895264Y3629831D01*
X7878755Y3658426D01*
X7876061Y3661120D01*
D02*
G37*
G36*
X7680759D02*
X7678065Y3658426D01*
X7661556Y3629831D01*
X7653010Y3597938D01*
Y3564920D01*
X7661556Y3533026D01*
X7678065Y3504432D01*
X7680759Y3501738D01*
X7760450Y3581429D01*
X7680759Y3661120D01*
D02*
G37*
G36*
X10225183Y3654599D02*
X10207082D01*
X10190359Y3647672D01*
X10177560Y3634873D01*
X10170633Y3618150D01*
Y3600049D01*
X10177560Y3583326D01*
X10185286Y3575600D01*
X10177560Y3567873D01*
X10170633Y3551150D01*
Y3533049D01*
X10177560Y3516326D01*
X10190359Y3503527D01*
X10207082Y3496600D01*
X10225183D01*
X10241906Y3503527D01*
X10254705Y3516326D01*
X10261632Y3533049D01*
Y3551150D01*
X10254705Y3567873D01*
X10246979Y3575600D01*
X10254705Y3583326D01*
X10261632Y3600049D01*
Y3618150D01*
X10254705Y3634873D01*
X10241906Y3647672D01*
X10225183Y3654599D01*
D02*
G37*
G36*
X8809945Y3699429D02*
X8778875D01*
X8748864Y3691388D01*
X8721956Y3675852D01*
X8699987Y3653883D01*
X8684452Y3626975D01*
X8676410Y3596964D01*
Y3565894D01*
X8684452Y3535883D01*
X8699987Y3508975D01*
X8721956Y3487005D01*
X8748864Y3471470D01*
X8778875Y3463429D01*
X8809945D01*
X8839956Y3471470D01*
X8866864Y3487005D01*
X8888834Y3508975D01*
X8904369Y3535883D01*
X8912410Y3565894D01*
Y3596964D01*
X8904369Y3626975D01*
X8888834Y3653883D01*
X8866864Y3675852D01*
X8839956Y3691388D01*
X8809945Y3699429D01*
D02*
G37*
G36*
X6777945D02*
X6746875D01*
X6716864Y3691388D01*
X6689956Y3675852D01*
X6667987Y3653883D01*
X6652452Y3626975D01*
X6644410Y3596964D01*
Y3565894D01*
X6652452Y3535883D01*
X6667987Y3508975D01*
X6689956Y3487005D01*
X6716864Y3471470D01*
X6746875Y3463429D01*
X6777945D01*
X6807956Y3471470D01*
X6834864Y3487005D01*
X6856834Y3508975D01*
X6872369Y3535883D01*
X6880410Y3565894D01*
Y3596964D01*
X6872369Y3626975D01*
X6856834Y3653883D01*
X6834864Y3675852D01*
X6807956Y3691388D01*
X6777945Y3699429D01*
D02*
G37*
G36*
X7778410Y3563469D02*
X7698719Y3483778D01*
X7701413Y3481084D01*
X7730008Y3464575D01*
X7761901Y3456029D01*
X7794919D01*
X7826813Y3464575D01*
X7855407Y3481084D01*
X7858101Y3483778D01*
X7778410Y3563469D01*
D02*
G37*
G36*
X5839672Y3328220D02*
X5821571D01*
X5804848Y3321293D01*
X5792049Y3308494D01*
X5785122Y3291771D01*
Y3273670D01*
X5792049Y3256947D01*
X5804848Y3244147D01*
X5821571Y3237220D01*
X5839672D01*
X5856395Y3244147D01*
X5869195Y3256947D01*
X5876122Y3273670D01*
Y3291771D01*
X5869195Y3308494D01*
X5856395Y3321293D01*
X5839672Y3328220D01*
D02*
G37*
G36*
X10067451Y3220500D02*
X10049349D01*
X10032627Y3213573D01*
X10019827Y3200773D01*
X10012900Y3184051D01*
Y3165949D01*
X10019827Y3149227D01*
X10032627Y3136427D01*
X10049349Y3129500D01*
X10067451D01*
X10084173Y3136427D01*
X10096973Y3149227D01*
X10103900Y3165949D01*
Y3184051D01*
X10096973Y3200773D01*
X10084173Y3213573D01*
X10067451Y3220500D01*
D02*
G37*
G36*
X6311236Y3122560D02*
X6293134D01*
X6276412Y3115633D01*
X6263612Y3102834D01*
X6256685Y3086111D01*
Y3068010D01*
X6263612Y3051287D01*
X6276412Y3038488D01*
X6293134Y3031561D01*
X6311236D01*
X6327958Y3038488D01*
X6340758Y3051287D01*
X6347685Y3068010D01*
Y3086111D01*
X6340758Y3102834D01*
X6327958Y3115633D01*
X6311236Y3122560D01*
D02*
G37*
G36*
X5065593Y3215128D02*
X4985594D01*
X4962963Y3210627D01*
X4943778Y3197808D01*
X4930959Y3178622D01*
X4926457Y3155992D01*
Y3075992D01*
X4930959Y3053362D01*
X4943778Y3034176D01*
X4962963Y3021357D01*
X4985594Y3016856D01*
X5065593D01*
X5088224Y3021357D01*
X5107409Y3034176D01*
X5120228Y3053362D01*
X5124730Y3075992D01*
Y3155992D01*
X5120228Y3178622D01*
X5107409Y3197808D01*
X5088224Y3210627D01*
X5065593Y3215128D01*
D02*
G37*
G36*
X7238240Y3082707D02*
X7207170D01*
X7177159Y3074666D01*
X7150251Y3059131D01*
X7128282Y3037161D01*
X7112747Y3010254D01*
X7108110Y2992949D01*
X7094962Y2992949D01*
X7089560Y3013110D01*
X7073050Y3041705D01*
X7070357Y3044398D01*
X6990666Y2964707D01*
X7070357Y2885016D01*
X7073050Y2887710D01*
X7089560Y2916305D01*
X7094962Y2936466D01*
X7108110Y2936466D01*
X7112747Y2919161D01*
X7128282Y2892254D01*
X7150251Y2870284D01*
X7177159Y2854749D01*
X7207170Y2846707D01*
X7238240D01*
X7268251Y2854749D01*
X7295159Y2870284D01*
X7317129Y2892254D01*
X7332664Y2919161D01*
X7340705Y2949172D01*
Y2980242D01*
X7332664Y3010254D01*
X7317129Y3037161D01*
X7295159Y3059131D01*
X7268251Y3074666D01*
X7238240Y3082707D01*
D02*
G37*
G36*
X6989215Y3090107D02*
X6956196D01*
X6924303Y3081562D01*
X6895708Y3065052D01*
X6893014Y3062359D01*
X6972705Y2982668D01*
X7052396Y3062359D01*
X7049703Y3065052D01*
X7021108Y3081562D01*
X6989215Y3090107D01*
D02*
G37*
G36*
X10461151Y2966500D02*
X10443049D01*
X10426327Y2959573D01*
X10413527Y2946773D01*
X10406600Y2930051D01*
Y2911949D01*
X10413527Y2895227D01*
X10426327Y2882427D01*
X10443049Y2875500D01*
X10461151D01*
X10477873Y2882427D01*
X10490673Y2895227D01*
X10497600Y2911949D01*
Y2930051D01*
X10490673Y2946773D01*
X10477873Y2959573D01*
X10461151Y2966500D01*
D02*
G37*
G36*
X10651166Y2966167D02*
X10633065D01*
X10616342Y2959240D01*
X10603543Y2946441D01*
X10596616Y2929718D01*
Y2911617D01*
X10603543Y2894894D01*
X10616342Y2882095D01*
X10633065Y2875168D01*
X10651166D01*
X10667889Y2882095D01*
X10680689Y2894894D01*
X10687616Y2911617D01*
Y2929718D01*
X10680689Y2946441D01*
X10667889Y2959240D01*
X10651166Y2966167D01*
D02*
G37*
G36*
X6875054Y3044398D02*
X6872360Y3041705D01*
X6855851Y3013110D01*
X6847305Y2981217D01*
Y2948198D01*
X6855851Y2916305D01*
X6872360Y2887710D01*
X6877192Y2882878D01*
X6871130Y2870980D01*
X6829713Y2877540D01*
X6770287D01*
X6711593Y2868244D01*
X6655075Y2849880D01*
X6602126Y2822901D01*
X6554049Y2787972D01*
X6512029Y2745951D01*
X6477099Y2697874D01*
X6450120Y2644925D01*
X6431757Y2588408D01*
X6422460Y2529713D01*
Y2470287D01*
X6431757Y2411593D01*
X6450120Y2355075D01*
X6477099Y2302126D01*
X6512029Y2254049D01*
X6554049Y2212029D01*
X6602126Y2177099D01*
X6655075Y2150120D01*
X6711593Y2131756D01*
X6770287Y2122460D01*
X6829713D01*
X6888408Y2131756D01*
X6944925Y2150120D01*
X6997874Y2177099D01*
X7045951Y2212029D01*
X7087972Y2254049D01*
X7122901Y2302126D01*
X7149880Y2355075D01*
X7168244Y2411593D01*
X7177540Y2470287D01*
Y2529713D01*
X7168244Y2588408D01*
X7149880Y2644925D01*
X7122901Y2697874D01*
X7087972Y2745951D01*
X7045951Y2787972D01*
X6997874Y2822901D01*
X6988793Y2827528D01*
X6992121Y2840086D01*
X7021108Y2847853D01*
X7049703Y2864362D01*
X7052396Y2867056D01*
X6963725Y2955727D01*
X6875054Y3044398D01*
D02*
G37*
G36*
X5038495Y2959992D02*
X5012692D01*
X4987767Y2953313D01*
X4965420Y2940411D01*
X4947174Y2922165D01*
X4934272Y2899818D01*
X4927594Y2874894D01*
Y2849090D01*
X4934272Y2824166D01*
X4947174Y2801819D01*
X4965420Y2783573D01*
X4987767Y2770671D01*
X5012692Y2763992D01*
X5038495D01*
X5063420Y2770671D01*
X5085767Y2783573D01*
X5104013Y2801819D01*
X5116915Y2824166D01*
X5123593Y2849090D01*
Y2874894D01*
X5116915Y2899818D01*
X5104013Y2922165D01*
X5085767Y2940411D01*
X5063420Y2953313D01*
X5038495Y2959992D01*
D02*
G37*
G36*
X10490402Y2828500D02*
X10464598D01*
X10439674Y2821821D01*
X10417327Y2808919D01*
X10399081Y2790673D01*
X10386179Y2768326D01*
X10379500Y2743402D01*
Y2717598D01*
X10386179Y2692674D01*
X10399081Y2670327D01*
X10417327Y2652081D01*
X10439674Y2639179D01*
X10464598Y2632500D01*
X10490402D01*
X10515326Y2639179D01*
X10537673Y2652081D01*
X10555919Y2670327D01*
X10568821Y2692674D01*
X10575500Y2717598D01*
Y2743402D01*
X10568821Y2768326D01*
X10555919Y2790673D01*
X10537673Y2808919D01*
X10515326Y2821821D01*
X10490402Y2828500D01*
D02*
G37*
G36*
X10236402D02*
X10210598D01*
X10185674Y2821821D01*
X10163327Y2808919D01*
X10145081Y2790673D01*
X10132179Y2768326D01*
X10125500Y2743402D01*
Y2717598D01*
X10132179Y2692674D01*
X10145081Y2670327D01*
X10163327Y2652081D01*
X10185674Y2639179D01*
X10210598Y2632500D01*
X10236402D01*
X10261326Y2639179D01*
X10283673Y2652081D01*
X10301919Y2670327D01*
X10314821Y2692674D01*
X10321500Y2717598D01*
Y2743402D01*
X10314821Y2768326D01*
X10301919Y2790673D01*
X10283673Y2808919D01*
X10261326Y2821821D01*
X10236402Y2828500D01*
D02*
G37*
G36*
X10009500Y2829636D02*
X9929500D01*
X9906870Y2825135D01*
X9887684Y2812316D01*
X9874865Y2793130D01*
X9870364Y2770500D01*
Y2690500D01*
X9874865Y2667870D01*
X9887684Y2648684D01*
X9906870Y2635865D01*
X9929500Y2631364D01*
X10009500D01*
X10032130Y2635865D01*
X10051316Y2648684D01*
X10064135Y2667870D01*
X10068636Y2690500D01*
Y2770500D01*
X10064135Y2793130D01*
X10051316Y2812316D01*
X10032130Y2825135D01*
X10009500Y2829636D01*
D02*
G37*
G36*
X5038495Y2705992D02*
X5012692D01*
X4987767Y2699313D01*
X4965420Y2686411D01*
X4947174Y2668165D01*
X4934272Y2645818D01*
X4927594Y2620894D01*
Y2595090D01*
X4934272Y2570166D01*
X4947174Y2547819D01*
X4965420Y2529573D01*
X4987767Y2516671D01*
X5012692Y2509992D01*
X5038495D01*
X5063420Y2516671D01*
X5085767Y2529573D01*
X5104013Y2547819D01*
X5116915Y2570166D01*
X5123593Y2595090D01*
Y2620894D01*
X5116915Y2645818D01*
X5104013Y2668165D01*
X5085767Y2686411D01*
X5063420Y2699313D01*
X5038495Y2705992D01*
D02*
G37*
G36*
X9475705Y2520900D02*
X9447295D01*
X9419852Y2513547D01*
X9395248Y2499341D01*
X9394183Y2498277D01*
X9461500Y2430960D01*
X9528817Y2498277D01*
X9527752Y2499341D01*
X9503148Y2513547D01*
X9475705Y2520900D01*
D02*
G37*
G36*
X5039470Y2459392D02*
X5011717D01*
X4984911Y2452209D01*
X4960876Y2438333D01*
X4960044Y2437501D01*
X5025593Y2371952D01*
X5091142Y2437501D01*
X5090311Y2438333D01*
X5066276Y2452209D01*
X5039470Y2459392D01*
D02*
G37*
G36*
X9376223Y2480317D02*
X9375159Y2479252D01*
X9360953Y2454648D01*
X9353600Y2427205D01*
Y2398795D01*
X9360953Y2371352D01*
X9375159Y2346748D01*
X9376223Y2345683D01*
X9443540Y2413000D01*
X9376223Y2480317D01*
D02*
G37*
G36*
X9546777D02*
X9479460Y2413000D01*
X9546777Y2345683D01*
X9547841Y2346748D01*
X9562047Y2371352D01*
X9569400Y2398795D01*
Y2427205D01*
X9562047Y2454648D01*
X9547841Y2479252D01*
X9546777Y2480317D01*
D02*
G37*
G36*
X10236731Y2513500D02*
X10210269D01*
X10184709Y2506651D01*
X10161792Y2493420D01*
X10143080Y2474708D01*
X10129849Y2451791D01*
X10123000Y2426231D01*
Y2399769D01*
X10129849Y2374209D01*
X10143080Y2351292D01*
X10161792Y2332580D01*
X10184709Y2319349D01*
X10210269Y2312500D01*
X10236731D01*
X10262291Y2319349D01*
X10285208Y2332580D01*
X10303920Y2351292D01*
X10317151Y2374209D01*
X10324000Y2399769D01*
Y2426231D01*
X10317151Y2451791D01*
X10303920Y2474708D01*
X10285208Y2493420D01*
X10262291Y2506651D01*
X10236731Y2513500D01*
D02*
G37*
G36*
X9982731D02*
X9956269D01*
X9930709Y2506651D01*
X9907792Y2493420D01*
X9889080Y2474708D01*
X9875849Y2451791D01*
X9869000Y2426231D01*
Y2399769D01*
X9875849Y2374209D01*
X9889080Y2351292D01*
X9907792Y2332580D01*
X9930709Y2319349D01*
X9956269Y2312500D01*
X9982731D01*
X10008291Y2319349D01*
X10031208Y2332580D01*
X10049920Y2351292D01*
X10063151Y2374209D01*
X10070000Y2399769D01*
Y2426231D01*
X10063151Y2451791D01*
X10049920Y2474708D01*
X10031208Y2493420D01*
X10008291Y2506651D01*
X9982731Y2513500D01*
D02*
G37*
G36*
X9728731D02*
X9702269D01*
X9676709Y2506651D01*
X9653792Y2493420D01*
X9635080Y2474708D01*
X9621849Y2451791D01*
X9615000Y2426231D01*
Y2399769D01*
X9621849Y2374209D01*
X9635080Y2351292D01*
X9653792Y2332580D01*
X9676709Y2319349D01*
X9702269Y2312500D01*
X9728731D01*
X9754291Y2319349D01*
X9777208Y2332580D01*
X9795920Y2351292D01*
X9809151Y2374209D01*
X9816000Y2399769D01*
Y2426231D01*
X9809151Y2451791D01*
X9795920Y2474708D01*
X9777208Y2493420D01*
X9754291Y2506651D01*
X9728731Y2513500D01*
D02*
G37*
G36*
X9220731D02*
X9194269D01*
X9168709Y2506651D01*
X9145792Y2493420D01*
X9127080Y2474708D01*
X9113849Y2451791D01*
X9107000Y2426231D01*
Y2399769D01*
X9113849Y2374209D01*
X9127080Y2351292D01*
X9145792Y2332580D01*
X9168709Y2319349D01*
X9194269Y2312500D01*
X9220731D01*
X9246291Y2319349D01*
X9269208Y2332580D01*
X9287920Y2351292D01*
X9301151Y2374209D01*
X9308000Y2399769D01*
Y2426231D01*
X9301151Y2451791D01*
X9287920Y2474708D01*
X9269208Y2493420D01*
X9246291Y2506651D01*
X9220731Y2513500D01*
D02*
G37*
G36*
X8966731D02*
X8940269D01*
X8914709Y2506651D01*
X8891792Y2493420D01*
X8873080Y2474708D01*
X8859849Y2451791D01*
X8853000Y2426231D01*
Y2399769D01*
X8859849Y2374209D01*
X8873080Y2351292D01*
X8891792Y2332580D01*
X8914709Y2319349D01*
X8940269Y2312500D01*
X8966731D01*
X8992291Y2319349D01*
X9015208Y2332580D01*
X9033920Y2351292D01*
X9047151Y2374209D01*
X9054000Y2399769D01*
Y2426231D01*
X9047151Y2451791D01*
X9033920Y2474708D01*
X9015208Y2493420D01*
X8992291Y2506651D01*
X8966731Y2513500D01*
D02*
G37*
G36*
X10518750Y2514661D02*
X10436250D01*
X10413132Y2510062D01*
X10393533Y2496967D01*
X10380438Y2477368D01*
X10375839Y2454250D01*
Y2371750D01*
X10380438Y2348632D01*
X10393533Y2329033D01*
X10413132Y2315938D01*
X10436250Y2311339D01*
X10518750D01*
X10541868Y2315938D01*
X10561467Y2329033D01*
X10574562Y2348632D01*
X10579161Y2371750D01*
Y2454250D01*
X10574562Y2477368D01*
X10561467Y2496967D01*
X10541868Y2510062D01*
X10518750Y2514661D01*
D02*
G37*
G36*
X9461500Y2395040D02*
X9394183Y2327723D01*
X9395248Y2326659D01*
X9419852Y2312453D01*
X9447295Y2305100D01*
X9475705D01*
X9503148Y2312453D01*
X9527752Y2326659D01*
X9528817Y2327723D01*
X9461500Y2395040D01*
D02*
G37*
G36*
X4942084Y2419540D02*
X4941253Y2418709D01*
X4927376Y2394675D01*
X4920194Y2367868D01*
Y2340116D01*
X4927376Y2313309D01*
X4941253Y2289275D01*
X4942084Y2288443D01*
X5007633Y2353992D01*
X4942084Y2419540D01*
D02*
G37*
G36*
X5109103Y2419541D02*
X5043554Y2353992D01*
X5109103Y2288443D01*
X5109934Y2289275D01*
X5123810Y2313309D01*
X5130993Y2340116D01*
Y2367868D01*
X5123810Y2394675D01*
X5109934Y2418709D01*
X5109103Y2419541D01*
D02*
G37*
G36*
X5025593Y2336031D02*
X4960045Y2270483D01*
X4960876Y2269651D01*
X4984911Y2255775D01*
X5011717Y2248592D01*
X5039470D01*
X5066276Y2255775D01*
X5090311Y2269651D01*
X5091142Y2270483D01*
X5025593Y2336031D01*
D02*
G37*
G36*
X8345076Y2289800D02*
X8317324D01*
X8290517Y2282617D01*
X8266483Y2268741D01*
X8265651Y2267909D01*
X8331200Y2202360D01*
X8396749Y2267909D01*
X8395917Y2268741D01*
X8371883Y2282617D01*
X8345076Y2289800D01*
D02*
G37*
G36*
X8414709Y2249949D02*
X8349160Y2184400D01*
X8414709Y2118851D01*
X8415541Y2119683D01*
X8429417Y2143717D01*
X8436600Y2170524D01*
Y2198276D01*
X8429417Y2225083D01*
X8415541Y2249117D01*
X8414709Y2249949D01*
D02*
G37*
G36*
X8247691Y2249949D02*
X8246859Y2249117D01*
X8232983Y2225083D01*
X8225800Y2198276D01*
Y2170524D01*
X8232983Y2143717D01*
X8246859Y2119683D01*
X8247691Y2118851D01*
X8313240Y2184400D01*
X8247691Y2249949D01*
D02*
G37*
G36*
X8090102Y2282400D02*
X8064298D01*
X8039374Y2275721D01*
X8017027Y2262819D01*
X7998781Y2244573D01*
X7985879Y2222226D01*
X7979200Y2197302D01*
Y2171498D01*
X7985879Y2146574D01*
X7998781Y2124227D01*
X8017027Y2105981D01*
X8039374Y2093079D01*
X8064298Y2086400D01*
X8090102D01*
X8115026Y2093079D01*
X8137373Y2105981D01*
X8155619Y2124227D01*
X8168521Y2146574D01*
X8175200Y2171498D01*
Y2197302D01*
X8168521Y2222226D01*
X8155619Y2244573D01*
X8137373Y2262819D01*
X8115026Y2275721D01*
X8090102Y2282400D01*
D02*
G37*
G36*
X7863200Y2283536D02*
X7783200D01*
X7760570Y2279035D01*
X7741384Y2266216D01*
X7728565Y2247030D01*
X7724064Y2224400D01*
Y2144400D01*
X7728565Y2121770D01*
X7741384Y2102584D01*
X7760570Y2089765D01*
X7783200Y2085264D01*
X7863200D01*
X7885830Y2089765D01*
X7905016Y2102584D01*
X7917835Y2121770D01*
X7922336Y2144400D01*
Y2224400D01*
X7917835Y2247030D01*
X7905016Y2266216D01*
X7885830Y2279035D01*
X7863200Y2283536D01*
D02*
G37*
G36*
X8331200Y2166440D02*
X8265651Y2100891D01*
X8266483Y2100059D01*
X8290517Y2086183D01*
X8317324Y2079000D01*
X8345076D01*
X8371883Y2086183D01*
X8395917Y2100059D01*
X8396749Y2100891D01*
X8331200Y2166440D01*
D02*
G37*
G36*
X10490731Y2259500D02*
X10464269D01*
X10438709Y2252651D01*
X10415792Y2239420D01*
X10397080Y2220708D01*
X10383849Y2197791D01*
X10377000Y2172231D01*
Y2145769D01*
X10383849Y2120209D01*
X10397080Y2097292D01*
X10415792Y2078580D01*
X10438709Y2065349D01*
X10464269Y2058500D01*
X10490731D01*
X10516291Y2065349D01*
X10539208Y2078580D01*
X10557920Y2097292D01*
X10571151Y2120209D01*
X10578000Y2145769D01*
Y2172231D01*
X10571151Y2197791D01*
X10557920Y2220708D01*
X10539208Y2239420D01*
X10516291Y2252651D01*
X10490731Y2259500D01*
D02*
G37*
G36*
X10236731D02*
X10210269D01*
X10184709Y2252651D01*
X10161792Y2239420D01*
X10143080Y2220708D01*
X10129849Y2197791D01*
X10123000Y2172231D01*
Y2145769D01*
X10129849Y2120209D01*
X10143080Y2097292D01*
X10161792Y2078580D01*
X10184709Y2065349D01*
X10210269Y2058500D01*
X10236731D01*
X10262291Y2065349D01*
X10285208Y2078580D01*
X10303920Y2097292D01*
X10317151Y2120209D01*
X10324000Y2145769D01*
Y2172231D01*
X10317151Y2197791D01*
X10303920Y2220708D01*
X10285208Y2239420D01*
X10262291Y2252651D01*
X10236731Y2259500D01*
D02*
G37*
G36*
X9982731D02*
X9956269D01*
X9930709Y2252651D01*
X9907792Y2239420D01*
X9889080Y2220708D01*
X9875849Y2197791D01*
X9869000Y2172231D01*
Y2145769D01*
X9875849Y2120209D01*
X9889080Y2097292D01*
X9907792Y2078580D01*
X9930709Y2065349D01*
X9956269Y2058500D01*
X9982731D01*
X10008291Y2065349D01*
X10031208Y2078580D01*
X10049920Y2097292D01*
X10063151Y2120209D01*
X10070000Y2145769D01*
Y2172231D01*
X10063151Y2197791D01*
X10049920Y2220708D01*
X10031208Y2239420D01*
X10008291Y2252651D01*
X9982731Y2259500D01*
D02*
G37*
G36*
X9728731D02*
X9702269D01*
X9676709Y2252651D01*
X9653792Y2239420D01*
X9635080Y2220708D01*
X9621849Y2197791D01*
X9615000Y2172231D01*
Y2145769D01*
X9621849Y2120209D01*
X9635080Y2097292D01*
X9653792Y2078580D01*
X9676709Y2065349D01*
X9702269Y2058500D01*
X9728731D01*
X9754291Y2065349D01*
X9777208Y2078580D01*
X9795920Y2097292D01*
X9809151Y2120209D01*
X9816000Y2145769D01*
Y2172231D01*
X9809151Y2197791D01*
X9795920Y2220708D01*
X9777208Y2239420D01*
X9754291Y2252651D01*
X9728731Y2259500D01*
D02*
G37*
G36*
X9474731D02*
X9448269D01*
X9422709Y2252651D01*
X9399792Y2239420D01*
X9381080Y2220708D01*
X9367849Y2197791D01*
X9361000Y2172231D01*
Y2145769D01*
X9367849Y2120209D01*
X9381080Y2097292D01*
X9399792Y2078580D01*
X9422709Y2065349D01*
X9448269Y2058500D01*
X9474731D01*
X9500291Y2065349D01*
X9523208Y2078580D01*
X9541920Y2097292D01*
X9555151Y2120209D01*
X9562000Y2145769D01*
Y2172231D01*
X9555151Y2197791D01*
X9541920Y2220708D01*
X9523208Y2239420D01*
X9500291Y2252651D01*
X9474731Y2259500D01*
D02*
G37*
G36*
X9220731D02*
X9194269D01*
X9168709Y2252651D01*
X9145792Y2239420D01*
X9127080Y2220708D01*
X9113849Y2197791D01*
X9107000Y2172231D01*
Y2145769D01*
X9113849Y2120209D01*
X9127080Y2097292D01*
X9145792Y2078580D01*
X9168709Y2065349D01*
X9194269Y2058500D01*
X9220731D01*
X9246291Y2065349D01*
X9269208Y2078580D01*
X9287920Y2097292D01*
X9301151Y2120209D01*
X9308000Y2145769D01*
Y2172231D01*
X9301151Y2197791D01*
X9287920Y2220708D01*
X9269208Y2239420D01*
X9246291Y2252651D01*
X9220731Y2259500D01*
D02*
G37*
G36*
X8966731D02*
X8940269D01*
X8914709Y2252651D01*
X8891792Y2239420D01*
X8873080Y2220708D01*
X8859849Y2197791D01*
X8853000Y2172231D01*
Y2145769D01*
X8859849Y2120209D01*
X8873080Y2097292D01*
X8891792Y2078580D01*
X8914709Y2065349D01*
X8940269Y2058500D01*
X8966731D01*
X8992291Y2065349D01*
X9015208Y2078580D01*
X9033920Y2097292D01*
X9047151Y2120209D01*
X9054000Y2145769D01*
Y2172231D01*
X9047151Y2197791D01*
X9033920Y2220708D01*
X9015208Y2239420D01*
X8992291Y2252651D01*
X8966731Y2259500D01*
D02*
G37*
%LPD*%
G36*
X10785612Y3977306D02*
X10793248Y3969669D01*
X10797382Y3959691D01*
Y3948892D01*
X10792006Y3935915D01*
X10790609Y3928892D01*
Y3928892D01*
Y3928891D01*
X10792006Y3921868D01*
X10797382Y3908891D01*
Y3898092D01*
X10792006Y3885115D01*
X10790609Y3878092D01*
Y3878092D01*
Y3878091D01*
X10792006Y3871068D01*
X10797382Y3858091D01*
Y3847292D01*
X10792006Y3834315D01*
X10790609Y3827292D01*
Y3827292D01*
Y3827291D01*
X10792006Y3820268D01*
X10797382Y3807291D01*
Y3796492D01*
X10793248Y3786514D01*
X10785612Y3778877D01*
X10775634Y3774744D01*
X10764834D01*
X10751858Y3780120D01*
X10744834Y3781517D01*
X10744834D01*
X10744834D01*
X10737811Y3780120D01*
X10724834Y3774744D01*
X10714034D01*
X10701058Y3780120D01*
X10694034Y3781517D01*
X10694034D01*
X10694034D01*
X10687011Y3780120D01*
X10674034Y3774744D01*
X10663234D01*
X10653257Y3778877D01*
X10645620Y3786514D01*
X10641487Y3796492D01*
Y3807291D01*
X10646862Y3820268D01*
X10648259Y3827291D01*
Y3827292D01*
Y3827292D01*
X10646862Y3834315D01*
X10641487Y3847292D01*
Y3858091D01*
X10646862Y3871068D01*
X10648259Y3878091D01*
Y3878092D01*
Y3878092D01*
X10646862Y3885115D01*
X10641487Y3898092D01*
Y3908891D01*
X10646862Y3921868D01*
X10648259Y3928891D01*
Y3928892D01*
Y3928892D01*
X10646862Y3935915D01*
X10641487Y3948892D01*
Y3959691D01*
X10645620Y3969669D01*
X10653257Y3977306D01*
X10663234Y3981439D01*
X10674034D01*
X10687011Y3976063D01*
X10694034Y3974666D01*
X10694034D01*
X10694034D01*
X10701058Y3976063D01*
X10714034Y3981439D01*
X10724834D01*
X10737811Y3976063D01*
X10744834Y3974666D01*
X10744834D01*
X10744834D01*
X10751858Y3976063D01*
X10764834Y3981439D01*
X10775634D01*
X10785612Y3977306D01*
D02*
G37*
G36*
X9582159Y3976291D02*
X9589796Y3968655D01*
X9593929Y3958677D01*
Y3947877D01*
X9588554Y3934900D01*
X9587157Y3927877D01*
Y3927877D01*
Y3927877D01*
X9588554Y3920854D01*
X9593929Y3907877D01*
Y3897077D01*
X9588554Y3884100D01*
X9587157Y3877077D01*
Y3877077D01*
Y3877077D01*
X9588554Y3870054D01*
X9593929Y3857077D01*
Y3846277D01*
X9588554Y3833300D01*
X9587157Y3826277D01*
Y3826277D01*
Y3826277D01*
X9588554Y3819254D01*
X9593929Y3806277D01*
Y3795477D01*
X9589796Y3785500D01*
X9582159Y3777863D01*
X9572182Y3773730D01*
X9561382D01*
X9548405Y3779105D01*
X9541382Y3780502D01*
X9541382D01*
X9541381D01*
X9534358Y3779105D01*
X9521382Y3773730D01*
X9510582D01*
X9497605Y3779105D01*
X9490582Y3780502D01*
X9490582D01*
X9490581D01*
X9483558Y3779105D01*
X9470582Y3773730D01*
X9459782D01*
X9449804Y3777863D01*
X9442168Y3785499D01*
X9438034Y3795477D01*
Y3806277D01*
X9443410Y3819254D01*
X9444807Y3826277D01*
Y3826277D01*
Y3826277D01*
X9443410Y3833300D01*
X9438034Y3846277D01*
Y3857077D01*
X9443410Y3870054D01*
X9444807Y3877077D01*
Y3877077D01*
Y3877077D01*
X9443410Y3884100D01*
X9438034Y3897077D01*
Y3907877D01*
X9443410Y3920854D01*
X9444807Y3927877D01*
Y3927877D01*
Y3927877D01*
X9443410Y3934900D01*
X9438034Y3947877D01*
Y3958677D01*
X9442168Y3968654D01*
X9449804Y3976291D01*
X9459782Y3980424D01*
X9470582D01*
X9483558Y3975049D01*
X9490581Y3973652D01*
X9490582D01*
X9490582D01*
X9497605Y3975049D01*
X9510582Y3980424D01*
X9521382D01*
X9534358Y3975049D01*
X9541381Y3973652D01*
X9541382D01*
X9541382D01*
X9548405Y3975049D01*
X9561382Y3980424D01*
X9572182D01*
X9582159Y3976291D01*
D02*
G37*
G36*
X6907284Y2855208D02*
X6923477Y2845859D01*
X6951428Y2838369D01*
X6957780Y2832516D01*
X6961007Y2824467D01*
X6960964Y2823787D01*
X6961789Y2821379D01*
X6962088Y2818852D01*
X6963547Y2816246D01*
X6964514Y2813422D01*
X6966198Y2811513D01*
X6967441Y2809292D01*
X6969786Y2807444D01*
X6971761Y2805204D01*
X6974046Y2804085D01*
X6976045Y2802510D01*
X6983157Y2798886D01*
X7027658Y2766554D01*
X7066554Y2727658D01*
X7098885Y2683157D01*
X7123858Y2634146D01*
X7140856Y2581833D01*
X7149461Y2527503D01*
Y2472497D01*
X7140856Y2418167D01*
X7123858Y2365854D01*
X7098885Y2316843D01*
X7066554Y2272342D01*
X7027658Y2233446D01*
X6983157Y2201115D01*
X6934146Y2176142D01*
X6881833Y2159145D01*
X6827503Y2150540D01*
X6772497D01*
X6718167Y2159145D01*
X6665854Y2176142D01*
X6616843Y2201115D01*
X6572342Y2233446D01*
X6533446Y2272342D01*
X6501115Y2316843D01*
X6476142Y2365855D01*
X6459145Y2418168D01*
X6450540Y2472497D01*
Y2527503D01*
X6459145Y2581833D01*
X6476142Y2634146D01*
X6501115Y2683157D01*
X6533446Y2727658D01*
X6572342Y2766554D01*
X6616843Y2798885D01*
X6665855Y2823858D01*
X6718168Y2840856D01*
X6772497Y2849461D01*
X6827503D01*
X6866737Y2843247D01*
X6867852Y2843290D01*
X6868926Y2842987D01*
X6873290Y2843504D01*
X6877684Y2843677D01*
X6878699Y2844144D01*
X6879806Y2844275D01*
X6883641Y2846423D01*
X6887634Y2848264D01*
X6888392Y2849083D01*
X6889366Y2849629D01*
X6892088Y2853081D01*
X6895071Y2856308D01*
X6907284Y2855208D01*
D02*
G37*
%LPC*%
G36*
X4861501Y7111303D02*
X4825296D01*
X4790325Y7101932D01*
X4758972Y7083830D01*
X4733371Y7058229D01*
X4715269Y7026876D01*
X4705899Y6991905D01*
Y6955701D01*
X4715269Y6920730D01*
X4733371Y6889376D01*
X4758972Y6863775D01*
X4790325Y6845673D01*
X4825296Y6836303D01*
X4861501D01*
X4896472Y6845673D01*
X4927825Y6863775D01*
X4953426Y6889376D01*
X4971528Y6920730D01*
X4980898Y6955701D01*
Y6991905D01*
X4971528Y7026876D01*
X4953426Y7058229D01*
X4927825Y7083830D01*
X4896472Y7101932D01*
X4861501Y7111303D01*
D02*
G37*
G36*
X3361501D02*
X3325296D01*
X3290325Y7101932D01*
X3258972Y7083830D01*
X3233371Y7058229D01*
X3215269Y7026876D01*
X3205899Y6991905D01*
Y6955701D01*
X3215269Y6920730D01*
X3233371Y6889376D01*
X3258972Y6863775D01*
X3290325Y6845673D01*
X3325296Y6836303D01*
X3361501D01*
X3396471Y6845673D01*
X3427825Y6863775D01*
X3453426Y6889376D01*
X3471528Y6920730D01*
X3480898Y6955701D01*
Y6991905D01*
X3471528Y7026876D01*
X3453426Y7058229D01*
X3427825Y7083830D01*
X3396471Y7101932D01*
X3361501Y7111303D01*
D02*
G37*
G36*
X7454787Y7022278D02*
X7421873D01*
X7390082Y7013760D01*
X7361578Y6997303D01*
X7338305Y6974030D01*
X7321848Y6945527D01*
X7313330Y6913735D01*
Y6880822D01*
X7321848Y6849030D01*
X7338305Y6820526D01*
X7361578Y6797253D01*
X7390082Y6780797D01*
X7421873Y6772278D01*
X7454787D01*
X7486578Y6780797D01*
X7515082Y6797253D01*
X7538355Y6820526D01*
X7554812Y6849030D01*
X7563330Y6880822D01*
Y6913735D01*
X7554812Y6945527D01*
X7538355Y6974030D01*
X7515082Y6997303D01*
X7486578Y7013760D01*
X7454787Y7022278D01*
D02*
G37*
G36*
X6061657Y6467000D02*
X6028743D01*
X5996952Y6458482D01*
X5968448Y6442025D01*
X5945175Y6418752D01*
X5928718Y6390248D01*
X5920200Y6358457D01*
Y6325543D01*
X5928718Y6293752D01*
X5945175Y6265248D01*
X5968448Y6241975D01*
X5996952Y6225518D01*
X6028743Y6217000D01*
X6061657D01*
X6093448Y6225518D01*
X6121952Y6241975D01*
X6145225Y6265248D01*
X6161682Y6293752D01*
X6170200Y6325543D01*
Y6358457D01*
X6161682Y6390248D01*
X6145225Y6418752D01*
X6121952Y6442025D01*
X6093448Y6458482D01*
X6061657Y6467000D01*
D02*
G37*
G36*
X8552479Y6334707D02*
X8522931D01*
X8493952Y6328943D01*
X8466653Y6317636D01*
X8442086Y6301220D01*
X8421192Y6280327D01*
X8404777Y6255759D01*
X8393470Y6228461D01*
X8387705Y6199481D01*
Y6169934D01*
X8393470Y6140954D01*
X8404777Y6113656D01*
X8421192Y6089088D01*
X8442086Y6068195D01*
X8466653Y6051779D01*
X8493952Y6040472D01*
X8522931Y6034708D01*
X8552479D01*
X8581458Y6040472D01*
X8608757Y6051779D01*
X8633324Y6068195D01*
X8654218Y6089088D01*
X8670633Y6113656D01*
X8681940Y6140954D01*
X8687705Y6169934D01*
Y6199481D01*
X8681940Y6228461D01*
X8670633Y6255759D01*
X8654218Y6280327D01*
X8633324Y6301220D01*
X8608757Y6317636D01*
X8581458Y6328943D01*
X8552479Y6334707D01*
D02*
G37*
G36*
X7052479D02*
X7022931D01*
X6993952Y6328943D01*
X6966653Y6317636D01*
X6942086Y6301220D01*
X6921192Y6280327D01*
X6904777Y6255759D01*
X6893470Y6228461D01*
X6887705Y6199481D01*
Y6169934D01*
X6893470Y6140954D01*
X6904777Y6113656D01*
X6921192Y6089088D01*
X6942086Y6068195D01*
X6966653Y6051779D01*
X6993952Y6040472D01*
X7022931Y6034708D01*
X7052479D01*
X7081458Y6040472D01*
X7108757Y6051779D01*
X7133324Y6068195D01*
X7154218Y6089088D01*
X7170633Y6113656D01*
X7181940Y6140954D01*
X7187705Y6169934D01*
Y6199481D01*
X7181940Y6228461D01*
X7170633Y6255759D01*
X7154218Y6280327D01*
X7133324Y6301220D01*
X7108757Y6317636D01*
X7081458Y6328943D01*
X7052479Y6334707D01*
D02*
G37*
G36*
X4340200Y5715090D02*
X3893254D01*
X3883499Y5713149D01*
X3875427Y5707756D01*
X3867354Y5713149D01*
X3857600Y5715090D01*
X2536800D01*
X2527046Y5713149D01*
X2518776Y5707624D01*
X2513251Y5699354D01*
X2511310Y5689600D01*
Y5082679D01*
X2513251Y5072925D01*
X2516114Y5068640D01*
X2513251Y5064354D01*
X2511310Y5054600D01*
Y4584700D01*
X2513251Y4574946D01*
X2518776Y4566676D01*
X2527046Y4561151D01*
X2536800Y4559210D01*
X2741557D01*
X2744960Y4546510D01*
X2723183Y4533937D01*
X2700376Y4511130D01*
X2684248Y4483196D01*
X2675900Y4452040D01*
Y4419785D01*
X2684248Y4388630D01*
X2700376Y4360696D01*
X2723183Y4337888D01*
X2751117Y4321761D01*
X2782273Y4313413D01*
X2814528D01*
X2845683Y4321761D01*
X2873617Y4337888D01*
X2896424Y4360696D01*
X2912552Y4388630D01*
X2920900Y4419785D01*
Y4452040D01*
X2912552Y4483196D01*
X2896424Y4511130D01*
X2873617Y4533937D01*
X2851840Y4546510D01*
X2855243Y4559210D01*
X4406810D01*
Y4307562D01*
X4407300Y4305099D01*
Y4302589D01*
X4408261Y4300270D01*
X4408751Y4297808D01*
X4410146Y4295720D01*
X4411106Y4293400D01*
X4413256Y4284213D01*
X4412146Y4278416D01*
X4411313Y4276495D01*
X4410533Y4275715D01*
X4402540Y4256420D01*
Y4235534D01*
X4410533Y4216238D01*
X4411313Y4215458D01*
X4412146Y4213537D01*
X4413256Y4207741D01*
X4411106Y4198553D01*
X4410146Y4196234D01*
X4408751Y4194146D01*
X4408261Y4191684D01*
X4407300Y4189365D01*
Y4186854D01*
X4406810Y4184392D01*
Y4119261D01*
X4407300Y4116797D01*
Y4114288D01*
X4408261Y4111969D01*
X4408751Y4109506D01*
X4410146Y4107418D01*
X4411106Y4105099D01*
X4412881Y4103324D01*
X4414276Y4101237D01*
X4414489Y4101095D01*
X4420638Y4089283D01*
X4412645Y4069988D01*
Y4049102D01*
X4420638Y4029806D01*
X4414489Y4017995D01*
X4414276Y4017852D01*
X4412882Y4015765D01*
X4411106Y4013990D01*
X4410145Y4011670D01*
X4408751Y4009583D01*
X4408261Y4007121D01*
X4407300Y4004801D01*
Y4002291D01*
X4406810Y3999828D01*
Y3784600D01*
X4408751Y3774846D01*
X4414276Y3766576D01*
X4422546Y3761051D01*
X4432300Y3759110D01*
X5232400D01*
X5242154Y3761051D01*
X5250424Y3766576D01*
X5255949Y3774846D01*
X5257890Y3784600D01*
Y4978400D01*
X5255949Y4988154D01*
X5250424Y4996424D01*
X5242154Y5001949D01*
X5232400Y5003890D01*
X4432390D01*
Y5622900D01*
X4430449Y5632654D01*
X4424924Y5640924D01*
X4358224Y5707624D01*
X4349955Y5713149D01*
X4340200Y5715090D01*
D02*
G37*
G36*
X8810867Y5738429D02*
X8777953D01*
X8746162Y5729911D01*
X8717658Y5713454D01*
X8694385Y5690181D01*
X8677929Y5661677D01*
X8669410Y5629886D01*
Y5596972D01*
X8677929Y5565181D01*
X8694385Y5536677D01*
X8717658Y5513404D01*
X8746162Y5496947D01*
X8777953Y5488429D01*
X8810867D01*
X8842658Y5496947D01*
X8871162Y5513404D01*
X8894435Y5536677D01*
X8910892Y5565181D01*
X8919410Y5596972D01*
Y5629886D01*
X8910892Y5661677D01*
X8894435Y5690181D01*
X8871162Y5713454D01*
X8842658Y5729911D01*
X8810867Y5738429D01*
D02*
G37*
G36*
X8302867D02*
X8269953D01*
X8238162Y5729911D01*
X8209658Y5713454D01*
X8186385Y5690181D01*
X8169929Y5661677D01*
X8161410Y5629886D01*
Y5596972D01*
X8169929Y5565181D01*
X8186385Y5536677D01*
X8209658Y5513404D01*
X8238162Y5496947D01*
X8269953Y5488429D01*
X8302867D01*
X8334658Y5496947D01*
X8363162Y5513404D01*
X8386435Y5536677D01*
X8402892Y5565181D01*
X8411410Y5596972D01*
Y5629886D01*
X8402892Y5661677D01*
X8386435Y5690181D01*
X8363162Y5713454D01*
X8334658Y5729911D01*
X8302867Y5738429D01*
D02*
G37*
G36*
X5115450Y5185617D02*
X5094564D01*
X5075268Y5177625D01*
X5060500Y5162856D01*
X5052507Y5143560D01*
Y5122675D01*
X5054027Y5119004D01*
Y5096430D01*
X5052507Y5092760D01*
Y5071875D01*
X5060500Y5052579D01*
X5075268Y5037810D01*
X5094564Y5029818D01*
X5115450D01*
X5134745Y5037810D01*
X5149514Y5052579D01*
X5157507Y5071875D01*
Y5092760D01*
X5155986Y5096430D01*
Y5119004D01*
X5157507Y5122675D01*
Y5143560D01*
X5149514Y5162856D01*
X5134745Y5177625D01*
X5115450Y5185617D01*
D02*
G37*
G36*
X4125907Y4227586D02*
X4100894D01*
X4076732Y4221112D01*
X4055069Y4208605D01*
X4037382Y4190917D01*
X4024875Y4169255D01*
X4018401Y4145093D01*
Y4120079D01*
X4024875Y4095918D01*
X4037382Y4074255D01*
X4055069Y4056567D01*
X4076732Y4044060D01*
X4100894Y4037586D01*
X4125907D01*
X4150069Y4044060D01*
X4171732Y4056567D01*
X4189419Y4074255D01*
X4201926Y4095918D01*
X4208400Y4120079D01*
Y4145093D01*
X4201926Y4169255D01*
X4189419Y4190917D01*
X4171732Y4208605D01*
X4150069Y4221112D01*
X4125907Y4227586D01*
D02*
G37*
G36*
X3550907Y4053802D02*
X3525893D01*
X3501732Y4047328D01*
X3480069Y4034821D01*
X3462382Y4017134D01*
X3449875Y3995471D01*
X3443401Y3971310D01*
Y3946296D01*
X3449875Y3922134D01*
X3462382Y3900471D01*
X3480069Y3882784D01*
X3501732Y3870277D01*
X3525893Y3863803D01*
X3550907D01*
X3575069Y3870277D01*
X3596731Y3882784D01*
X3614419Y3900471D01*
X3626926Y3922134D01*
X3633400Y3946296D01*
Y3971310D01*
X3626926Y3995471D01*
X3614419Y4017134D01*
X3596731Y4034821D01*
X3575069Y4047328D01*
X3550907Y4053802D01*
D02*
G37*
G36*
X2814528Y4058413D02*
X2782273D01*
X2751117Y4050065D01*
X2723183Y4033937D01*
X2700376Y4011130D01*
X2684248Y3983196D01*
X2675900Y3952040D01*
Y3919785D01*
X2684248Y3888630D01*
X2700376Y3860696D01*
X2723183Y3837888D01*
X2751117Y3821761D01*
X2782273Y3813413D01*
X2814528D01*
X2845683Y3821761D01*
X2873617Y3837888D01*
X2896424Y3860696D01*
X2912552Y3888630D01*
X2920900Y3919785D01*
Y3952040D01*
X2912552Y3983196D01*
X2896424Y4011130D01*
X2873617Y4033937D01*
X2845683Y4050065D01*
X2814528Y4058413D01*
D02*
G37*
G36*
X2814580Y3558813D02*
X2782220D01*
X2750962Y3550437D01*
X2730845Y3538823D01*
X2798400Y3471268D01*
X2865955Y3538823D01*
X2845838Y3550437D01*
X2814580Y3558813D01*
D02*
G37*
G36*
X2901310Y3503467D02*
X2833755Y3435913D01*
X2901310Y3368358D01*
X2912925Y3388475D01*
X2921300Y3419733D01*
Y3452093D01*
X2912925Y3483350D01*
X2901310Y3503467D01*
D02*
G37*
G36*
X2695490D02*
X2683876Y3483350D01*
X2675500Y3452093D01*
Y3419733D01*
X2683876Y3388475D01*
X2695490Y3368358D01*
X2763045Y3435913D01*
X2695490Y3503467D01*
D02*
G37*
G36*
X2798400Y3400558D02*
X2730845Y3333003D01*
X2750962Y3321388D01*
X2782220Y3313013D01*
X2814580D01*
X2845838Y3321388D01*
X2865955Y3333003D01*
X2798400Y3400558D01*
D02*
G37*
G36*
X2814580Y3058813D02*
X2782220D01*
X2750962Y3050437D01*
X2730845Y3038823D01*
X2798400Y2971268D01*
X2865955Y3038823D01*
X2845838Y3050437D01*
X2814580Y3058813D01*
D02*
G37*
G36*
X2901310Y3003467D02*
X2833755Y2935913D01*
X2901310Y2868358D01*
X2912925Y2888475D01*
X2921300Y2919733D01*
Y2952093D01*
X2912925Y2983350D01*
X2901310Y3003467D01*
D02*
G37*
G36*
X2695490D02*
X2683876Y2983350D01*
X2675500Y2952093D01*
Y2919733D01*
X2683876Y2888475D01*
X2695490Y2868358D01*
X2763045Y2935913D01*
X2695490Y3003467D01*
D02*
G37*
G36*
X2798400Y2900558D02*
X2730845Y2833003D01*
X2750962Y2821388D01*
X2782220Y2813013D01*
X2814580D01*
X2845838Y2821388D01*
X2865955Y2833003D01*
X2798400Y2900558D01*
D02*
G37*
%LPD*%
G36*
X3857600Y5082679D02*
X3640032D01*
X3640027Y5082678D01*
X3640021Y5082679D01*
X3639848Y5082645D01*
X3618152D01*
X3617979Y5082679D01*
X3617974Y5082678D01*
X3617969Y5082679D01*
X3589232D01*
X3589227Y5082678D01*
X3589221Y5082679D01*
X3589048Y5082645D01*
X3567352D01*
X3567179Y5082679D01*
X3567174Y5082678D01*
X3567169Y5082679D01*
X3538432D01*
X3538427Y5082678D01*
X3538421Y5082679D01*
X3538248Y5082645D01*
X3516552D01*
X3516379Y5082679D01*
X3516374Y5082678D01*
X3516369Y5082679D01*
X3487632D01*
X3487627Y5082678D01*
X3487621Y5082679D01*
X3487448Y5082645D01*
X3465752D01*
X3465579Y5082679D01*
X3465574Y5082678D01*
X3465569Y5082679D01*
X3436832D01*
X3436827Y5082678D01*
X3436821Y5082679D01*
X3436648Y5082645D01*
X3414952D01*
X3414779Y5082679D01*
X3414774Y5082678D01*
X3414769Y5082679D01*
X2536800D01*
Y5689600D01*
X3857600D01*
Y5082679D01*
D02*
G37*
G36*
X4406900Y5622900D02*
Y4584700D01*
X2536800D01*
Y5054600D01*
X3414769D01*
X3414852Y5054565D01*
X3436748D01*
X3436832Y5054600D01*
X3465569D01*
X3465652Y5054565D01*
X3487548D01*
X3487632Y5054600D01*
X3516369D01*
X3516452Y5054565D01*
X3538348D01*
X3538432Y5054600D01*
X3567169D01*
X3567252Y5054565D01*
X3589148D01*
X3589232Y5054600D01*
X3617969D01*
X3618052Y5054565D01*
X3639948D01*
X3640032Y5054600D01*
X3893254D01*
Y5689600D01*
X4340200D01*
X4406900Y5622900D01*
D02*
G37*
G36*
X5232400Y3784600D02*
X4432300D01*
Y3999828D01*
X4445000Y4008314D01*
X4454197Y4004505D01*
X4476093D01*
X4496323Y4012884D01*
X4511806Y4028367D01*
X4520185Y4048596D01*
Y4070493D01*
X4511806Y4090722D01*
X4496323Y4106205D01*
X4476093Y4114584D01*
X4454197D01*
X4445000Y4110775D01*
X4432300Y4119261D01*
Y4184392D01*
X4442860Y4191447D01*
X4444092Y4190937D01*
X4465988D01*
X4486218Y4199316D01*
X4501700Y4214799D01*
X4510080Y4235029D01*
Y4256925D01*
X4501700Y4277154D01*
X4486218Y4292637D01*
X4465988Y4301017D01*
X4444092D01*
X4442860Y4300506D01*
X4432300Y4307562D01*
Y4584249D01*
X4432390Y4584700D01*
Y4978400D01*
X5232400D01*
Y3784600D01*
D02*
G37*
D45*
X10515930Y4294042D02*
X10567006D01*
X10515625Y4293738D02*
X10515930Y4294042D01*
X10567006D02*
X10567064Y4294101D01*
X5830400Y5269400D02*
X5867400Y5232400D01*
X5825810Y5271900D02*
X5828310Y5269400D01*
X5830400D01*
X5824457Y5271900D02*
X5825810D01*
X5105007Y5082317D02*
Y5133117D01*
X10550343Y6727904D02*
Y6778704D01*
X9703448Y6931199D02*
Y6981999D01*
D53*
X9371800Y5708800D02*
D03*
Y6286799D02*
D03*
X5025593Y2861992D02*
D03*
Y2607992D02*
D03*
Y2353992D02*
D03*
X8331200Y2184400D02*
D03*
X8077200D02*
D03*
X9398000Y6858000D02*
D03*
X9371800Y5130800D02*
D03*
Y4552800D02*
D03*
X10477500Y2730500D02*
D03*
X10223500D02*
D03*
X9080500Y6858000D02*
D03*
D54*
X9371800Y5454800D02*
D03*
Y6032800D02*
D03*
X5025593Y3115992D02*
D03*
X9398000Y7112000D02*
D03*
X9371800Y4876800D02*
D03*
Y4298800D02*
D03*
X9080500Y7112000D02*
D03*
D55*
X11215500Y4410929D02*
D03*
Y4664929D02*
D03*
Y5680929D02*
D03*
Y5934929D02*
D03*
Y5426929D02*
D03*
Y5172929D02*
D03*
Y4918929D02*
D03*
X9691500Y4410929D02*
D03*
Y4664929D02*
D03*
Y5680929D02*
D03*
Y5934929D02*
D03*
Y5426929D02*
D03*
Y5172929D02*
D03*
Y4918929D02*
D03*
D56*
X11215500Y6188929D02*
D03*
X9691500D02*
D03*
D57*
X8537705Y6184707D02*
D03*
X7037705D02*
D03*
D58*
X7222705Y2964707D02*
D03*
X6972705D02*
D03*
X8794410Y3581429D02*
D03*
X8286410Y5613429D02*
D03*
X8794410D02*
D03*
X6762410Y3581429D02*
D03*
X7778410D02*
D03*
X6045200Y6342000D02*
D03*
Y5342000D02*
D03*
X7438330Y6897278D02*
D03*
X8438330D02*
D03*
D59*
X3538400Y4958803D02*
D03*
Y3958803D02*
D03*
X4113400Y4132586D02*
D03*
X4243401Y4882586D02*
D03*
D60*
X2798400Y2935913D02*
D03*
Y3435913D02*
D03*
Y3935913D02*
D03*
Y4935913D02*
D03*
Y4435913D02*
D03*
D61*
Y5435913D02*
D03*
D62*
X7823200Y2184400D02*
D03*
X9969500Y2730500D02*
D03*
D63*
X9715500Y2159000D02*
D03*
Y2413000D02*
D03*
X9969500Y2159000D02*
D03*
Y2413000D02*
D03*
X10477500Y2159000D02*
D03*
X10223500Y2413000D02*
D03*
Y2159000D02*
D03*
X9461500Y2413000D02*
D03*
Y2159000D02*
D03*
X9207500Y2413000D02*
D03*
X8953500D02*
D03*
X9207500Y2159000D02*
D03*
X8953500D02*
D03*
D64*
X10477500Y2413000D02*
D03*
D65*
X4843398Y6973803D02*
D03*
X3343398D02*
D03*
D66*
X9486900Y2798878D02*
D03*
X10391179Y3568635D02*
D03*
X10082500Y3365500D02*
D03*
X10216132Y3542100D02*
D03*
X10515625Y4293738D02*
D03*
X5119057Y5779457D02*
D03*
X5118100Y5676900D02*
D03*
X5867400Y5232400D02*
D03*
X5607243Y5575344D02*
D03*
X5824457Y5271900D02*
D03*
X10833100Y6426200D02*
D03*
X10680700Y6565900D02*
D03*
X10653606Y6764400D02*
D03*
Y6964400D02*
D03*
X10084700Y5644600D02*
D03*
X9525000Y5207000D02*
D03*
X9486900Y5588000D02*
D03*
X10648549Y4394700D02*
D03*
X10639195Y4536692D02*
D03*
X10713181Y4610100D02*
D03*
X10777181Y4447717D02*
D03*
X10957937Y4601957D02*
D03*
X10507942Y4947795D02*
D03*
X10426700Y5077600D02*
D03*
X10493699Y5079809D02*
D03*
X10578091Y5435600D02*
D03*
X10560761Y4641310D02*
D03*
X10699136Y4683306D02*
D03*
X10922000Y5105400D02*
D03*
X10160000Y4533900D02*
D03*
X10074083Y4972887D02*
D03*
X10121920Y5367432D02*
D03*
X10426700Y5511800D02*
D03*
X10769600Y5308600D02*
D03*
X10642116Y2920668D02*
D03*
X10574891Y3703181D02*
D03*
X10675825Y3101263D02*
D03*
Y3151556D02*
D03*
Y3202356D02*
D03*
X10676940Y3251172D02*
D03*
X10216132Y3609100D02*
D03*
X10478757Y3621580D02*
D03*
X10567064Y4294101D02*
D03*
X10721743Y4829644D02*
D03*
X10833100Y5105400D02*
D03*
X10395488Y5585545D02*
D03*
X10756900Y5029200D02*
D03*
X10216681Y4865450D02*
D03*
X10675324Y5472445D02*
D03*
X10426700Y5435600D02*
D03*
X10394163Y5272600D02*
D03*
X10769600Y5842000D02*
D03*
X8943701Y5181600D02*
D03*
X10128959Y5039982D02*
D03*
X10269431Y4939250D02*
D03*
X10216682Y4792295D02*
D03*
X10798057Y4916300D02*
D03*
X10792872Y4838695D02*
D03*
X10655740Y6276075D02*
D03*
X10058400Y3048000D02*
D03*
X9471583Y3150603D02*
D03*
X9521892D02*
D03*
X9572692D02*
D03*
X9471583Y3201403D02*
D03*
X9521892D02*
D03*
X9572692D02*
D03*
X9471583Y3252203D02*
D03*
X9521892D02*
D03*
X9572692D02*
D03*
X9515982Y3800877D02*
D03*
X9465182D02*
D03*
X9566782D02*
D03*
X9465182Y3851677D02*
D03*
X9566782D02*
D03*
X9515982D02*
D03*
X9465182Y3902477D02*
D03*
X9566782D02*
D03*
X9515982D02*
D03*
X9465182Y3953277D02*
D03*
X9566782D02*
D03*
X9515982D02*
D03*
X9572692Y3099803D02*
D03*
X9521892D02*
D03*
X9471583D02*
D03*
X7124700Y2819400D02*
D03*
X9817100Y6667500D02*
D03*
X9906000Y6743700D02*
D03*
X10121900Y6769100D02*
D03*
X10058400Y6667500D02*
D03*
X11099800Y6362700D02*
D03*
X11083378Y3771910D02*
D03*
Y4038610D02*
D03*
X9080500Y2527300D02*
D03*
X9994900Y2870200D02*
D03*
X9258300Y3009900D02*
D03*
X7454900Y2997200D02*
D03*
X8128000Y6842100D02*
D03*
Y7042100D02*
D03*
Y7242100D02*
D03*
X8204200Y6680200D02*
D03*
X8588400Y6616700D02*
D03*
X8388400D02*
D03*
X9066079Y6284922D02*
D03*
X8924657Y6426344D02*
D03*
X8783236Y6567765D02*
D03*
X9207500Y5943500D02*
D03*
Y6143501D02*
D03*
Y5343500D02*
D03*
Y5543500D02*
D03*
Y5743500D02*
D03*
X8743701Y5181600D02*
D03*
X9093200Y5257800D02*
D03*
X8143701Y5181600D02*
D03*
X8343701D02*
D03*
X8543701D02*
D03*
X7543700D02*
D03*
X7743701D02*
D03*
X7943701D02*
D03*
X7343700D02*
D03*
X7143700D02*
D03*
X6943700D02*
D03*
X6743700D02*
D03*
X6572929Y5292501D02*
D03*
X6431507Y5433922D02*
D03*
X6290086Y5575344D02*
D03*
X6148665Y5716765D02*
D03*
X5948665D02*
D03*
X5748664D02*
D03*
X5607243Y5375344D02*
D03*
Y5175343D02*
D03*
Y4975343D02*
D03*
Y4775343D02*
D03*
Y4575343D02*
D03*
Y4375343D02*
D03*
Y4175343D02*
D03*
Y3975343D02*
D03*
Y3775343D02*
D03*
X5465822Y3633921D02*
D03*
X5324400Y3492500D02*
D03*
X5124400D02*
D03*
X4924400D02*
D03*
X4711700Y3463900D02*
D03*
X4111700Y2063899D02*
D03*
Y2263899D02*
D03*
X4311700D02*
D03*
X4511700D02*
D03*
X4711700D02*
D03*
Y2463900D02*
D03*
Y2663900D02*
D03*
Y2863900D02*
D03*
Y3063900D02*
D03*
Y3263900D02*
D03*
X5346700Y2616200D02*
D03*
X6502400Y4711700D02*
D03*
X8445500Y4559300D02*
D03*
X7581900Y2501900D02*
D03*
Y2336800D02*
D03*
X7327900D02*
D03*
Y2501900D02*
D03*
X11308361Y3221594D02*
D03*
Y3021593D02*
D03*
Y3621594D02*
D03*
Y3421594D02*
D03*
Y3821594D02*
D03*
Y4021594D02*
D03*
X10604500Y2057400D02*
D03*
X10350500D02*
D03*
X10096500D02*
D03*
X9842500D02*
D03*
X9588500D02*
D03*
X9334500D02*
D03*
X8826500D02*
D03*
X9080500D02*
D03*
X8626500D02*
D03*
X8426500D02*
D03*
X8026500D02*
D03*
X8226500D02*
D03*
X7626499D02*
D03*
X7826499D02*
D03*
X6121400Y3854400D02*
D03*
Y3654400D02*
D03*
Y4054400D02*
D03*
X5566043Y3419743D02*
D03*
X5707464Y3561164D02*
D03*
X5276800Y3263900D02*
D03*
X5076800D02*
D03*
X4876800D02*
D03*
Y2863900D02*
D03*
Y3063900D02*
D03*
Y2263900D02*
D03*
Y2463900D02*
D03*
Y2663900D02*
D03*
X4187198Y6125647D02*
D03*
X3787198D02*
D03*
X3987198D02*
D03*
X3387198D02*
D03*
X3587198D02*
D03*
X6451600Y5143500D02*
D03*
X6310179Y5284921D02*
D03*
X6994156Y5016929D02*
D03*
X6794156D02*
D03*
X6594156D02*
D03*
X7394156D02*
D03*
X7194156D02*
D03*
X7594157D02*
D03*
X7794157D02*
D03*
X7994157D02*
D03*
X8194157D02*
D03*
X8953500Y5016500D02*
D03*
X8794157Y5016929D02*
D03*
X8594157D02*
D03*
X8394157D02*
D03*
X9045843Y6537057D02*
D03*
X9187264Y6395636D02*
D03*
X8904421Y6678479D02*
D03*
X10653606Y7164400D02*
D03*
X10519901Y7256543D02*
D03*
X9519900D02*
D03*
X9719901D02*
D03*
X9919901D02*
D03*
X10119901D02*
D03*
X10319901D02*
D03*
X9319900D02*
D03*
X9119900D02*
D03*
X8919900D02*
D03*
X8719900D02*
D03*
X8319900D02*
D03*
X8519900D02*
D03*
X6655397Y1866900D02*
D03*
X3955396D02*
D03*
X4055396Y1866901D02*
D03*
X3555396Y1866900D02*
D03*
X3855396D02*
D03*
X3755396D02*
D03*
X3655396D02*
D03*
X3155396D02*
D03*
X3455396Y1866901D02*
D03*
X3355396Y1866900D02*
D03*
X3255396D02*
D03*
X3055396D02*
D03*
X2955395D02*
D03*
X2855395Y1866901D02*
D03*
X2355395Y1866900D02*
D03*
X2455395D02*
D03*
X2255395D02*
D03*
X2755395Y1866901D02*
D03*
X2655395D02*
D03*
X2555395D02*
D03*
X11155400Y1866900D02*
D03*
X11255400Y1866900D02*
D03*
X11355400D02*
D03*
X11055400D02*
D03*
X10655400D02*
D03*
X10955400D02*
D03*
X10855400D02*
D03*
X10755400D02*
D03*
X10255399D02*
D03*
X10555400Y1866900D02*
D03*
X10455399Y1866900D02*
D03*
X10355399Y1866900D02*
D03*
X9855399Y1866900D02*
D03*
X10155399D02*
D03*
X10055399D02*
D03*
X9955399D02*
D03*
X9455399D02*
D03*
X9755399Y1866900D02*
D03*
X9655399Y1866900D02*
D03*
X9555399Y1866900D02*
D03*
X9055399Y1866900D02*
D03*
X9355399D02*
D03*
X9255399D02*
D03*
X9155399Y1866900D02*
D03*
X8655398Y1866900D02*
D03*
X8955399Y1866900D02*
D03*
X8855399Y1866900D02*
D03*
X8755399Y1866900D02*
D03*
X8255398Y1866900D02*
D03*
X8555398D02*
D03*
X8455398D02*
D03*
X8355398D02*
D03*
X7855398D02*
D03*
X8155398Y1866900D02*
D03*
X8055398Y1866900D02*
D03*
X7955398D02*
D03*
X7755398D02*
D03*
X7655398D02*
D03*
X7555398Y1866900D02*
D03*
X7055398Y1866900D02*
D03*
X7155398D02*
D03*
X6955398D02*
D03*
X6855398D02*
D03*
X6755397Y1866900D02*
D03*
X7455398D02*
D03*
X7355398D02*
D03*
X7255398D02*
D03*
X11442700Y2424598D02*
D03*
Y2524598D02*
D03*
Y2624598D02*
D03*
Y6724600D02*
D03*
Y6824600D02*
D03*
Y6924600D02*
D03*
X2184400Y2054897D02*
D03*
Y1954897D02*
D03*
Y2154897D02*
D03*
Y2454897D02*
D03*
Y2354897D02*
D03*
X2184400Y2254897D02*
D03*
X2342695Y7424601D02*
D03*
X2442695D02*
D03*
X2742695D02*
D03*
X2642695D02*
D03*
X2542695Y7424601D02*
D03*
X2184400Y6954900D02*
D03*
Y7054900D02*
D03*
Y7254900D02*
D03*
X2184400Y7154900D02*
D03*
X2184400Y4054898D02*
D03*
Y3354898D02*
D03*
X2184401Y3454898D02*
D03*
Y3554898D02*
D03*
Y3254898D02*
D03*
X2184400Y3754898D02*
D03*
X2184401Y3854898D02*
D03*
Y3954898D02*
D03*
Y3654898D02*
D03*
X2184400Y2554897D02*
D03*
Y2654897D02*
D03*
X2184401Y2754897D02*
D03*
X2184400Y2954898D02*
D03*
X2184401Y3054898D02*
D03*
Y3154898D02*
D03*
Y2854898D02*
D03*
X2184400Y7354900D02*
D03*
Y6654900D02*
D03*
X2184400Y6754900D02*
D03*
Y6854900D02*
D03*
Y6554900D02*
D03*
X2184400Y5854899D02*
D03*
Y5954899D02*
D03*
X2184400Y6054899D02*
D03*
Y5754899D02*
D03*
X2184400Y6254899D02*
D03*
X2184400Y6354899D02*
D03*
Y6454899D02*
D03*
Y6154900D02*
D03*
X2184400Y5054899D02*
D03*
X2184400Y5154899D02*
D03*
Y5254899D02*
D03*
Y4954899D02*
D03*
X2184400Y5454899D02*
D03*
X2184400Y5554899D02*
D03*
Y5654899D02*
D03*
Y5354899D02*
D03*
X2184400Y4254898D02*
D03*
Y4354898D02*
D03*
X2184400Y4454898D02*
D03*
Y4154898D02*
D03*
X2184400Y4654898D02*
D03*
X2184400Y4754899D02*
D03*
Y4854899D02*
D03*
Y4554899D02*
D03*
X4142696Y7424600D02*
D03*
X3442696Y7424601D02*
D03*
X3542696Y7424600D02*
D03*
X3642696D02*
D03*
X3342696D02*
D03*
X3842696Y7424601D02*
D03*
X3942696Y7424600D02*
D03*
X4042696D02*
D03*
X3742696D02*
D03*
X2842695D02*
D03*
X3042695Y7424601D02*
D03*
X3142696Y7424600D02*
D03*
X3242696D02*
D03*
X2942695D02*
D03*
X2242695Y7424601D02*
D03*
X4642696D02*
D03*
X4942696D02*
D03*
X4842696D02*
D03*
X4742696Y7424601D02*
D03*
X4242696Y7424601D02*
D03*
X4542696D02*
D03*
X4442696D02*
D03*
X4342696Y7424601D02*
D03*
X5442697Y7424601D02*
D03*
X5742697D02*
D03*
X5642697D02*
D03*
X5542697Y7424601D02*
D03*
X5042697Y7424601D02*
D03*
X5342697D02*
D03*
X5242697D02*
D03*
X5142697Y7424601D02*
D03*
X6242697Y7424601D02*
D03*
X6542697D02*
D03*
X6442697D02*
D03*
X6342697Y7424601D02*
D03*
X5842697Y7424601D02*
D03*
X6142697D02*
D03*
X6042697D02*
D03*
X5942697Y7424601D02*
D03*
X7042698Y7424601D02*
D03*
X7342698D02*
D03*
X7242698D02*
D03*
X7142698Y7424601D02*
D03*
X6642697Y7424601D02*
D03*
X6942698D02*
D03*
X6842698D02*
D03*
X6742697Y7424601D02*
D03*
X7842698Y7424601D02*
D03*
X8142698D02*
D03*
X8042698D02*
D03*
X7942698Y7424601D02*
D03*
X7442698Y7424601D02*
D03*
X7742698D02*
D03*
X7642698D02*
D03*
X7542698Y7424601D02*
D03*
X8642698Y7424601D02*
D03*
X8942699D02*
D03*
X8842699D02*
D03*
X8742699Y7424601D02*
D03*
X8242698Y7424601D02*
D03*
X8542698D02*
D03*
X8442698D02*
D03*
X8342698Y7424601D02*
D03*
X9442699Y7424601D02*
D03*
X9742699D02*
D03*
X9642699D02*
D03*
X9542699Y7424601D02*
D03*
X9042699Y7424601D02*
D03*
X9342699D02*
D03*
X9242699D02*
D03*
X9142699Y7424601D02*
D03*
X10242699Y7424601D02*
D03*
X10542700D02*
D03*
X10442699D02*
D03*
X10342699Y7424601D02*
D03*
X9842699Y7424601D02*
D03*
X10142699D02*
D03*
X10042699D02*
D03*
X9942699Y7424601D02*
D03*
X10742700D02*
D03*
X10842700Y7424601D02*
D03*
X10942700D02*
D03*
X10642700D02*
D03*
X11142700Y7424601D02*
D03*
X11242700Y7424601D02*
D03*
X11342700D02*
D03*
X11042700D02*
D03*
X11442700Y7324601D02*
D03*
X11442700Y7224600D02*
D03*
Y7124600D02*
D03*
Y7424601D02*
D03*
Y7024600D02*
D03*
Y1924598D02*
D03*
Y2024598D02*
D03*
Y2124598D02*
D03*
Y2324598D02*
D03*
Y2224598D02*
D03*
Y2724598D02*
D03*
Y2824598D02*
D03*
Y2924598D02*
D03*
Y3124598D02*
D03*
Y3224598D02*
D03*
Y3324598D02*
D03*
Y3024598D02*
D03*
Y3524598D02*
D03*
Y3624599D02*
D03*
Y3724599D02*
D03*
Y3424598D02*
D03*
Y3924599D02*
D03*
Y4024599D02*
D03*
Y4124599D02*
D03*
Y3824599D02*
D03*
Y4324599D02*
D03*
Y4424599D02*
D03*
Y4524599D02*
D03*
Y4224599D02*
D03*
Y4724599D02*
D03*
Y4824599D02*
D03*
Y4924599D02*
D03*
Y4624599D02*
D03*
Y5124599D02*
D03*
Y5224599D02*
D03*
Y5324599D02*
D03*
Y5024599D02*
D03*
Y5524600D02*
D03*
Y5624600D02*
D03*
Y5724600D02*
D03*
Y5424600D02*
D03*
Y5924600D02*
D03*
Y6024600D02*
D03*
Y6124600D02*
D03*
Y5824600D02*
D03*
Y6224600D02*
D03*
Y6624600D02*
D03*
Y6524600D02*
D03*
Y6424600D02*
D03*
Y6324600D02*
D03*
X5105007Y5133117D02*
D03*
Y5082317D02*
D03*
X6566620Y1967200D02*
D03*
X10058400Y3175000D02*
D03*
X10855470Y6275077D02*
D03*
X11016100Y4696784D02*
D03*
X10446025Y5977480D02*
D03*
X10256282Y6278073D02*
D03*
X10333177Y5889599D02*
D03*
X10550343Y6727904D02*
D03*
Y6778704D02*
D03*
X9703448Y6931199D02*
D03*
Y6981999D02*
D03*
X4670934Y6104613D02*
D03*
X4387198Y6125647D02*
D03*
X4585087Y6123912D02*
D03*
X3924589Y6428556D02*
D03*
X6074582Y4700248D02*
D03*
X4465145Y4059545D02*
D03*
X4697732Y3995446D02*
D03*
X4455040Y4245977D02*
D03*
X6073031Y4591248D02*
D03*
X6073041Y4533967D02*
D03*
X6070026Y4430728D02*
D03*
X6071534Y4367427D02*
D03*
X6302185Y3077061D02*
D03*
X5830622Y3282720D02*
D03*
X5882182Y2484754D02*
D03*
X5729259D02*
D03*
X6034582D02*
D03*
X5734524Y2818629D02*
D03*
X6039848D02*
D03*
X5886924D02*
D03*
X4090631Y5109605D02*
D03*
X5969000Y5080000D02*
D03*
X4845280Y4746632D02*
D03*
X3527400Y5109605D02*
D03*
X3425800D02*
D03*
X3578200D02*
D03*
X3476600D02*
D03*
X3527400Y5160405D02*
D03*
X3476600D02*
D03*
X3425800D02*
D03*
X3578200D02*
D03*
X3629000D02*
D03*
Y5109605D02*
D03*
X4293831D02*
D03*
X4141431D02*
D03*
X4192231D02*
D03*
X4243031D02*
D03*
X4141431Y5160405D02*
D03*
X3629000Y5211205D02*
D03*
X4192231Y5160405D02*
D03*
X4243031D02*
D03*
X4293831D02*
D03*
X3425800Y5211205D02*
D03*
X3527400D02*
D03*
X3476600D02*
D03*
X3578200D02*
D03*
X4141431D02*
D03*
X4192231D02*
D03*
X4243031D02*
D03*
X4293831D02*
D03*
X4090631Y5160405D02*
D03*
Y5211205D02*
D03*
X10452100Y2921000D02*
D03*
X10725756Y3151556D02*
D03*
Y3202356D02*
D03*
X10776556D02*
D03*
X10725756Y3100756D02*
D03*
X10776556D02*
D03*
Y3151556D02*
D03*
Y3253156D02*
D03*
X10725756D02*
D03*
X10719434Y3954292D02*
D03*
X10668634Y3903492D02*
D03*
Y3801892D02*
D03*
X10770234Y3954292D02*
D03*
X10668634D02*
D03*
X10770234Y3852692D02*
D03*
Y3801892D02*
D03*
X10719434D02*
D03*
X10770234Y3903492D02*
D03*
X10719434D02*
D03*
Y3852692D02*
D03*
X10668634D02*
D03*
X10270700Y4470400D02*
D03*
X10396500Y4695200D02*
D03*
Y4855200D02*
D03*
X10476500Y4775200D02*
D03*
X10396500D02*
D03*
X10316500D02*
D03*
D67*
X2500000Y2250000D02*
D03*
X6800000Y2500000D02*
D03*
X11100000D02*
D03*
X6800000Y6800000D02*
D03*
X11100000D02*
D03*
X2500000Y7050000D02*
D03*
%TF.MD5,55970857146fbfeb1136ea00bce2ed08*%
M02*
