%TF.GenerationSoftware,Altium Limited,Altium Designer,25.4.2 (15)*%
G04 Layer_Color=8421504*
%FSLAX45Y45*%
%MOMM*%
%TF.SameCoordinates,6499F7F0-7A9F-49DE-995D-C880093CFB45*%
%TF.FilePolarity,Positive*%
%TF.FileFunction,Paste,Top*%
%TF.Part,Single*%
G01*
G75*
%TA.AperFunction,SMDPad,CuDef*%
%ADD11R,0.60000X1.20000*%
%ADD12R,1.90000X4.20000*%
%ADD13R,0.90000X0.80000*%
%ADD14R,0.50000X0.60000*%
%ADD15R,1.10620X0.75620*%
%ADD16R,1.00620X0.55620*%
%ADD17R,0.96822X1.00650*%
%ADD18R,0.95620X1.20620*%
%ADD19R,1.95000X0.65000*%
%ADD20R,1.06822X1.20651*%
%ADD21R,1.50822X1.20651*%
%ADD22R,1.80620X1.15524*%
%ADD23R,0.60000X0.50000*%
%ADD24R,1.20620X0.95620*%
%ADD25R,1.70000X2.30000*%
%ADD26R,1.30981X0.90606*%
%ADD27R,0.60000X2.00000*%
%ADD28R,4.41000X2.00000*%
%ADD29R,1.06213X1.13504*%
%ADD30R,1.13504X1.06213*%
%ADD31R,0.91213X0.85872*%
%ADD32R,0.95822X1.00650*%
%TA.AperFunction,BGAPad,CuDef*%
%ADD33R,1.00000X1.00000*%
%ADD34R,1.00000X1.00000*%
%TA.AperFunction,SMDPad,CuDef*%
G04:AMPARAMS|DCode=36|XSize=0.25mm|YSize=0.6mm|CornerRadius=0.05mm|HoleSize=0mm|Usage=FLASHONLY|Rotation=0.000|XOffset=0mm|YOffset=0mm|HoleType=Round|Shape=RoundedRectangle|*
%AMROUNDEDRECTD36*
21,1,0.25000,0.50000,0,0,0.0*
21,1,0.15000,0.60000,0,0,0.0*
1,1,0.10000,0.07500,-0.25000*
1,1,0.10000,-0.07500,-0.25000*
1,1,0.10000,-0.07500,0.25000*
1,1,0.10000,0.07500,0.25000*
%
%ADD36ROUNDEDRECTD36*%
G04:AMPARAMS|DCode=37|XSize=0.6mm|YSize=0.25mm|CornerRadius=0.05mm|HoleSize=0mm|Usage=FLASHONLY|Rotation=0.000|XOffset=0mm|YOffset=0mm|HoleType=Round|Shape=RoundedRectangle|*
%AMROUNDEDRECTD37*
21,1,0.60000,0.15000,0,0,0.0*
21,1,0.50000,0.25000,0,0,0.0*
1,1,0.10000,0.25000,-0.07500*
1,1,0.10000,-0.25000,-0.07500*
1,1,0.10000,-0.25000,0.07500*
1,1,0.10000,0.25000,0.07500*
%
%ADD37ROUNDEDRECTD37*%
%ADD38R,0.90000X1.00000*%
%ADD39R,0.75814X0.81213*%
%ADD40R,0.80000X0.80000*%
%ADD41R,0.90000X0.75000*%
%ADD42R,0.96213X0.93504*%
%ADD43R,0.80000X0.90000*%
G36*
X10386500Y4760200D02*
Y4676200D01*
Y4675205D01*
X10385739Y4673368D01*
X10384332Y4671961D01*
X10382494Y4671200D01*
X10381500D01*
D01*
X10297500D01*
X10296505D01*
X10294667Y4671961D01*
X10293261Y4673368D01*
X10292500Y4675205D01*
Y4676200D01*
D01*
Y4760200D01*
Y4761194D01*
X10293261Y4763032D01*
X10294667Y4764439D01*
X10296505Y4765200D01*
X10297500D01*
D01*
X10381500D01*
X10382494D01*
X10384332Y4764439D01*
X10385739Y4763032D01*
X10386500Y4761194D01*
Y4760200D01*
D01*
D02*
G37*
G36*
Y4790200D02*
Y4789205D01*
X10385739Y4787368D01*
X10384332Y4785961D01*
X10382494Y4785200D01*
X10381500D01*
D01*
X10297500D01*
X10296505D01*
X10294667Y4785961D01*
X10293261Y4787368D01*
X10292500Y4789205D01*
Y4790200D01*
D01*
Y4874200D01*
Y4875194D01*
X10293261Y4877032D01*
X10294667Y4878439D01*
X10296505Y4879200D01*
X10297500D01*
D01*
X10381500D01*
X10382494D01*
X10384332Y4878439D01*
X10385739Y4877032D01*
X10386500Y4875194D01*
Y4874200D01*
D01*
Y4790200D01*
D02*
G37*
G36*
X10500500Y4676200D02*
Y4675205D01*
X10499739Y4673368D01*
X10498332Y4671961D01*
X10496494Y4671200D01*
X10495500D01*
D01*
X10411500D01*
X10410505D01*
X10408668Y4671961D01*
X10407261Y4673368D01*
X10406500Y4675205D01*
Y4676200D01*
D01*
Y4760200D01*
Y4761194D01*
X10407261Y4763032D01*
X10408668Y4764439D01*
X10410505Y4765200D01*
X10411500D01*
D01*
X10495500D01*
X10496494D01*
X10498332Y4764439D01*
X10499739Y4763032D01*
X10500500Y4761194D01*
Y4760200D01*
D01*
Y4676200D01*
D02*
G37*
G36*
X10406500Y4790200D02*
Y4874200D01*
Y4875194D01*
X10407261Y4877032D01*
X10408668Y4878439D01*
X10410505Y4879200D01*
X10411500D01*
D01*
X10495500D01*
X10496494D01*
X10498332Y4878439D01*
X10499739Y4877032D01*
X10500500Y4875194D01*
Y4874200D01*
D01*
Y4790200D01*
Y4789205D01*
X10499739Y4787368D01*
X10498332Y4785961D01*
X10496494Y4785200D01*
X10495500D01*
D01*
X10411500D01*
X10410505D01*
X10408668Y4785961D01*
X10407261Y4787368D01*
X10406500Y4789205D01*
Y4790200D01*
D01*
D02*
G37*
D11*
X10144765Y6955501D02*
D03*
X10239765Y6775502D02*
D03*
X10049765Y6775501D02*
D03*
D12*
X9715036Y3876378D02*
D03*
Y3176378D02*
D03*
X10916486Y3876388D02*
D03*
Y3176388D02*
D03*
D13*
X4768531Y4246032D02*
D03*
Y4096032D02*
D03*
D14*
X4627953Y4120819D02*
D03*
X4527953D02*
D03*
X4628530Y4246219D02*
D03*
X4528531D02*
D03*
X4628276Y3995419D02*
D03*
X4528277D02*
D03*
D15*
X4559300Y4720800D02*
D03*
Y4905800D02*
D03*
X10542900Y4370686D02*
D03*
Y4185686D02*
D03*
X10187300Y4370686D02*
D03*
Y4185686D02*
D03*
D16*
X4749800Y4578300D02*
D03*
X4749800Y4413300D02*
D03*
D17*
X4559300Y4423214D02*
D03*
Y4568386D02*
D03*
X4756122Y4872249D02*
D03*
Y4727078D02*
D03*
D18*
X6000282Y3767099D02*
D03*
X5795283D02*
D03*
D19*
X5931031Y4871909D02*
D03*
Y4744909D02*
D03*
Y4617909D02*
D03*
Y4490909D02*
D03*
Y4363909D02*
D03*
Y4236909D02*
D03*
Y4109909D02*
D03*
Y3982909D02*
D03*
X4986031D02*
D03*
Y4109909D02*
D03*
Y4236909D02*
D03*
Y4363909D02*
D03*
Y4490909D02*
D03*
Y4617909D02*
D03*
Y4744909D02*
D03*
Y4871909D02*
D03*
D20*
X6163841Y4396784D02*
D03*
Y4561956D02*
D03*
D21*
X5227444Y5619146D02*
D03*
Y5829317D02*
D03*
D22*
Y5105562D02*
D03*
X5227444Y5400658D02*
D03*
X5227445Y6342901D02*
D03*
X5227444Y6047805D02*
D03*
D23*
X4672000Y6173000D02*
D03*
Y6273000D02*
D03*
D24*
X4485126Y6123843D02*
D03*
Y6328843D02*
D03*
X6163841Y4773194D02*
D03*
Y4978194D02*
D03*
X10447975Y6752818D02*
D03*
Y6957817D02*
D03*
X9804055Y6957023D02*
D03*
Y6752023D02*
D03*
D25*
X7451200Y2000511D02*
D03*
Y2420511D02*
D03*
D26*
X7162800Y2084208D02*
D03*
Y1928992D02*
D03*
D27*
X3415316Y6283803D02*
D03*
X3542316Y6283803D02*
D03*
X3669316D02*
D03*
X3796316D02*
D03*
X3923316D02*
D03*
X4050316Y6283803D02*
D03*
X4177316Y6283803D02*
D03*
X4304316Y6283803D02*
D03*
D28*
X4113816Y5353803D02*
D03*
X3605816D02*
D03*
D29*
X6481907Y1923733D02*
D03*
Y2086811D02*
D03*
X10241067Y5897347D02*
D03*
X10241067Y5734269D02*
D03*
X10652280Y5897347D02*
D03*
Y5734269D02*
D03*
X10858493Y5897347D02*
D03*
X10858494Y5734269D02*
D03*
D30*
X5736853Y3278106D02*
D03*
X5573775D02*
D03*
D31*
X10949800Y4197323D02*
D03*
Y4352664D02*
D03*
D32*
X10741430Y4200103D02*
D03*
Y4345274D02*
D03*
D33*
X5883951Y2577046D02*
D03*
X5558951Y3027046D02*
D03*
Y2877046D02*
D03*
Y2727046D02*
D03*
Y2577046D02*
D03*
X5733951D02*
D03*
Y2727046D02*
D03*
X5883951D02*
D03*
X6033951D02*
D03*
Y2577046D02*
D03*
D34*
X6208951Y2427046D02*
D03*
Y2577046D02*
D03*
Y2727046D02*
D03*
Y2877046D02*
D03*
Y3027046D02*
D03*
X6033951D02*
D03*
X5883951D02*
D03*
X5733951D02*
D03*
X5558951Y2427046D02*
D03*
Y2277046D02*
D03*
X5883951D02*
D03*
X6033951D02*
D03*
X5733951D02*
D03*
D36*
X10221500Y5015200D02*
D03*
X10271500D02*
D03*
X10321500D02*
D03*
X10371500D02*
D03*
X10421500D02*
D03*
X10471500D02*
D03*
X10521500D02*
D03*
X10571500D02*
D03*
Y4535200D02*
D03*
X10521500D02*
D03*
X10471500D02*
D03*
X10421500D02*
D03*
X10371500D02*
D03*
X10321500D02*
D03*
X10271500D02*
D03*
X10221500D02*
D03*
D37*
X10636500Y4950200D02*
D03*
Y4900200D02*
D03*
Y4850200D02*
D03*
Y4800200D02*
D03*
Y4750200D02*
D03*
Y4700200D02*
D03*
Y4650200D02*
D03*
Y4600200D02*
D03*
X10156500D02*
D03*
Y4650200D02*
D03*
Y4700200D02*
D03*
Y4750200D02*
D03*
Y4800200D02*
D03*
Y4850200D02*
D03*
Y4900200D02*
D03*
Y4950200D02*
D03*
D38*
X10370091Y4368186D02*
D03*
X10370090Y4188186D02*
D03*
D39*
X10941799Y4699000D02*
D03*
X10816401D02*
D03*
D40*
X10954100Y4521200D02*
D03*
X10804100Y4521200D02*
D03*
D41*
X10255190Y6199737D02*
D03*
Y6079737D02*
D03*
X10655493Y6195880D02*
D03*
Y6075880D02*
D03*
X10858500Y6194100D02*
D03*
Y6074100D02*
D03*
D42*
X10444173Y5887348D02*
D03*
Y5744269D02*
D03*
D43*
X9919700Y6197600D02*
D03*
X10044700Y6197600D02*
D03*
X9919700Y5689600D02*
D03*
X10044700Y5689600D02*
D03*
%TF.MD5,a40f2059908ef8ecbc4aeec09d1ed34c*%
M02*
